<svg width="654" height="677" viewBox="0 0 654 677" fill="none" xmlns="http://www.w3.org/2000/svg">
<circle cx="339.5" cy="338.5" r="243" stroke="black" stroke-width="19"/>
<mask id="path-2-outside-1_2226_105" maskUnits="userSpaceOnUse" x="261" y="233" width="166" height="203" fill="black">
<rect fill="white" x="261" y="233" width="166" height="203"/>
<path d="M318 305.25C321.833 298.583 327.25 293.417 334.25 289.75C341.25 285.917 349.5 284 359 284C370.167 284 380.25 286.917 389.25 292.75C398.417 298.583 405.583 306.917 410.75 317.75C416.083 328.583 418.75 341.25 418.75 355.75C418.75 370.25 416.083 383 410.75 394C405.583 404.833 398.417 413.167 389.25 419C380.25 424.833 370.167 427.75 359 427.75C349.5 427.75 341.25 425.917 334.25 422.25C327.25 418.417 321.833 413.167 318 406.5V426H269V241H318V305.25ZM369 355.75C369 346.583 366.5 339.5 361.5 334.5C356.667 329.333 350.667 326.75 343.5 326.75C336.333 326.75 330.25 329.333 325.25 334.5C320.417 339.667 318 346.75 318 355.75C318 364.917 320.417 372.083 325.25 377.25C330.25 382.417 336.333 385 343.5 385C350.667 385 356.667 382.417 361.5 377.25C366.5 371.917 369 364.75 369 355.75Z"/>
</mask>
<path d="M318 305.25C321.833 298.583 327.25 293.417 334.25 289.75C341.25 285.917 349.5 284 359 284C370.167 284 380.25 286.917 389.25 292.75C398.417 298.583 405.583 306.917 410.75 317.75C416.083 328.583 418.75 341.25 418.75 355.75C418.75 370.25 416.083 383 410.75 394C405.583 404.833 398.417 413.167 389.25 419C380.25 424.833 370.167 427.75 359 427.75C349.5 427.75 341.25 425.917 334.25 422.25C327.25 418.417 321.833 413.167 318 406.5V426H269V241H318V305.25ZM369 355.75C369 346.583 366.5 339.5 361.5 334.5C356.667 329.333 350.667 326.75 343.5 326.75C336.333 326.75 330.25 329.333 325.25 334.5C320.417 339.667 318 346.75 318 355.75C318 364.917 320.417 372.083 325.25 377.25C330.25 382.417 336.333 385 343.5 385C350.667 385 356.667 382.417 361.5 377.25C366.5 371.917 369 364.75 369 355.75Z" fill="white"/>
<path d="M318 305.25H310V335.212L324.935 309.238L318 305.25ZM334.25 289.75L337.962 296.837L338.028 296.802L338.093 296.767L334.25 289.75ZM389.25 292.75L384.899 299.463L384.927 299.481L384.955 299.499L389.25 292.75ZM410.75 317.75L403.529 321.194L403.551 321.239L403.573 321.283L410.75 317.75ZM410.75 394L403.551 390.51L403.54 390.533L403.529 390.556L410.75 394ZM389.25 419L384.955 412.251L384.927 412.269L384.899 412.287L389.25 419ZM334.25 422.25L330.407 429.267L330.472 429.302L330.538 429.337L334.25 422.25ZM318 406.5L324.935 402.512L310 376.538V406.5H318ZM318 426V434H326V426H318ZM269 426H261V434H269V426ZM269 241V233H261V241H269ZM318 241H326V233H318V241ZM361.5 334.5L355.658 339.965L355.749 340.063L355.843 340.157L361.5 334.5ZM325.25 334.5L319.501 328.937L319.454 328.985L319.408 329.035L325.25 334.5ZM325.25 377.25L319.408 382.715L319.454 382.765L319.501 382.813L325.25 377.25ZM361.5 377.25L355.664 371.778L355.658 371.785L361.5 377.25ZM318 305.25L324.935 309.238C327.989 303.927 332.27 299.818 337.962 296.837L334.25 289.75L330.538 282.663C322.23 287.015 315.678 293.239 311.065 301.262L318 305.25ZM334.25 289.75L338.093 296.767C343.709 293.691 350.588 292 359 292V284V276C348.412 276 338.791 278.142 330.407 282.733L334.25 289.75ZM359 284V292C368.69 292 377.25 294.505 384.899 299.463L389.25 292.75L393.601 286.037C383.25 279.328 371.644 276 359 276V284ZM389.25 292.75L384.955 299.499C392.725 304.444 398.939 311.568 403.529 321.194L410.75 317.75L417.971 314.306C412.228 302.265 404.108 292.723 393.545 286.001L389.25 292.75ZM410.75 317.75L403.573 321.283C408.267 330.818 410.75 342.232 410.75 355.75H418.75H426.75C426.75 340.268 423.9 326.348 417.927 314.217L410.75 317.75ZM418.75 355.75H410.75C410.75 369.264 408.268 380.782 403.551 390.51L410.75 394L417.949 397.49C423.899 385.218 426.75 371.236 426.75 355.75H418.75ZM410.75 394L403.529 390.556C398.939 400.182 392.725 407.306 384.955 412.251L389.25 419L393.545 425.749C404.108 419.027 412.228 409.485 417.971 397.444L410.75 394ZM389.25 419L384.899 412.287C377.25 417.245 368.69 419.75 359 419.75V427.75V435.75C371.644 435.75 383.25 432.422 393.601 425.713L389.25 419ZM359 427.75V419.75C350.533 419.75 343.607 418.12 337.962 415.163L334.25 422.25L330.538 429.337C338.893 433.713 348.467 435.75 359 435.75V427.75ZM334.25 422.25L338.093 415.233C332.331 412.078 328.007 407.855 324.935 402.512L318 406.5L311.065 410.488C315.66 418.479 322.169 424.755 330.407 429.267L334.25 422.25ZM318 406.5H310V426H318H326V406.5H318ZM318 426V418H269V426V434H318V426ZM269 426H277V241H269H261V426H269ZM269 241V249H318V241V233H269V241ZM318 241H310V305.25H318H326V241H318ZM369 355.75H377C377 345.118 374.065 335.751 367.157 328.843L361.5 334.5L355.843 340.157C358.935 343.249 361 348.049 361 355.75H369ZM361.5 334.5L367.342 329.035C360.974 322.227 352.848 318.75 343.5 318.75V326.75V334.75C348.485 334.75 352.359 336.439 355.658 339.965L361.5 334.5ZM343.5 326.75V318.75C334.158 318.75 326.003 322.218 319.501 328.937L325.25 334.5L330.999 340.063C334.497 336.448 338.508 334.75 343.5 334.75V326.75ZM325.25 334.5L319.408 329.035C312.84 336.055 310 345.295 310 355.75H318H326C326 348.205 327.993 343.278 331.092 339.965L325.25 334.5ZM318 355.75H310C310 366.326 312.816 375.669 319.408 382.715L325.25 377.25L331.092 371.785C328.018 368.498 326 363.507 326 355.75H318ZM325.25 377.25L319.501 382.813C326.003 389.532 334.158 393 343.5 393V385V377C338.508 377 334.497 375.302 330.999 371.687L325.25 377.25ZM343.5 385V393C352.848 393 360.974 389.523 367.342 382.715L361.5 377.25L355.658 371.785C352.359 375.311 348.485 377 343.5 377V385ZM361.5 377.25L367.336 382.722C374.031 375.581 377 366.289 377 355.75H369H361C361 363.211 358.969 368.253 355.664 371.778L361.5 377.25Z" fill="black" mask="url(#path-2-outside-1_2226_105)"/>
</svg>
