<svg width="1920" height="1080" viewBox="0 0 1920 1080" fill="none" xmlns="http://www.w3.org/2000/svg">
<g clip-path="url(#clip0_2489_142)">
<rect width="1920" height="1080" fill="#F7F6FB"/>
<path d="M973.554 389.889C973.554 413.023 992.196 431.777 1015.19 431.777C1038.19 431.777 1056.83 450.423 1056.83 473.424C1056.83 496.425 1038.19 515.07 1015.19 515.07C992.196 515.07 973.554 533.824 973.554 556.959C973.554 580.093 992.196 598.848 1015.19 598.848C1038.19 598.848 1056.83 580.093 1056.83 556.959C1056.83 533.824 1078.37 515.07 1101.37 515.07C1124.36 515.07 1143 496.425 1143 473.424C1143 450.423 1124.36 431.777 1101.37 431.777C1078.37 431.777 1059.73 413.023 1059.73 389.889C1059.73 366.754 1038.19 348 1015.19 348C992.196 348 973.554 366.754 973.554 389.889Z" fill="#212121"/>
<path d="M946.442 556.959C946.442 533.824 927.801 515.07 904.806 515.07C881.811 515.07 863.17 496.425 863.17 473.424C863.17 450.423 881.811 431.777 904.806 431.777C927.801 431.777 946.442 413.023 946.442 389.889C946.442 366.754 927.801 348 904.806 348C881.811 348 863.17 366.754 863.17 389.889C863.17 413.023 841.624 431.777 818.629 431.777C795.633 431.777 776.992 450.423 776.992 473.424C776.992 496.425 795.633 515.07 818.629 515.07C841.624 515.07 860.265 533.824 860.265 556.959C860.265 580.093 881.811 598.848 904.806 598.848C927.801 598.848 946.442 580.093 946.442 556.959Z" fill="#212121"/>
<path d="M851.687 671.627C852.005 671.796 852.183 672.049 852.22 672.385C852.276 672.722 852.192 673.031 851.968 673.312C851.799 673.555 851.584 673.686 851.322 673.705C851.06 673.724 850.798 673.668 850.536 673.537C849.918 673.162 849.254 672.872 848.542 672.666C847.831 672.442 847.083 672.329 846.296 672.329C845.192 672.329 844.182 672.526 843.264 672.919C842.347 673.293 841.552 673.827 840.878 674.519C840.204 675.212 839.68 676.035 839.306 676.99C838.932 677.944 838.744 679.002 838.744 680.162C838.744 681.397 838.941 682.502 839.334 683.475C839.727 684.448 840.26 685.281 840.934 685.974C841.627 686.647 842.422 687.162 843.321 687.518C844.238 687.873 845.23 688.051 846.296 688.051C847.064 688.051 847.803 687.948 848.514 687.742C849.226 687.536 849.899 687.237 850.536 686.844C850.798 686.713 851.06 686.666 851.322 686.704C851.584 686.741 851.808 686.872 851.996 687.097C852.22 687.396 852.304 687.714 852.248 688.051C852.192 688.369 852.014 688.603 851.715 688.753C851.247 689.034 850.714 689.296 850.115 689.539C849.516 689.764 848.889 689.941 848.234 690.073C847.597 690.204 846.952 690.269 846.296 690.269C844.949 690.269 843.676 690.035 842.478 689.567C841.28 689.099 840.223 688.425 839.306 687.546C838.389 686.666 837.659 685.609 837.116 684.373C836.592 683.119 836.33 681.716 836.33 680.162C836.33 678.702 836.583 677.364 837.088 676.147C837.593 674.931 838.295 673.873 839.194 672.975C840.111 672.077 841.168 671.375 842.366 670.869C843.583 670.364 844.893 670.111 846.296 670.111C847.27 670.111 848.215 670.242 849.132 670.504C850.068 670.766 850.919 671.141 851.687 671.627ZM869.557 687.77C869.875 687.77 870.147 687.883 870.371 688.107C870.596 688.313 870.708 688.575 870.708 688.893C870.708 689.212 870.596 689.474 870.371 689.679C870.147 689.885 869.875 689.988 869.557 689.988H859.843C859.525 689.988 859.254 689.876 859.029 689.651C858.823 689.427 858.72 689.155 858.72 688.837V671.459C858.72 671.141 858.833 670.879 859.057 670.673C859.282 670.448 859.563 670.336 859.9 670.336C860.218 670.336 860.489 670.448 860.714 670.673C860.938 670.879 861.051 671.141 861.051 671.459V688.276L860.489 687.77H869.557ZM894.466 680.162C894.466 681.603 894.232 682.942 893.764 684.177C893.296 685.393 892.641 686.46 891.799 687.377C890.956 688.294 889.955 689.006 888.795 689.511C887.634 690.016 886.371 690.269 885.005 690.269C883.62 690.269 882.347 690.016 881.187 689.511C880.045 689.006 879.053 688.294 878.211 687.377C877.368 686.46 876.713 685.393 876.245 684.177C875.777 682.942 875.543 681.603 875.543 680.162C875.543 678.702 875.777 677.364 876.245 676.147C876.713 674.912 877.368 673.845 878.211 672.947C879.053 672.03 880.045 671.319 881.187 670.813C882.347 670.308 883.62 670.055 885.005 670.055C886.371 670.055 887.634 670.308 888.795 670.813C889.955 671.319 890.956 672.03 891.799 672.947C892.641 673.845 893.296 674.912 893.764 676.147C894.232 677.364 894.466 678.702 894.466 680.162ZM892.051 680.162C892.051 678.627 891.743 677.27 891.125 676.091C890.526 674.912 889.702 673.986 888.654 673.312C887.606 672.638 886.39 672.301 885.005 672.301C883.62 672.301 882.394 672.638 881.327 673.312C880.279 673.986 879.455 674.912 878.856 676.091C878.257 677.27 877.958 678.627 877.958 680.162C877.958 681.678 878.257 683.035 878.856 684.233C879.455 685.412 880.279 686.339 881.327 687.012C882.394 687.686 883.62 688.023 885.005 688.023C886.39 688.023 887.606 687.686 888.654 687.012C889.702 686.339 890.526 685.412 891.125 684.233C891.743 683.035 892.051 681.678 892.051 680.162ZM915.204 670.308C915.522 670.308 915.784 670.42 915.99 670.645C916.196 670.869 916.299 671.141 916.299 671.459V682.605C916.299 684.046 915.962 685.337 915.288 686.479C914.633 687.621 913.744 688.528 912.621 689.202C911.498 689.857 910.225 690.185 908.803 690.185C907.362 690.185 906.07 689.857 904.928 689.202C903.805 688.528 902.916 687.621 902.261 686.479C901.606 685.337 901.279 684.046 901.279 682.605V671.459C901.279 671.141 901.382 670.869 901.588 670.645C901.812 670.42 902.102 670.308 902.458 670.308C902.757 670.308 903.019 670.42 903.244 670.645C903.487 670.869 903.609 671.141 903.609 671.459V682.605C903.609 683.634 903.843 684.551 904.311 685.356C904.779 686.161 905.406 686.797 906.192 687.265C906.997 687.714 907.867 687.939 908.803 687.939C909.757 687.939 910.637 687.714 911.442 687.265C912.247 686.797 912.892 686.161 913.379 685.356C913.884 684.551 914.137 683.634 914.137 682.605V671.459C914.137 671.141 914.231 670.869 914.418 670.645C914.605 670.42 914.867 670.308 915.204 670.308ZM932.441 670.336C933.807 670.336 935.005 670.598 936.034 671.122C937.082 671.627 937.953 672.339 938.645 673.256C939.338 674.173 939.852 675.23 940.189 676.428C940.545 677.607 940.723 678.852 940.723 680.162C940.723 681.959 940.414 683.606 939.796 685.103C939.178 686.582 938.261 687.77 937.045 688.669C935.828 689.548 934.293 689.988 932.441 689.988H925.422C925.104 689.988 924.832 689.876 924.608 689.651C924.402 689.427 924.299 689.155 924.299 688.837V671.459C924.299 671.141 924.402 670.879 924.608 670.673C924.832 670.448 925.104 670.336 925.422 670.336H932.441ZM932.16 687.798C933.601 687.798 934.771 687.452 935.669 686.76C936.586 686.067 937.251 685.141 937.662 683.98C938.093 682.82 938.308 681.547 938.308 680.162C938.308 679.151 938.186 678.188 937.943 677.27C937.719 676.335 937.354 675.511 936.848 674.8C936.362 674.089 935.725 673.527 934.939 673.115C934.172 672.704 933.245 672.498 932.16 672.498H926.404L926.629 672.273V688.079L926.461 687.798H932.16ZM963.58 690.269C962.251 690.269 961.072 689.97 960.043 689.371C959.013 688.753 958.199 687.967 957.6 687.012C957.02 686.039 956.73 685.019 956.73 683.952C956.73 683.091 956.889 682.277 957.207 681.51C957.544 680.742 958.04 680.059 958.695 679.46C959.369 678.843 960.22 678.347 961.25 677.972L962.794 679.545C961.39 679.844 960.408 680.368 959.846 681.117C959.303 681.847 959.032 682.68 959.032 683.615C959.032 684.364 959.21 685.085 959.565 685.777C959.921 686.47 960.464 687.031 961.194 687.462C961.942 687.892 962.869 688.107 963.973 688.107C965.077 688.107 966.041 687.911 966.865 687.518C967.688 687.125 968.381 686.591 968.942 685.917C969.504 685.244 969.962 684.495 970.318 683.671C970.673 682.848 970.917 682.015 971.048 681.173C971.085 680.948 971.179 680.77 971.329 680.639C971.478 680.508 971.712 680.443 972.03 680.443C972.349 680.443 972.601 680.574 972.788 680.836C972.994 681.098 973.069 681.407 973.013 681.762C972.863 682.811 972.554 683.84 972.087 684.851C971.619 685.861 971.001 686.778 970.234 687.602C969.466 688.407 968.53 689.052 967.426 689.539C966.322 690.026 965.04 690.269 963.58 690.269ZM973.575 689.96C973.425 689.96 973.294 689.941 973.181 689.904C973.088 689.848 973.004 689.801 972.929 689.764C971.712 688.772 970.561 687.836 969.476 686.956C968.409 686.077 967.37 685.169 966.359 684.233C965.349 683.278 964.329 682.212 963.299 681.032C962.644 680.284 962.045 679.573 961.502 678.899C960.978 678.225 960.557 677.561 960.239 676.905C959.921 676.25 959.762 675.577 959.762 674.884C959.762 673.986 959.986 673.172 960.436 672.442C960.885 671.712 961.521 671.131 962.345 670.701C963.187 670.271 964.179 670.055 965.321 670.055C966.649 670.055 967.782 670.299 968.718 670.785C969.653 671.253 970.299 671.843 970.655 672.554C970.673 672.573 970.702 672.657 970.739 672.807C970.795 672.938 970.823 673.087 970.823 673.256C970.823 673.48 970.73 673.696 970.542 673.901C970.374 674.089 970.131 674.182 969.813 674.182C969.625 674.182 969.466 674.145 969.335 674.07C969.204 673.976 969.101 673.883 969.026 673.789C968.652 673.246 968.175 672.816 967.595 672.498C967.014 672.18 966.256 672.02 965.321 672.02C964.272 672.02 963.477 672.283 962.934 672.807C962.391 673.331 962.12 674.004 962.12 674.828C962.12 675.389 962.289 675.988 962.625 676.625C962.981 677.242 963.411 677.86 963.917 678.478C964.441 679.077 964.946 679.647 965.433 680.19C966.125 680.958 966.865 681.725 967.651 682.492C968.437 683.241 969.223 683.962 970.009 684.654C970.795 685.328 971.534 685.955 972.227 686.535C972.938 687.097 973.546 687.574 974.052 687.967C974.22 688.117 974.342 688.266 974.417 688.416C974.492 688.566 974.529 688.744 974.529 688.95C974.529 689.137 974.445 689.352 974.276 689.595C974.127 689.839 973.893 689.96 973.575 689.96ZM1005.77 671.627C1006.09 671.796 1006.27 672.049 1006.31 672.385C1006.36 672.722 1006.28 673.031 1006.05 673.312C1005.88 673.555 1005.67 673.686 1005.41 673.705C1005.14 673.724 1004.88 673.668 1004.62 673.537C1004 673.162 1003.34 672.872 1002.63 672.666C1001.92 672.442 1001.17 672.329 1000.38 672.329C999.277 672.329 998.267 672.526 997.349 672.919C996.432 673.293 995.637 673.827 994.963 674.519C994.289 675.212 993.765 676.035 993.391 676.99C993.017 677.944 992.829 679.002 992.829 680.162C992.829 681.397 993.026 682.502 993.419 683.475C993.812 684.448 994.345 685.281 995.019 685.974C995.712 686.647 996.507 687.162 997.406 687.518C998.323 687.873 999.315 688.051 1000.38 688.051C1001.15 688.051 1001.89 687.948 1002.6 687.742C1003.31 687.536 1003.98 687.237 1004.62 686.844C1004.88 686.713 1005.14 686.666 1005.41 686.704C1005.67 686.741 1005.89 686.872 1006.08 687.097C1006.31 687.396 1006.39 687.714 1006.33 688.051C1006.28 688.369 1006.1 688.603 1005.8 688.753C1005.33 689.034 1004.8 689.296 1004.2 689.539C1003.6 689.764 1002.97 689.941 1002.32 690.073C1001.68 690.204 1001.04 690.269 1000.38 690.269C999.034 690.269 997.761 690.035 996.563 689.567C995.365 689.099 994.308 688.425 993.391 687.546C992.474 686.666 991.744 685.609 991.201 684.373C990.677 683.119 990.415 681.716 990.415 680.162C990.415 678.702 990.668 677.364 991.173 676.147C991.678 674.931 992.38 673.873 993.279 672.975C994.196 672.077 995.253 671.375 996.451 670.869C997.668 670.364 998.978 670.111 1000.38 670.111C1001.35 670.111 1002.3 670.242 1003.22 670.504C1004.15 670.766 1005 671.141 1005.77 671.627ZM1030.52 680.162C1030.52 681.603 1030.29 682.942 1029.82 684.177C1029.35 685.393 1028.7 686.46 1027.85 687.377C1027.01 688.294 1026.01 689.006 1024.85 689.511C1023.69 690.016 1022.43 690.269 1021.06 690.269C1019.67 690.269 1018.4 690.016 1017.24 689.511C1016.1 689.006 1015.11 688.294 1014.27 687.377C1013.42 686.46 1012.77 685.393 1012.3 684.177C1011.83 682.942 1011.6 681.603 1011.6 680.162C1011.6 678.702 1011.83 677.364 1012.3 676.147C1012.77 674.912 1013.42 673.845 1014.27 672.947C1015.11 672.03 1016.1 671.319 1017.24 670.813C1018.4 670.308 1019.67 670.055 1021.06 670.055C1022.43 670.055 1023.69 670.308 1024.85 670.813C1026.01 671.319 1027.01 672.03 1027.85 672.947C1028.7 673.845 1029.35 674.912 1029.82 676.147C1030.29 677.364 1030.52 678.702 1030.52 680.162ZM1028.11 680.162C1028.11 678.627 1027.8 677.27 1027.18 676.091C1026.58 674.912 1025.76 673.986 1024.71 673.312C1023.66 672.638 1022.44 672.301 1021.06 672.301C1019.67 672.301 1018.45 672.638 1017.38 673.312C1016.33 673.986 1015.51 674.912 1014.91 676.091C1014.31 677.27 1014.01 678.627 1014.01 680.162C1014.01 681.678 1014.31 683.035 1014.91 684.233C1015.51 685.412 1016.33 686.339 1017.38 687.012C1018.45 687.686 1019.67 688.023 1021.06 688.023C1022.44 688.023 1023.66 687.686 1024.71 687.012C1025.76 686.339 1026.58 685.412 1027.18 684.233C1027.8 683.035 1028.11 681.678 1028.11 680.162ZM1045.48 670.336C1046.84 670.336 1048.04 670.598 1049.07 671.122C1050.12 671.627 1050.99 672.339 1051.68 673.256C1052.37 674.173 1052.89 675.23 1053.22 676.428C1053.58 677.607 1053.76 678.852 1053.76 680.162C1053.76 681.959 1053.45 683.606 1052.83 685.103C1052.21 686.582 1051.3 687.77 1050.08 688.669C1048.86 689.548 1047.33 689.988 1045.48 689.988H1038.46C1038.14 689.988 1037.87 689.876 1037.64 689.651C1037.44 689.427 1037.33 689.155 1037.33 688.837V671.459C1037.33 671.141 1037.44 670.879 1037.64 670.673C1037.87 670.448 1038.14 670.336 1038.46 670.336H1045.48ZM1045.19 687.798C1046.64 687.798 1047.81 687.452 1048.7 686.76C1049.62 686.067 1050.29 685.141 1050.7 683.98C1051.13 682.82 1051.34 681.547 1051.34 680.162C1051.34 679.151 1051.22 678.188 1050.98 677.27C1050.75 676.335 1050.39 675.511 1049.88 674.8C1049.4 674.089 1048.76 673.527 1047.97 673.115C1047.21 672.704 1046.28 672.498 1045.19 672.498H1039.44L1039.66 672.273V688.079L1039.5 687.798H1045.19ZM1061.7 670.336H1071.69C1072.01 670.336 1072.28 670.439 1072.5 670.645C1072.73 670.851 1072.84 671.113 1072.84 671.431C1072.84 671.749 1072.73 672.011 1072.5 672.217C1072.28 672.404 1072.01 672.498 1071.69 672.498H1062.65L1062.9 672.02V679.123L1062.62 678.815H1070.43C1070.75 678.815 1071.02 678.918 1071.24 679.123C1071.47 679.329 1071.58 679.591 1071.58 679.909C1071.58 680.228 1071.47 680.49 1071.24 680.696C1071.02 680.883 1070.75 680.976 1070.43 680.976H1062.71L1062.9 680.724V687.995L1062.73 687.798H1071.69C1072.01 687.798 1072.28 687.911 1072.5 688.135C1072.73 688.36 1072.84 688.613 1072.84 688.893C1072.84 689.212 1072.73 689.474 1072.5 689.679C1072.28 689.885 1072.01 689.988 1071.69 689.988H1061.7C1061.38 689.988 1061.11 689.876 1060.88 689.651C1060.68 689.427 1060.57 689.155 1060.57 688.837V671.459C1060.57 671.141 1060.68 670.879 1060.88 670.673C1061.11 670.448 1061.38 670.336 1061.7 670.336ZM895.269 708.256L888.672 724.314C888.597 724.539 888.466 724.717 888.279 724.848C888.091 724.979 887.895 725.044 887.689 725.044C887.333 725.044 887.071 724.951 886.903 724.764C886.735 724.577 886.65 724.352 886.65 724.09C886.632 723.959 886.65 723.819 886.706 723.669L893.978 705.982C894.071 705.72 894.212 705.533 894.399 705.42C894.605 705.289 894.829 705.233 895.073 705.252C895.316 705.252 895.531 705.317 895.718 705.448C895.924 705.579 896.065 705.757 896.14 705.982L903.383 723.5C903.439 723.65 903.467 723.8 903.467 723.95C903.467 724.286 903.355 724.558 903.13 724.764C902.906 724.951 902.653 725.044 902.372 725.044C902.148 725.044 901.942 724.979 901.754 724.848C901.567 724.717 901.427 724.53 901.333 724.286L894.652 708.228L895.269 708.256ZM890.075 719.738L891.03 717.548H899.368L899.789 719.738H890.075ZM923.644 706.627C923.962 706.796 924.14 707.049 924.177 707.385C924.233 707.722 924.149 708.031 923.924 708.312C923.756 708.555 923.541 708.686 923.279 708.705C923.017 708.724 922.754 708.668 922.492 708.537C921.875 708.162 921.21 707.872 920.499 707.666C919.788 707.442 919.039 707.329 918.253 707.329C917.149 707.329 916.138 707.526 915.221 707.919C914.304 708.293 913.509 708.827 912.835 709.519C912.161 710.212 911.637 711.035 911.263 711.99C910.888 712.944 910.701 714.002 910.701 715.162C910.701 716.397 910.898 717.502 911.291 718.475C911.684 719.448 912.217 720.281 912.891 720.974C913.583 721.647 914.379 722.162 915.277 722.518C916.194 722.873 917.186 723.051 918.253 723.051C919.021 723.051 919.76 722.948 920.471 722.742C921.182 722.536 921.856 722.237 922.492 721.844C922.754 721.713 923.017 721.666 923.279 721.704C923.541 721.741 923.765 721.872 923.952 722.097C924.177 722.396 924.261 722.714 924.205 723.051C924.149 723.369 923.971 723.603 923.672 723.753C923.204 724.034 922.67 724.296 922.071 724.539C921.472 724.764 920.845 724.941 920.19 725.073C919.554 725.204 918.908 725.269 918.253 725.269C916.906 725.269 915.633 725.035 914.435 724.567C913.237 724.099 912.18 723.425 911.263 722.546C910.345 721.666 909.616 720.609 909.073 719.373C908.549 718.119 908.287 716.716 908.287 715.162C908.287 713.702 908.539 712.364 909.045 711.147C909.55 709.931 910.252 708.873 911.15 707.975C912.067 707.077 913.125 706.375 914.323 705.869C915.539 705.364 916.849 705.111 918.253 705.111C919.226 705.111 920.172 705.242 921.089 705.504C922.025 705.766 922.876 706.141 923.644 706.627ZM937.471 708.256L930.874 724.314C930.799 724.539 930.668 724.717 930.481 724.848C930.293 724.979 930.097 725.044 929.891 725.044C929.535 725.044 929.273 724.951 929.105 724.764C928.936 724.577 928.852 724.352 928.852 724.09C928.834 723.959 928.852 723.819 928.908 723.669L936.18 705.982C936.273 705.72 936.414 705.533 936.601 705.42C936.807 705.289 937.031 705.233 937.275 705.252C937.518 705.252 937.733 705.317 937.92 705.448C938.126 705.579 938.267 705.757 938.341 705.982L945.585 723.5C945.641 723.65 945.669 723.8 945.669 723.95C945.669 724.286 945.557 724.558 945.332 724.764C945.107 724.951 944.855 725.044 944.574 725.044C944.349 725.044 944.144 724.979 943.956 724.848C943.769 724.717 943.629 724.53 943.535 724.286L936.854 708.228L937.471 708.256ZM932.277 719.738L933.232 717.548H941.57L941.991 719.738H932.277ZM959.975 705.336C961.341 705.336 962.539 705.598 963.568 706.122C964.616 706.627 965.487 707.339 966.179 708.256C966.872 709.173 967.386 710.23 967.723 711.428C968.079 712.607 968.257 713.852 968.257 715.162C968.257 716.959 967.948 718.606 967.33 720.103C966.712 721.582 965.795 722.77 964.579 723.669C963.362 724.548 961.827 724.988 959.975 724.988H952.956C952.638 724.988 952.366 724.876 952.142 724.651C951.936 724.427 951.833 724.155 951.833 723.837V706.459C951.833 706.141 951.936 705.879 952.142 705.673C952.366 705.448 952.638 705.336 952.956 705.336H959.975ZM959.694 722.798C961.135 722.798 962.305 722.452 963.203 721.76C964.12 721.067 964.785 720.141 965.196 718.98C965.627 717.82 965.842 716.547 965.842 715.162C965.842 714.151 965.721 713.188 965.477 712.27C965.253 711.335 964.888 710.511 964.382 709.8C963.896 709.089 963.259 708.527 962.473 708.115C961.706 707.704 960.779 707.498 959.694 707.498H953.939L954.163 707.273V723.079L953.995 722.798H959.694ZM976.195 705.336H986.19C986.508 705.336 986.78 705.439 987.004 705.645C987.229 705.851 987.341 706.113 987.341 706.431C987.341 706.749 987.229 707.011 987.004 707.217C986.78 707.404 986.508 707.498 986.19 707.498H977.15L977.403 707.02V714.123L977.122 713.815H984.927C985.245 713.815 985.516 713.918 985.741 714.123C985.965 714.329 986.078 714.591 986.078 714.909C986.078 715.228 985.965 715.49 985.741 715.696C985.516 715.883 985.245 715.976 984.927 715.976H977.206L977.403 715.724V722.995L977.234 722.798H986.19C986.508 722.798 986.78 722.911 987.004 723.135C987.229 723.36 987.341 723.613 987.341 723.893C987.341 724.212 987.229 724.474 987.004 724.679C986.78 724.885 986.508 724.988 986.19 724.988H976.195C975.877 724.988 975.606 724.876 975.381 724.651C975.175 724.427 975.072 724.155 975.072 723.837V706.459C975.072 706.141 975.175 705.879 975.381 705.673C975.606 705.448 975.877 705.336 976.195 705.336ZM995.323 705.308C995.491 705.308 995.669 705.355 995.856 705.448C996.062 705.542 996.221 705.664 996.334 705.813L1003.77 717.071L1002.79 717.043L1010.31 705.813C1010.56 705.458 1010.88 705.289 1011.27 705.308C1011.57 705.327 1011.83 705.439 1012.06 705.645C1012.28 705.851 1012.39 706.122 1012.39 706.459V723.837C1012.39 724.155 1012.28 724.427 1012.06 724.651C1011.83 724.876 1011.55 724.988 1011.21 724.988C1010.88 724.988 1010.6 724.876 1010.37 724.651C1010.15 724.427 1010.03 724.155 1010.03 723.837V708.593L1010.74 708.733L1004.11 718.812C1004 718.943 1003.86 719.055 1003.69 719.149C1003.54 719.242 1003.38 719.289 1003.21 719.289C1003.04 719.289 1002.88 719.242 1002.71 719.149C1002.54 719.055 1002.4 718.943 1002.29 718.812L995.744 708.733L996.334 708.003V723.837C996.334 724.155 996.231 724.427 996.025 724.651C995.819 724.876 995.557 724.988 995.239 724.988C994.921 724.988 994.659 724.876 994.453 724.651C994.266 724.427 994.172 724.155 994.172 723.837V706.459C994.172 706.16 994.275 705.898 994.481 705.673C994.705 705.43 994.986 705.308 995.323 705.308ZM1032.36 705.224C1032.68 705.224 1032.94 705.345 1033.15 705.589C1033.37 705.813 1033.48 706.075 1033.48 706.375C1033.48 706.487 1033.46 706.609 1033.43 706.74C1033.41 706.852 1033.36 706.964 1033.29 707.077L1026.77 716.145L1027.14 714.769V723.837C1027.14 724.155 1027.03 724.427 1026.8 724.651C1026.59 724.876 1026.34 724.988 1026.04 724.988C1025.71 724.988 1025.43 724.876 1025.2 724.651C1024.99 724.427 1024.89 724.155 1024.89 723.837V714.994L1025.09 715.724L1018.77 707.189C1018.66 707.039 1018.57 706.899 1018.52 706.768C1018.48 706.618 1018.46 706.478 1018.46 706.347C1018.46 706.029 1018.59 705.766 1018.86 705.561C1019.12 705.336 1019.38 705.224 1019.64 705.224C1020.02 705.224 1020.32 705.402 1020.57 705.757L1026.38 713.73L1025.85 713.646L1031.43 705.785C1031.68 705.411 1031.99 705.224 1032.36 705.224Z" fill="#212121"/>
<path d="M1402 -1.17375C1402 140.115 1515.86 254.652 1656.31 254.652C1796.77 254.652 1910.63 368.528 1910.63 509C1910.63 649.472 1796.77 763.348 1656.31 763.348C1515.86 763.348 1402 877.885 1402 1019.17C1402 1160.46 1515.86 1275 1656.31 1275C1796.77 1275 1910.63 1160.46 1910.63 1019.17C1910.63 877.885 2042.23 763.348 2182.69 763.348C2323.14 763.348 2437 649.472 2437 509C2437 368.528 2323.14 254.652 2182.69 254.652C2042.23 254.652 1928.37 140.115 1928.37 -1.17375C1928.37 -142.463 1796.77 -257 1656.31 -257C1515.86 -257 1402 -142.463 1402 -1.17375Z" fill="#D8DFE9"/>
<path d="M517 998.174C517 856.885 403.14 742.348 262.686 742.348C122.232 742.348 8.3714 628.472 8.3714 488C8.3714 347.528 122.232 233.652 262.686 233.652C403.14 233.652 517 119.115 517 -22.1738C517 -163.463 403.14 -278 262.686 -278C122.232 -278 8.3714 -163.463 8.3714 -22.1738C8.3714 119.115 -123.232 233.652 -263.686 233.652C-404.14 233.652 -518 347.528 -518 488C-518 628.472 -404.14 742.348 -263.686 742.348C-123.232 742.348 -9.37146 856.885 -9.37146 998.174C-9.37146 1139.46 122.232 1254 262.686 1254C403.14 1254 517 1139.46 517 998.174Z" fill="#D8DFE9"/>
</g>
<defs>
<clipPath id="clip0_2489_142">
<rect width="1920" height="1080" fill="white"/>
</clipPath>
</defs>
</svg>
