<svg width="808" height="780" viewBox="0 0 808 780" fill="none" xmlns="http://www.w3.org/2000/svg">
<path d="M638 390.5C638 513.978 533.755 615 404 615C274.245 615 170 513.978 170 390.5C170 267.022 274.245 166 404 166C533.755 166 638 267.022 638 390.5Z" fill="#FFEABB" stroke="#FF7D10" stroke-width="28"/>
<path d="M615 390.5C615 502.332 520.207 594 402 594C283.793 594 189 502.332 189 390.5C189 278.668 283.793 187 402 187C520.207 187 615 278.668 615 390.5Z" stroke="#FFA33D" stroke-width="28"/>
<path d="M424 352C430.5 354 436.5 355.75 442.5 358C455.25 362.5 464.5 371 471 382.5C473.75 387.5 476 392.75 477.25 398.25C480 409 475.75 418.75 471 428.25C465.25 440 457.5 450.25 446.5 457.25C432 466.25 416.75 473.75 399.75 476.25C385.5 478.25 371.5 478.5 357.5 475.25C341.5 471.25 329.25 462.75 320.5 448C314.25 437 310.5 425.25 308.5 413C306 396.75 306 380.25 307.25 364C307.75 357 307.5 350 308.5 343.25C309.5 333.5 311.5 323.75 312.75 314C313.5 309.75 313.5 305.75 313.5 301.5C313.5 294.75 317 290 322 286.5C330.25 280.25 340 277 350.25 276C362.75 275 375.5 274.25 388.25 274.5C405 274.75 420.25 279.25 432.25 291.5C438 297.25 442 303.75 442 311.75C442 323.75 437.5 334.25 430.75 344C428.75 346.75 426.5 349 424 352ZM388.5 379.5C379.5 379.5 372 384.25 368.5 392.5C365.75 399.25 369.25 405.75 376.25 406.75C383.75 407.5 391.25 405.5 397.75 401.5C399.75 400.25 401.5 396.75 402 394C403.25 385 398 379.75 388.5 379.5ZM372.75 317.5C365.75 317.5 361.25 321 360.75 326C360.5 327 360.75 328.5 361.25 329C366.75 335 375.75 333.75 379.75 327C381.75 323.5 380.5 319.75 377 318.25C375.25 317.75 373.5 317.5 372.75 317.5ZM540.18 418.25C548.18 430.5 543.43 443.5 536.43 452.75C530.68 460.25 523.43 466 513.43 467.5C511.18 467.75 509.18 467.5 507.18 467.5C495.93 468.75 479.43 460 476.43 447.75C473.43 436.25 476.43 426.75 483.68 418C490.18 410.5 497.68 404.75 507.68 404C517.93 403 533.18 407.5 540.18 418.25Z" fill="#F86AA6"/>
<path d="M444 352C450.5 354 456.5 355.75 462.5 358C475.25 362.5 484.5 371 491 382.5C493.75 387.5 496 392.75 497.25 398.25C500 409 495.75 418.75 491 428.25C485.25 440 477.5 450.25 466.5 457.25C452 466.25 436.75 473.75 419.75 476.25C405.5 478.25 391.5 478.5 377.5 475.25C361.5 471.25 349.25 462.75 340.5 448C334.25 437 330.5 425.25 328.5 413C326 396.75 326 380.25 327.25 364C327.75 357 327.5 350 328.5 343.25C329.5 333.5 331.5 323.75 332.75 314C333.5 309.75 333.5 305.75 333.5 301.5C333.5 294.75 337 290 342 286.5C350.25 280.25 360 277 370.25 276C382.75 275 395.5 274.25 408.25 274.5C425 274.75 440.25 279.25 452.25 291.5C458 297.25 462 303.75 462 311.75C462 323.75 457.5 334.25 450.75 344C448.75 346.75 446.5 349 444 352ZM408.5 379.5C399.5 379.5 392 384.25 388.5 392.5C385.75 399.25 389.25 405.75 396.25 406.75C403.75 407.5 411.25 405.5 417.75 401.5C419.75 400.25 421.5 396.75 422 394C423.25 385 418 379.75 408.5 379.5ZM392.75 317.5C385.75 317.5 381.25 321 380.75 326C380.5 327 380.75 328.5 381.25 329C386.75 335 395.75 333.75 399.75 327C401.75 323.5 400.5 319.75 397 318.25C395.25 317.75 393.5 317.5 392.75 317.5ZM560.18 418.25C568.18 430.5 563.43 443.5 556.43 452.75C550.68 460.25 543.43 466 533.43 467.5C531.18 467.75 529.18 467.5 527.18 467.5C515.93 468.75 499.43 460 496.43 447.75C493.43 436.25 496.43 426.75 503.68 418C510.18 410.5 517.68 404.75 527.68 404C537.93 403 553.18 407.5 560.18 418.25Z" fill="#F74360"/>
</svg>
