<svg width="775" height="961" viewBox="0 0 775 961" fill="none" xmlns="http://www.w3.org/2000/svg">
<path d="M697.5 483C697.5 645.583 559.34 778.5 387.5 778.5C215.66 778.5 77.5 645.583 77.5 483C77.5 320.417 215.66 187.5 387.5 187.5C559.34 187.5 697.5 320.417 697.5 483Z" fill="#577C8E" stroke="#C7D9E5" stroke-width="29"/>
<path d="M234.336 588.57H268.711V342.477H234.336V327.242H431.797C448.724 327.242 464.479 328.284 479.062 330.367C493.646 332.32 506.341 335.901 517.148 341.109C527.956 346.188 536.419 353.154 542.539 362.008C548.789 370.732 551.914 381.799 551.914 395.211C551.914 406.148 549.701 415.589 545.273 423.531C540.977 431.344 534.206 437.854 524.961 443.062C515.716 448.141 503.737 451.982 489.023 454.586C474.44 457.19 456.927 458.557 436.484 458.688C447.552 458.818 458.555 459.208 469.492 459.859C480.43 460.38 490.846 461.487 500.742 463.18C510.638 464.872 519.818 467.346 528.281 470.602C536.745 473.727 544.102 477.893 550.352 483.102C556.602 488.18 561.484 494.495 565 502.047C568.516 509.599 570.273 518.583 570.273 529C570.273 543.844 567.474 556.148 561.875 565.914C556.276 575.549 548.203 583.232 537.656 588.961C527.109 594.56 514.154 598.466 498.789 600.68C483.555 602.893 466.172 604 446.641 604H234.336V588.57ZM403.281 452.633C409.141 452.633 414.609 451.917 419.688 450.484C424.766 449.052 429.193 446.318 432.969 442.281C436.745 438.115 439.674 432.385 441.758 425.094C443.971 417.672 445.078 408.102 445.078 396.383C445.078 384.664 443.971 375.224 441.758 368.062C439.674 360.901 436.745 355.367 432.969 351.461C429.193 347.424 424.766 344.755 419.688 343.453C414.609 342.021 409.141 341.305 403.281 341.305V452.633ZM403.281 588.57C410.443 588.57 416.628 587.984 421.836 586.812C427.044 585.51 431.341 582.971 434.727 579.195C438.242 575.419 440.846 570.016 442.539 562.984C444.232 555.823 445.078 546.383 445.078 534.664C445.078 511.227 441.628 494.169 434.727 483.492C427.956 472.685 417.474 467.281 403.281 467.281V588.57Z" fill="#C7D9E5"/>
</svg>
