<svg width="2679" height="1697" viewBox="0 0 2679 1697" fill="none" xmlns="http://www.w3.org/2000/svg">
<g clip-path="url(#clip0_1298_2892)">
<rect width="2679" height="1697" fill="#FFEABB"/>
<path d="M1016.75 774C1019.5 784.75 1015 794.75 1010.5 804C1004.75 815.75 997 826 985.75 833C971.25 842 956.25 849.5 939 852C925 854 911 854.25 897 851C881 847 868.5 838.5 860 823.75C853.5 812.75 850 801 848 788.75C845.25 772.5 845.5 756 846.75 739.75C847 732.75 847 725.75 847.75 719C849 709.25 851 699.5 852.25 689.75C852.75 685.5 853 681.5 853 677.25C852.75 670.5 856.5 665.75 861.25 662.25C869.75 656 879.5 652.75 889.75 651.75C902.25 650.75 915 650 927.75 650.25C944.25 650.5 959.75 655 971.75 667.25C977.25 673 981.5 679.5 981.5 687.5C981.5 699.5 976.75 710 970 719.75C968.25 722.5 965.75 724.75 963.5 727.75C969.75 729.75 976 731.5 982 733.75C994.75 738.25 1004 746.75 1010.5 758.25C1013.25 763.25 1015.5 768.5 1016.75 774ZM900.25 701.75C900 702.75 900.25 704.25 900.75 705C906 710.75 915.25 709.5 919.25 702.75C921.25 699.25 920 695.5 916.25 694.25C914.75 693.5 912.75 693.25 912.25 693.25C905.25 693.25 900.75 696.75 900.25 701.75ZM941.25 769.75C942.5 760.75 937.25 755.5 927.75 755.25C918.75 755.25 911.25 760 907.75 768.25C905 775 908.5 781.5 915.5 782.5C923.25 783.25 930.5 781.25 937 777.25C939.25 776 941 772.5 941.25 769.75ZM1126.72 768.25C1132.97 776.75 1141.47 777.5 1149.97 777.5C1158.72 777.75 1167.22 779 1174.47 784.25C1180.47 788.75 1187.22 793.25 1188.22 801.25C1190.22 814.25 1188.72 826.75 1179.72 837.5C1168.22 851.75 1152.72 853.5 1136.47 850C1116.47 845.75 1101.47 834.5 1093.97 814.75C1093.97 814.25 1093.47 813.75 1093.47 814C1093.22 820.25 1093.47 827.25 1092.47 834C1091.22 844.75 1081.72 853 1070.97 854.75C1062.97 855.75 1055.22 855 1047.97 852.25C1034.22 847 1027.22 833.5 1028.22 818.75C1028.97 808.25 1029.72 798 1031.72 787.75C1035.22 769.5 1035.97 751.25 1035.72 733C1035.47 722.5 1035.22 712.25 1034.47 702C1033.97 694.5 1032.47 687 1031.22 679.5C1031.22 678.75 1030.97 677.75 1031.22 677.25C1034.47 673 1037.22 668.25 1040.97 664.75C1045.22 661 1050.97 661.25 1056.22 662.75C1066.72 665.75 1076.22 663.75 1085.97 659C1090.97 656.5 1096.97 656 1102.47 654.75C1113.22 652.25 1123.72 654.25 1134.22 657C1149.72 661.25 1162.22 669.25 1169.72 684C1177.22 699 1176.72 714 1169.22 728.5C1162.72 741.75 1153.22 752.75 1140.22 760C1135.72 762.75 1131.22 765.5 1126.72 768.25ZM1115.72 692.75C1112.22 688 1106.97 687.25 1102.72 687C1093.22 687 1087.47 691.75 1085.47 700.75C1084.97 702.5 1085.47 706 1086.47 706.5C1088.22 707.5 1091.22 707 1092.97 706C1095.97 704.25 1098.72 703.75 1101.97 705C1103.72 705.5 1105.47 706.25 1107.22 706.5C1110.97 707.5 1114.47 707.25 1116.72 703.5C1118.72 699.75 1117.97 696.25 1115.72 692.75ZM1200.89 805.75C1201.14 791.5 1204.89 777.75 1208.64 764C1211.64 752.5 1214.89 740.75 1213.89 728.5C1213.39 722.5 1212.14 716.5 1211.39 710.75C1209.89 699.25 1211.39 688.75 1216.39 678.25C1219.64 671 1224.39 665.25 1230.39 660.25C1235.39 656.25 1241.64 655.25 1247.64 654.5C1252.64 654 1257.89 653.75 1262.89 653.75C1273.39 653.25 1279.89 662.5 1278.89 672.5C1277.64 683 1276.14 693.75 1275.89 704.25C1275.64 718 1279.64 731.25 1283.64 744.25C1289.14 761.75 1292.14 779.5 1292.39 797.5C1292.89 815 1284.14 834.5 1263.89 843C1247.14 850.25 1230.89 848 1215.64 839.5C1208.89 835.75 1204.64 829.5 1203.14 822C1201.89 816.75 1201.64 811.25 1200.89 805.75ZM1382.8 688C1384.3 703.25 1377.8 716 1368.3 727C1358.8 738.75 1355.3 752 1357.05 766.75C1357.55 770.75 1360.55 774.25 1365.8 774.25C1369.8 774.25 1374.3 773.5 1378.05 772C1387.8 768 1397.55 764.75 1408.05 764.5C1421.3 764.5 1434.55 767 1445.3 775.5C1452.3 781 1455.05 788.5 1454.8 797C1454.55 802.25 1453.3 807.5 1452.55 813C1451.55 821 1448.05 827.75 1443.55 834.75C1438.05 844 1430.55 850 1421.05 853.5C1409.3 857.75 1397.3 859 1384.8 857.5C1373.8 856.25 1363.05 854 1353.3 848.75C1334.05 838.25 1319.8 823.25 1314.8 801.25C1313.55 796 1313.05 790.5 1312.55 785C1311.8 775 1310.8 765 1311.3 755.25C1311.55 744.25 1313.3 733.25 1315.05 722.5C1316.8 711.5 1319.05 700.75 1321.8 690C1324.05 681 1327.3 672.5 1334.3 666.25C1345.8 655.75 1360.05 654.25 1373.05 663.25C1379.55 667.75 1382.3 674.5 1382.8 682C1383.05 684 1382.8 686 1382.8 688ZM1466.81 791.25C1468.81 779 1470.31 767.5 1472.31 756.5C1474.56 743.5 1478.06 731 1480.06 718.25C1481.81 705.5 1483.31 692.5 1479.06 680.25C1475.81 670.25 1477.31 661.5 1481.81 653C1486.31 644.5 1494.31 639.5 1503.56 638.5C1517.06 637.25 1528.31 641.5 1536.56 652.75C1541.31 659 1540.31 666 1539.06 672.75C1537.81 680.75 1535.06 688.5 1533.56 696.5C1532.56 701 1531.81 705.75 1532.31 710.5C1532.56 716.75 1536.81 720.75 1542.56 722.75C1548.06 724.5 1552.56 723.25 1556.31 719C1560.06 715 1560.81 710.25 1558.06 704.75C1554.31 697.5 1551.56 690 1551.56 681.75C1551.31 669.75 1555.31 659.5 1563.31 650.75C1567.81 646 1574.56 645.75 1580.81 644.75C1588.56 643.75 1595.31 646.25 1601.56 650C1607.31 653.5 1610.06 659.25 1611.81 665.5C1614.56 677 1615.56 688.5 1613.06 700.25C1610.31 713.5 1610.56 726.5 1617.06 739C1619.56 744 1622.81 748.75 1625.06 753.75C1630.06 765.25 1631.81 777.5 1631.06 790C1630.31 800.75 1628.06 811.25 1623.31 821C1616.06 835.5 1603.56 844.25 1588.81 849.75C1576.56 854.25 1563.81 856.75 1551.06 857.75C1525.81 860 1503.06 854 1485.56 834.25C1479.06 827 1473.56 818.75 1471.06 808.75C1469.56 802.75 1468.06 796.75 1466.81 791.25ZM1694.46 801.25C1702.46 813.5 1697.71 826.5 1690.71 835.75C1684.96 843.25 1677.71 849 1667.71 850.5C1665.46 850.75 1663.46 850.5 1661.46 850.5C1650.21 851.75 1633.71 843 1630.71 830.75C1627.71 819.25 1630.71 809.75 1637.96 801C1644.46 793.5 1651.96 787.75 1661.96 787C1672.21 786 1687.46 790.5 1694.46 801.25Z" fill="#F86AA6"/>
<path d="M1042.75 774C1045.5 784.75 1041 794.75 1036.5 804C1030.75 815.75 1023 826 1011.75 833C997.25 842 982.25 849.5 965 852C951 854 937 854.25 923 851C907 847 894.5 838.5 886 823.75C879.5 812.75 876 801 874 788.75C871.25 772.5 871.5 756 872.75 739.75C873 732.75 873 725.75 873.75 719C875 709.25 877 699.5 878.25 689.75C878.75 685.5 879 681.5 879 677.25C878.75 670.5 882.5 665.75 887.25 662.25C895.75 656 905.5 652.75 915.75 651.75C928.25 650.75 941 650 953.75 650.25C970.25 650.5 985.75 655 997.75 667.25C1003.25 673 1007.5 679.5 1007.5 687.5C1007.5 699.5 1002.75 710 996 719.75C994.25 722.5 991.75 724.75 989.5 727.75C995.75 729.75 1002 731.5 1008 733.75C1020.75 738.25 1030 746.75 1036.5 758.25C1039.25 763.25 1041.5 768.5 1042.75 774ZM926.25 701.75C926 702.75 926.25 704.25 926.75 705C932 710.75 941.25 709.5 945.25 702.75C947.25 699.25 946 695.5 942.25 694.25C940.75 693.5 938.75 693.25 938.25 693.25C931.25 693.25 926.75 696.75 926.25 701.75ZM967.25 769.75C968.5 760.75 963.25 755.5 953.75 755.25C944.75 755.25 937.25 760 933.75 768.25C931 775 934.5 781.5 941.5 782.5C949.25 783.25 956.5 781.25 963 777.25C965.25 776 967 772.5 967.25 769.75ZM1152.72 768.25C1158.97 776.75 1167.47 777.5 1175.97 777.5C1184.72 777.75 1193.22 779 1200.47 784.25C1206.47 788.75 1213.22 793.25 1214.22 801.25C1216.22 814.25 1214.72 826.75 1205.72 837.5C1194.22 851.75 1178.72 853.5 1162.47 850C1142.47 845.75 1127.47 834.5 1119.97 814.75C1119.97 814.25 1119.47 813.75 1119.47 814C1119.22 820.25 1119.47 827.25 1118.47 834C1117.22 844.75 1107.72 853 1096.97 854.75C1088.97 855.75 1081.22 855 1073.97 852.25C1060.22 847 1053.22 833.5 1054.22 818.75C1054.97 808.25 1055.72 798 1057.72 787.75C1061.22 769.5 1061.97 751.25 1061.72 733C1061.47 722.5 1061.22 712.25 1060.47 702C1059.97 694.5 1058.47 687 1057.22 679.5C1057.22 678.75 1056.97 677.75 1057.22 677.25C1060.47 673 1063.22 668.25 1066.97 664.75C1071.22 661 1076.97 661.25 1082.22 662.75C1092.72 665.75 1102.22 663.75 1111.97 659C1116.97 656.5 1122.97 656 1128.47 654.75C1139.22 652.25 1149.72 654.25 1160.22 657C1175.72 661.25 1188.22 669.25 1195.72 684C1203.22 699 1202.72 714 1195.22 728.5C1188.72 741.75 1179.22 752.75 1166.22 760C1161.72 762.75 1157.22 765.5 1152.72 768.25ZM1141.72 692.75C1138.22 688 1132.97 687.25 1128.72 687C1119.22 687 1113.47 691.75 1111.47 700.75C1110.97 702.5 1111.47 706 1112.47 706.5C1114.22 707.5 1117.22 707 1118.97 706C1121.97 704.25 1124.72 703.75 1127.97 705C1129.72 705.5 1131.47 706.25 1133.22 706.5C1136.97 707.5 1140.47 707.25 1142.72 703.5C1144.72 699.75 1143.97 696.25 1141.72 692.75ZM1226.89 805.75C1227.14 791.5 1230.89 777.75 1234.64 764C1237.64 752.5 1240.89 740.75 1239.89 728.5C1239.39 722.5 1238.14 716.5 1237.39 710.75C1235.89 699.25 1237.39 688.75 1242.39 678.25C1245.64 671 1250.39 665.25 1256.39 660.25C1261.39 656.25 1267.64 655.25 1273.64 654.5C1278.64 654 1283.89 653.75 1288.89 653.75C1299.39 653.25 1305.89 662.5 1304.89 672.5C1303.64 683 1302.14 693.75 1301.89 704.25C1301.64 718 1305.64 731.25 1309.64 744.25C1315.14 761.75 1318.14 779.5 1318.39 797.5C1318.89 815 1310.14 834.5 1289.89 843C1273.14 850.25 1256.89 848 1241.64 839.5C1234.89 835.75 1230.64 829.5 1229.14 822C1227.89 816.75 1227.64 811.25 1226.89 805.75ZM1408.8 688C1410.3 703.25 1403.8 716 1394.3 727C1384.8 738.75 1381.3 752 1383.05 766.75C1383.55 770.75 1386.55 774.25 1391.8 774.25C1395.8 774.25 1400.3 773.5 1404.05 772C1413.8 768 1423.55 764.75 1434.05 764.5C1447.3 764.5 1460.55 767 1471.3 775.5C1478.3 781 1481.05 788.5 1480.8 797C1480.55 802.25 1479.3 807.5 1478.55 813C1477.55 821 1474.05 827.75 1469.55 834.75C1464.05 844 1456.55 850 1447.05 853.5C1435.3 857.75 1423.3 859 1410.8 857.5C1399.8 856.25 1389.05 854 1379.3 848.75C1360.05 838.25 1345.8 823.25 1340.8 801.25C1339.55 796 1339.05 790.5 1338.55 785C1337.8 775 1336.8 765 1337.3 755.25C1337.55 744.25 1339.3 733.25 1341.05 722.5C1342.8 711.5 1345.05 700.75 1347.8 690C1350.05 681 1353.3 672.5 1360.3 666.25C1371.8 655.75 1386.05 654.25 1399.05 663.25C1405.55 667.75 1408.3 674.5 1408.8 682C1409.05 684 1408.8 686 1408.8 688ZM1492.81 791.25C1494.81 779 1496.31 767.5 1498.31 756.5C1500.56 743.5 1504.06 731 1506.06 718.25C1507.81 705.5 1509.31 692.5 1505.06 680.25C1501.81 670.25 1503.31 661.5 1507.81 653C1512.31 644.5 1520.31 639.5 1529.56 638.5C1543.06 637.25 1554.31 641.5 1562.56 652.75C1567.31 659 1566.31 666 1565.06 672.75C1563.81 680.75 1561.06 688.5 1559.56 696.5C1558.56 701 1557.81 705.75 1558.31 710.5C1558.56 716.75 1562.81 720.75 1568.56 722.75C1574.06 724.5 1578.56 723.25 1582.31 719C1586.06 715 1586.81 710.25 1584.06 704.75C1580.31 697.5 1577.56 690 1577.56 681.75C1577.31 669.75 1581.31 659.5 1589.31 650.75C1593.81 646 1600.56 645.75 1606.81 644.75C1614.56 643.75 1621.31 646.25 1627.56 650C1633.31 653.5 1636.06 659.25 1637.81 665.5C1640.56 677 1641.56 688.5 1639.06 700.25C1636.31 713.5 1636.56 726.5 1643.06 739C1645.56 744 1648.81 748.75 1651.06 753.75C1656.06 765.25 1657.81 777.5 1657.06 790C1656.31 800.75 1654.06 811.25 1649.31 821C1642.06 835.5 1629.56 844.25 1614.81 849.75C1602.56 854.25 1589.81 856.75 1577.06 857.75C1551.81 860 1529.06 854 1511.56 834.25C1505.06 827 1499.56 818.75 1497.06 808.75C1495.56 802.75 1494.06 796.75 1492.81 791.25ZM1720.46 801.25C1728.46 813.5 1723.71 826.5 1716.71 835.75C1710.96 843.25 1703.71 849 1693.71 850.5C1691.46 850.75 1689.46 850.5 1687.46 850.5C1676.21 851.75 1659.71 843 1656.71 830.75C1653.71 819.25 1656.71 809.75 1663.96 801C1670.46 793.5 1677.96 787.75 1687.96 787C1698.21 786 1713.46 790.5 1720.46 801.25Z" fill="#F74360"/>
<path d="M2306.7 1206.78C2352.9 1318.54 2208.72 1441.6 2150.72 1302.96C2115.32 1196.34 2245.1 1081.44 2306.7 1206.78ZM2216.25 1258.76C2237.2 1276.78 2254.27 1236.85 2246.6 1220.93C2229.19 1183.61 2196.54 1239.72 2216.25 1258.76ZM2353.98 1352.53C2332.38 1320.26 2354.68 1254.77 2354.76 1216.01C2338.34 1223.69 2314.3 1219.95 2324.81 1197.59C2332.36 1179.25 2384.61 1132.44 2397.94 1163.05C2404.69 1185.98 2401.2 1210.01 2403.2 1233.49C2406.31 1266.71 2414.91 1299.62 2412.27 1332.9C2412.32 1360.9 2372.69 1371.83 2353.98 1352.53Z" fill="#F88C31"/>
<path d="M2349.7 1202.78C2395.9 1314.54 2251.72 1437.6 2193.72 1298.96C2158.32 1192.34 2288.1 1077.44 2349.7 1202.78ZM2259.25 1254.76C2280.2 1272.78 2297.27 1232.85 2289.6 1216.93C2272.19 1179.61 2239.54 1235.72 2259.25 1254.76ZM2396.98 1348.53C2375.38 1316.26 2397.68 1250.77 2397.76 1212.01C2381.34 1219.69 2357.3 1215.95 2367.81 1193.59C2375.36 1175.25 2427.61 1128.44 2440.94 1159.05C2447.69 1181.98 2444.2 1206.01 2446.2 1229.49C2449.31 1262.71 2457.91 1295.62 2455.27 1328.9C2455.32 1356.9 2415.69 1367.83 2396.98 1348.53Z" fill="#FFA33D"/>
<path d="M1016.79 908.263C1015.77 905.973 1014.22 904.188 1012.14 902.908C1010.09 901.594 1007.69 900.95 1004.92 900.977C1002.32 901.002 999.991 901.624 997.936 902.844C995.881 904.064 994.265 905.796 993.086 908.041C991.907 910.252 991.332 912.825 991.36 915.758C991.389 918.691 992.013 921.269 993.235 923.49C994.456 925.712 996.106 927.413 998.184 928.593C1000.26 929.773 1002.6 930.351 1005.2 930.326C1007.63 930.302 1009.81 929.765 1011.74 928.713C1013.69 927.627 1015.24 926.112 1016.39 924.168C1017.57 922.19 1018.23 919.9 1018.38 917.298L1003.68 917.44L1003.65 914.59L1022.05 914.413L1022.07 916.963C1021.94 920.031 1021.13 922.822 1019.65 925.336C1018.18 927.817 1016.18 929.787 1013.66 931.244C1011.17 932.702 1008.36 933.445 1005.23 933.475C1002 933.506 999.058 932.785 996.41 931.31C993.762 929.802 991.659 927.706 990.099 925.021C988.573 922.302 987.793 919.226 987.76 915.793C987.727 912.359 988.448 909.286 989.922 906.571C991.429 903.823 993.492 901.687 996.111 900.162C998.729 898.603 1001.65 897.808 1004.89 897.777C1008.62 897.741 1011.9 898.643 1014.71 900.483C1017.53 902.322 1019.59 904.903 1020.89 908.224L1016.79 908.263ZM1030.08 900.435C1029.38 900.442 1028.77 900.197 1028.27 899.702C1027.76 899.207 1027.51 898.593 1027.5 897.86C1027.49 897.126 1027.74 896.524 1028.23 896.052C1028.73 895.548 1029.33 895.292 1030.03 895.285C1030.73 895.278 1031.33 895.523 1031.83 896.018C1032.34 896.48 1032.59 897.077 1032.6 897.811C1032.61 898.544 1032.36 899.163 1031.87 899.668C1031.37 900.172 1030.78 900.428 1030.08 900.435ZM1031.88 905.568L1032.14 932.867L1028.64 932.9L1028.38 905.602L1031.88 905.568ZM1044.38 908.398L1044.54 925.347C1044.56 927.014 1044.89 928.161 1045.53 928.788C1046.16 929.415 1047.28 929.721 1048.88 929.705L1052.08 929.675L1052.11 932.675L1048.36 932.711C1045.9 932.734 1044.06 932.185 1042.85 931.064C1041.64 929.909 1041.02 928.014 1040.99 925.381L1040.83 908.432L1037.03 908.468L1037 905.519L1040.8 905.482L1040.74 898.632L1044.28 898.598L1044.35 905.448L1051.85 905.376L1051.88 908.326L1044.38 908.398ZM1070.62 904.695C1072.68 904.675 1074.54 905.091 1076.18 905.942C1077.85 906.793 1079.17 908.113 1080.12 909.904C1081.1 911.662 1081.61 913.823 1081.63 916.39L1081.78 932.389L1078.33 932.422L1078.18 916.823C1078.16 913.857 1077.38 911.597 1075.87 910.045C1074.39 908.493 1072.36 907.729 1069.8 907.753C1067.16 907.779 1065.07 908.632 1063.52 910.314C1061.97 911.995 1061.21 914.453 1061.24 917.686L1061.38 932.585L1057.88 932.619L1057.53 895.621L1061.03 895.587L1061.17 909.936C1062.02 908.295 1063.27 907.016 1064.93 906.1C1066.62 905.184 1068.52 904.716 1070.62 904.695ZM1112.91 904.789L1113.17 932.087L1109.67 932.121L1109.63 927.321C1108.84 929.029 1107.62 930.341 1105.96 931.257C1104.31 932.173 1102.44 932.641 1100.38 932.66C1097.11 932.692 1094.44 931.718 1092.35 929.738C1090.26 927.724 1089.2 924.801 1089.16 920.968L1089.01 905.018L1092.46 904.985L1092.61 920.535C1092.64 923.501 1093.39 925.761 1094.88 927.313C1096.39 928.865 1098.43 929.629 1101 929.604C1103.63 929.579 1105.72 928.726 1107.27 927.044C1108.82 925.362 1109.58 922.905 1109.55 919.672L1109.41 904.822L1112.91 904.789ZM1124.41 910.728C1125.29 908.82 1126.66 907.257 1128.51 906.039C1130.4 904.82 1132.63 904.199 1135.2 904.174C1137.7 904.15 1139.93 904.712 1141.91 905.86C1143.89 906.974 1145.44 908.593 1146.56 910.715C1147.71 912.804 1148.3 915.249 1148.33 918.049C1148.36 920.849 1147.81 923.321 1146.7 925.465C1145.62 927.609 1144.09 929.273 1142.1 930.459C1140.14 931.645 1137.93 932.249 1135.47 932.273C1132.87 932.298 1130.61 931.736 1128.7 930.588C1126.82 929.406 1125.44 927.869 1124.56 925.978L1124.61 931.977L1121.16 932.011L1120.81 895.012L1124.26 894.979L1124.41 910.728ZM1144.78 918.083C1144.76 915.816 1144.29 913.871 1143.37 912.246C1142.49 910.588 1141.28 909.333 1139.74 908.481C1138.2 907.629 1136.46 907.212 1134.53 907.231C1132.66 907.249 1130.95 907.715 1129.39 908.63C1127.86 909.545 1126.66 910.84 1125.78 912.515C1124.89 914.191 1124.46 916.128 1124.48 918.328C1124.5 920.528 1124.97 922.457 1125.89 924.115C1126.8 925.773 1128.03 927.044 1129.57 927.93C1131.15 928.814 1132.87 929.248 1134.74 929.23C1136.67 929.211 1138.4 928.761 1139.92 927.88C1141.45 926.965 1142.64 925.67 1143.49 923.996C1144.37 922.287 1144.8 920.316 1144.78 918.083ZM1210.68 896.198L1201.12 931.242L1197.22 931.279L1188.13 901.565L1179.42 931.45L1175.62 931.537L1165.59 896.632L1169.34 896.596L1177.63 927.167L1186.29 896.433L1190.18 896.395L1199.18 926.96L1206.93 896.234L1210.68 896.198ZM1240.93 915.808C1240.94 917.008 1240.91 917.925 1240.85 918.559L1218.21 918.777C1218.33 920.842 1218.84 922.604 1219.76 924.062C1220.67 925.52 1221.86 926.625 1223.34 927.378C1224.81 928.097 1226.42 928.448 1228.15 928.432C1230.42 928.41 1232.31 927.842 1233.83 926.727C1235.39 925.612 1236.41 924.119 1236.89 922.247L1240.59 922.212C1239.95 924.885 1238.54 927.082 1236.35 928.803C1234.2 930.49 1231.48 931.35 1228.18 931.382C1225.61 931.406 1223.31 930.862 1221.26 929.748C1219.22 928.601 1217.6 926.983 1216.41 924.894C1215.26 922.772 1214.67 920.294 1214.64 917.461C1214.62 914.628 1215.16 912.139 1216.27 909.995C1217.38 907.851 1218.95 906.202 1220.97 905.05C1223 903.897 1225.31 903.308 1227.91 903.283C1230.51 903.258 1232.78 903.803 1234.72 904.917C1236.7 906.032 1238.21 907.551 1239.27 909.474C1240.35 911.364 1240.91 913.475 1240.93 915.808ZM1237.38 915.742C1237.39 913.709 1236.96 911.98 1236.08 910.555C1235.23 909.129 1234.07 908.057 1232.6 907.338C1231.12 906.619 1229.52 906.267 1227.79 906.284C1225.19 906.309 1222.98 907.164 1221.16 908.848C1219.34 910.532 1218.35 912.892 1218.18 915.927L1237.38 915.742ZM1250.72 909.514C1251.6 907.605 1252.97 906.042 1254.83 904.824C1256.71 903.606 1258.94 902.984 1261.51 902.96C1264.01 902.936 1266.25 903.498 1268.23 904.645C1270.2 905.76 1271.75 907.378 1272.87 909.501C1274.03 911.59 1274.62 914.034 1274.64 916.834C1274.67 919.634 1274.13 922.106 1273.01 924.25C1271.93 926.394 1270.4 928.059 1268.41 929.245C1266.46 930.43 1264.25 931.035 1261.78 931.058C1259.18 931.083 1256.92 930.522 1255.01 929.373C1253.13 928.191 1251.75 926.655 1250.87 924.763L1250.93 930.763L1247.48 930.796L1247.12 893.798L1250.57 893.764L1250.72 909.514ZM1271.09 916.868C1271.07 914.602 1270.6 912.656 1269.69 911.031C1268.8 909.373 1267.59 908.118 1266.05 907.266C1264.51 906.414 1262.77 905.998 1260.84 906.016C1258.97 906.034 1257.26 906.501 1255.7 907.416C1254.18 908.33 1252.97 909.625 1252.09 911.301C1251.2 912.976 1250.77 914.913 1250.79 917.113C1250.82 919.313 1251.28 921.242 1252.2 922.9C1253.12 924.558 1254.34 925.83 1255.89 926.715C1257.46 927.6 1259.18 928.033 1261.05 928.015C1262.98 927.997 1264.71 927.547 1266.24 926.665C1267.76 925.751 1268.95 924.456 1269.8 922.781C1270.68 921.072 1271.11 919.101 1271.09 916.868ZM1290.62 930.781C1287.48 930.811 1284.91 930.119 1282.9 928.705C1280.92 927.258 1279.8 925.285 1279.54 922.787L1283.14 922.753C1283.32 924.284 1284.05 925.527 1285.33 926.482C1286.64 927.403 1288.37 927.853 1290.54 927.832C1292.44 927.813 1293.92 927.349 1294.98 926.439C1296.07 925.528 1296.61 924.407 1296.59 923.073C1296.58 922.14 1296.28 921.376 1295.67 920.782C1295.07 920.188 1294.3 919.729 1293.36 919.404C1292.46 919.046 1291.22 918.675 1289.65 918.29C1287.61 917.776 1285.95 917.259 1284.68 916.738C1283.41 916.216 1282.32 915.444 1281.41 914.419C1280.53 913.361 1280.09 911.948 1280.07 910.182C1280.06 908.848 1280.44 907.611 1281.23 906.47C1282.02 905.329 1283.15 904.418 1284.61 903.738C1286.07 903.057 1287.73 902.708 1289.6 902.69C1292.53 902.661 1294.9 903.389 1296.72 904.871C1298.53 906.321 1299.52 908.344 1299.68 910.943L1296.18 910.977C1296.06 909.378 1295.42 908.101 1294.24 907.145C1293.1 906.156 1291.53 905.671 1289.53 905.69C1287.76 905.707 1286.33 906.138 1285.24 906.982C1284.15 907.826 1283.61 908.864 1283.62 910.097C1283.63 911.164 1283.95 912.044 1284.59 912.738C1285.27 913.398 1286.09 913.924 1287.06 914.315C1288.03 914.672 1289.33 915.076 1290.97 915.527C1292.94 916.041 1294.51 916.543 1295.69 917.032C1296.86 917.52 1297.86 918.244 1298.71 919.203C1299.55 920.161 1300 921.441 1300.04 923.04C1300.06 924.507 1299.67 925.827 1298.88 927.001C1298.09 928.142 1296.98 929.053 1295.56 929.734C1294.13 930.414 1292.48 930.763 1290.62 930.781ZM1308.14 897.761C1307.44 897.768 1306.84 897.524 1306.33 897.028C1305.83 896.533 1305.57 895.919 1305.56 895.186C1305.56 894.452 1305.8 893.85 1306.3 893.379C1306.79 892.874 1307.39 892.618 1308.09 892.611C1308.79 892.605 1309.39 892.849 1309.9 893.344C1310.4 893.806 1310.66 894.403 1310.66 895.137C1310.67 895.87 1310.43 896.489 1309.93 896.994C1309.44 897.499 1308.84 897.754 1308.14 897.761ZM1309.94 902.894L1310.2 930.193L1306.7 930.226L1306.44 902.928L1309.94 902.894ZM1322.44 905.724L1322.61 922.673C1322.62 924.34 1322.95 925.487 1323.59 926.114C1324.23 926.741 1325.35 927.047 1326.95 927.032L1330.15 927.001L1330.18 930.001L1326.43 930.037C1323.96 930.06 1322.12 929.511 1320.91 928.39C1319.7 927.235 1319.08 925.34 1319.06 922.707L1318.89 905.758L1315.09 905.795L1315.06 902.845L1318.86 902.808L1318.8 895.959L1322.35 895.924L1322.41 902.774L1329.91 902.702L1329.94 905.652L1322.44 905.724ZM1360.5 914.658C1360.51 915.858 1360.49 916.775 1360.43 917.409L1337.78 917.627C1337.9 919.693 1338.42 921.454 1339.33 922.912C1340.24 924.37 1341.44 925.476 1342.91 926.228C1344.39 926.947 1345.99 927.299 1347.72 927.282C1349.99 927.26 1351.88 926.692 1353.41 925.577C1354.96 924.462 1355.98 922.969 1356.46 921.098L1360.16 921.062C1359.52 923.735 1358.11 925.932 1355.93 927.653C1353.78 929.34 1351.05 930.2 1347.75 930.232C1345.18 930.256 1342.88 929.712 1340.84 928.598C1338.79 927.451 1337.18 925.833 1335.99 923.745C1334.83 921.622 1334.24 919.144 1334.22 916.311C1334.19 913.478 1334.73 910.989 1335.85 908.845C1336.96 906.701 1338.53 905.053 1340.55 903.9C1342.57 902.747 1344.88 902.158 1347.48 902.133C1350.08 902.108 1352.35 902.653 1354.3 903.768C1356.27 904.882 1357.79 906.401 1358.84 908.324C1359.93 910.214 1360.48 912.325 1360.5 914.658ZM1356.95 914.593C1356.97 912.559 1356.53 910.83 1355.65 909.405C1354.8 907.98 1353.64 906.907 1352.17 906.188C1350.7 905.469 1349.09 905.118 1347.36 905.134C1344.76 905.159 1342.55 906.014 1340.73 907.698C1338.92 909.382 1337.92 911.742 1337.75 914.777L1356.95 914.593ZM1402.88 904.4C1402.91 907.4 1401.95 909.826 1400 911.678C1398.05 913.531 1395.11 914.476 1391.18 914.513L1384.13 914.581L1384.27 929.481L1380.77 929.514L1380.43 894.566L1390.98 894.464C1394.88 894.427 1397.83 895.315 1399.81 897.13C1401.83 898.944 1402.85 901.367 1402.88 904.4ZM1391.15 911.514C1396.61 911.461 1399.32 909.101 1399.28 904.435C1399.26 902.102 1398.59 900.341 1397.28 899.154C1395.97 897.967 1393.88 897.387 1391.01 897.414L1383.96 897.482L1384.1 911.581L1391.15 911.514ZM1420.94 929.528C1418.38 929.553 1416.06 929.008 1413.98 927.895C1411.93 926.748 1410.3 925.13 1409.08 923.042C1407.89 920.92 1407.29 918.442 1407.26 915.609C1407.23 912.776 1407.81 910.303 1408.99 908.192C1410.17 906.047 1411.79 904.398 1413.84 903.245C1415.9 902.058 1418.21 901.453 1420.77 901.428C1423.34 901.404 1425.66 901.965 1427.74 903.111C1429.85 904.224 1431.5 905.842 1432.69 907.964C1433.91 910.052 1434.53 912.513 1434.56 915.346C1434.59 918.146 1434.01 920.618 1432.83 922.763C1431.65 924.908 1430.02 926.574 1427.93 927.761C1425.84 928.914 1423.51 929.503 1420.94 929.528ZM1420.92 926.478C1422.72 926.461 1424.38 926.045 1425.9 925.23C1427.43 924.382 1428.65 923.137 1429.57 921.495C1430.52 919.819 1430.98 917.781 1430.96 915.381C1430.94 912.981 1430.45 910.969 1429.5 909.345C1428.55 907.687 1427.31 906.466 1425.77 905.68C1424.22 904.862 1422.55 904.461 1420.75 904.479C1418.95 904.496 1417.29 904.929 1415.77 905.777C1414.24 906.591 1413.02 907.836 1412.1 909.512C1411.22 911.154 1410.79 913.175 1410.81 915.575C1410.83 917.975 1411.3 920.003 1412.22 921.661C1413.17 923.286 1414.4 924.507 1415.9 925.326C1417.45 926.111 1419.12 926.495 1420.92 926.478ZM1444.35 906.452C1445.1 904.744 1446.26 903.417 1447.82 902.468C1449.41 901.52 1451.35 901.034 1453.65 901.012L1453.69 904.662L1452.74 904.671C1450.2 904.695 1448.18 905.398 1446.66 906.78C1445.14 908.161 1444.39 910.452 1444.42 913.651L1444.57 928.901L1441.07 928.934L1440.81 901.636L1444.31 901.602L1444.35 906.452ZM1463.5 904.368L1463.66 921.317C1463.68 922.983 1464.01 924.13 1464.65 924.757C1465.29 925.385 1466.41 925.691 1468.01 925.675L1471.21 925.644L1471.23 928.644L1467.48 928.68C1465.02 928.704 1463.18 928.155 1461.97 927.033C1460.76 925.878 1460.14 923.984 1460.11 921.351L1459.95 904.402L1456.15 904.438L1456.12 901.488L1459.92 901.452L1459.86 894.602L1463.41 894.568L1463.47 901.418L1470.97 901.346L1471 904.295L1463.5 904.368ZM1487.52 904.137L1481.17 904.198L1481.41 928.546L1477.91 928.58L1477.67 904.231L1473.87 904.268L1473.84 901.318L1477.64 901.281L1477.63 899.381C1477.6 896.415 1478.33 894.224 1479.81 892.81C1481.33 891.395 1483.79 890.672 1487.19 890.639L1487.22 893.639C1484.95 893.661 1483.36 894.109 1482.43 894.985C1481.54 895.86 1481.11 897.315 1481.13 899.348L1481.14 901.248L1487.49 901.187L1487.52 904.137ZM1505.22 928.717C1502.65 928.742 1500.33 928.198 1498.25 927.084C1496.21 925.937 1494.58 924.32 1493.36 922.231C1492.17 920.109 1491.56 917.632 1491.53 914.798C1491.51 911.965 1492.08 909.493 1493.26 907.381C1494.44 905.237 1496.06 903.588 1498.12 902.435C1500.17 901.248 1502.48 900.643 1505.05 900.618C1507.61 900.593 1509.94 901.154 1512.01 902.301C1514.13 903.414 1515.77 905.032 1516.96 907.154C1518.18 909.242 1518.81 911.703 1518.83 914.536C1518.86 917.336 1518.28 919.808 1517.1 921.953C1515.92 924.098 1514.29 925.763 1512.2 926.95C1510.11 928.104 1507.78 928.693 1505.22 928.717ZM1505.19 925.668C1506.99 925.65 1508.65 925.234 1510.18 924.42C1511.7 923.572 1512.92 922.326 1513.84 920.684C1514.79 919.008 1515.26 916.97 1515.23 914.571C1515.21 912.171 1514.72 910.159 1513.77 908.534C1512.83 906.877 1511.58 905.655 1510.04 904.87C1508.5 904.051 1506.83 903.651 1505.03 903.668C1503.23 903.685 1501.57 904.118 1500.04 904.966C1498.51 905.781 1497.29 907.026 1496.38 908.702C1495.49 910.344 1495.06 912.364 1495.08 914.764C1495.11 917.164 1495.58 919.193 1496.49 920.851C1497.44 922.475 1498.67 923.697 1500.18 924.516C1501.72 925.301 1503.39 925.685 1505.19 925.668ZM1528.49 891.092L1528.84 928.09L1525.34 928.124L1524.99 891.126L1528.49 891.092ZM1538.21 895.549C1537.51 895.555 1536.9 895.311 1536.4 894.816C1535.89 894.321 1535.64 893.707 1535.63 892.973C1535.62 892.24 1535.87 891.638 1536.36 891.166C1536.86 890.661 1537.46 890.406 1538.16 890.399C1538.86 890.392 1539.46 890.636 1539.96 891.132C1540.47 891.593 1540.72 892.191 1540.73 892.924C1540.74 893.658 1540.49 894.277 1540 894.781C1539.5 895.286 1538.91 895.542 1538.21 895.549ZM1540.01 900.682L1540.27 927.98L1536.77 928.014L1536.51 900.715L1540.01 900.682ZM1560.15 928.189C1557.58 928.214 1555.26 927.67 1553.18 926.556C1551.14 925.409 1549.5 923.791 1548.28 921.703C1547.1 919.581 1546.49 917.103 1546.46 914.27C1546.44 911.437 1547.01 908.965 1548.19 906.853C1549.37 904.708 1550.99 903.06 1553.04 901.906C1555.1 900.72 1557.41 900.114 1559.98 900.09C1562.54 900.065 1564.87 900.626 1566.94 901.773C1569.05 902.886 1570.7 904.503 1571.89 906.625C1573.11 908.714 1573.73 911.175 1573.76 914.008C1573.79 916.808 1573.21 919.28 1572.03 921.425C1570.85 923.569 1569.22 925.235 1567.13 926.422C1565.04 927.576 1562.71 928.165 1560.15 928.189ZM1560.12 925.139C1561.92 925.122 1563.58 924.706 1565.11 923.891C1566.63 923.043 1567.85 921.798 1568.77 920.156C1569.72 918.48 1570.19 916.442 1570.16 914.042C1570.14 911.642 1569.65 909.63 1568.7 908.006C1567.75 906.348 1566.51 905.127 1564.97 904.342C1563.43 903.523 1561.76 903.123 1559.96 903.14C1558.16 903.157 1556.49 903.59 1554.97 904.438C1553.44 905.253 1552.22 906.498 1551.3 908.173C1550.42 909.815 1549.99 911.836 1550.01 914.236C1550.04 916.636 1550.51 918.665 1551.42 920.323C1552.37 921.947 1553.6 923.169 1555.11 923.988C1556.65 924.773 1558.32 925.157 1560.12 925.139ZM1594.6 927.708C1593.86 927.715 1593.24 927.471 1592.74 926.976C1592.27 926.48 1592.03 925.866 1592.02 925.133C1592.01 924.399 1592.24 923.797 1592.7 923.326C1593.2 922.821 1593.81 922.565 1594.55 922.558C1595.25 922.552 1595.83 922.796 1596.3 923.291C1596.81 923.753 1597.06 924.351 1597.07 925.084C1597.08 925.817 1596.83 926.436 1596.34 926.941C1595.88 927.446 1595.3 927.701 1594.6 927.708Z" fill="#FFA187"/>
<path d="M1079.63 1355.75C1082.73 1355.72 1085.39 1356.26 1087.61 1357.36C1089.83 1358.46 1091.54 1360.05 1092.74 1362.15C1093.93 1364.24 1094.54 1366.75 1094.57 1369.65C1094.6 1372.53 1094.03 1375.03 1092.88 1377.15C1091.73 1379.24 1090.05 1380.86 1087.85 1382C1085.64 1383.11 1083 1383.68 1079.9 1383.71L1071.62 1383.79L1071.35 1355.83L1079.63 1355.75ZM1079.88 1381.39C1083.77 1381.36 1086.72 1380.31 1088.73 1378.27C1090.76 1376.2 1091.76 1373.33 1091.73 1369.68C1091.69 1366 1090.64 1363.14 1088.57 1361.11C1086.52 1359.05 1083.55 1358.04 1079.66 1358.07L1074.18 1358.13L1074.4 1381.45L1079.88 1381.39ZM1119.51 1371.29C1119.52 1372.25 1119.5 1372.99 1119.45 1373.49L1101.33 1373.67C1101.43 1375.32 1101.84 1376.73 1102.57 1377.9C1103.3 1379.06 1104.26 1379.95 1105.44 1380.55C1106.61 1381.12 1107.9 1381.4 1109.28 1381.39C1111.1 1381.37 1112.61 1380.92 1113.83 1380.03C1115.08 1379.13 1115.89 1377.94 1116.28 1376.44L1119.24 1376.41C1118.72 1378.55 1117.59 1380.31 1115.85 1381.69C1114.13 1383.04 1111.95 1383.73 1109.31 1383.75C1107.25 1383.77 1105.41 1383.33 1103.77 1382.44C1102.14 1381.53 1100.85 1380.23 1099.9 1378.56C1098.97 1376.86 1098.5 1374.88 1098.48 1372.61C1098.46 1370.35 1098.89 1368.36 1099.78 1366.64C1100.67 1364.93 1101.93 1363.61 1103.54 1362.68C1105.16 1361.76 1107.01 1361.29 1109.09 1361.27C1111.17 1361.25 1112.99 1361.69 1114.54 1362.58C1116.13 1363.47 1117.34 1364.69 1118.18 1366.22C1119.05 1367.74 1119.49 1369.43 1119.51 1371.29ZM1116.67 1371.24C1116.68 1369.61 1116.33 1368.23 1115.63 1367.09C1114.95 1365.95 1114.02 1365.09 1112.84 1364.52C1111.66 1363.94 1110.38 1363.66 1108.99 1363.67C1106.91 1363.69 1105.15 1364.38 1103.69 1365.72C1102.24 1367.07 1101.44 1368.96 1101.31 1371.39L1116.67 1371.24ZM1132.27 1383.53C1129.76 1383.55 1127.7 1383 1126.09 1381.87C1124.51 1380.71 1123.61 1379.13 1123.41 1377.13L1126.29 1377.11C1126.43 1378.33 1127.01 1379.33 1128.03 1380.09C1129.08 1380.83 1130.47 1381.19 1132.21 1381.17C1133.73 1381.16 1134.91 1380.78 1135.75 1380.06C1136.63 1379.33 1137.06 1378.43 1137.05 1377.36C1137.04 1376.62 1136.8 1376.01 1136.31 1375.53C1135.83 1375.06 1135.21 1374.69 1134.46 1374.43C1133.74 1374.14 1132.75 1373.84 1131.49 1373.54C1129.86 1373.13 1128.54 1372.71 1127.52 1372.29C1126.5 1371.88 1125.63 1371.26 1124.9 1370.44C1124.2 1369.59 1123.84 1368.46 1123.83 1367.05C1123.82 1365.98 1124.13 1364.99 1124.76 1364.08C1125.39 1363.17 1126.29 1362.44 1127.46 1361.89C1128.63 1361.35 1129.96 1361.07 1131.45 1361.06C1133.8 1361.03 1135.7 1361.62 1137.15 1362.8C1138.6 1363.96 1139.39 1365.58 1139.52 1367.66L1136.72 1367.69C1136.62 1366.41 1136.11 1365.39 1135.17 1364.62C1134.25 1363.83 1133 1363.44 1131.4 1363.46C1129.98 1363.47 1128.84 1363.82 1127.96 1364.49C1127.09 1365.17 1126.66 1366 1126.67 1366.98C1126.68 1367.84 1126.94 1368.54 1127.45 1369.1C1127.99 1369.62 1128.65 1370.04 1129.42 1370.36C1130.2 1370.64 1131.24 1370.97 1132.55 1371.33C1134.13 1371.74 1135.39 1372.14 1136.32 1372.53C1137.26 1372.92 1138.07 1373.5 1138.74 1374.27C1139.41 1375.03 1139.77 1376.06 1139.81 1377.34C1139.82 1378.51 1139.51 1379.57 1138.88 1380.51C1138.25 1381.42 1137.36 1382.15 1136.22 1382.69C1135.08 1383.24 1133.76 1383.52 1132.27 1383.53ZM1146.29 1357.11C1145.73 1357.12 1145.24 1356.92 1144.84 1356.53C1144.44 1356.13 1144.23 1355.64 1144.23 1355.05C1144.22 1354.47 1144.42 1353.98 1144.81 1353.61C1145.21 1353.2 1145.69 1353 1146.25 1352.99C1146.81 1352.99 1147.29 1353.18 1147.69 1353.58C1148.1 1353.95 1148.3 1354.43 1148.31 1355.01C1148.31 1355.6 1148.12 1356.1 1147.72 1356.5C1147.32 1356.9 1146.85 1357.11 1146.29 1357.11ZM1147.73 1361.22L1147.94 1383.06L1145.14 1383.09L1144.93 1361.25L1147.73 1361.22ZM1163.22 1360.75C1165.28 1360.73 1167.07 1361.19 1168.6 1362.14C1170.12 1363.08 1171.23 1364.29 1171.91 1365.75L1171.86 1360.99L1174.66 1360.96L1174.88 1383.36C1174.9 1385.36 1174.48 1387.14 1173.61 1388.69C1172.77 1390.25 1171.58 1391.45 1170.05 1392.29C1168.51 1393.16 1166.75 1393.6 1164.78 1393.62C1161.98 1393.64 1159.64 1393 1157.76 1391.68C1155.91 1390.37 1154.74 1388.57 1154.27 1386.28L1157.03 1386.25C1157.52 1387.77 1158.44 1388.97 1159.78 1389.87C1161.15 1390.76 1162.81 1391.2 1164.75 1391.18C1166.17 1391.16 1167.43 1390.85 1168.55 1390.22C1169.66 1389.62 1170.53 1388.74 1171.16 1387.56C1171.79 1386.38 1172.1 1384.99 1172.08 1383.39L1172.03 1377.99C1171.35 1379.49 1170.25 1380.74 1168.74 1381.74C1167.26 1382.71 1165.49 1383.21 1163.44 1383.23C1161.44 1383.25 1159.63 1382.8 1158.02 1381.88C1156.44 1380.96 1155.19 1379.66 1154.27 1377.96C1153.37 1376.26 1152.91 1374.29 1152.89 1372.05C1152.87 1369.81 1153.29 1367.85 1154.15 1366.16C1155.04 1364.44 1156.27 1363.12 1157.84 1362.2C1159.43 1361.25 1161.22 1360.77 1163.22 1360.75ZM1171.97 1371.91C1171.95 1370.15 1171.58 1368.6 1170.84 1367.28C1170.11 1365.95 1169.12 1364.93 1167.86 1364.23C1166.62 1363.52 1165.26 1363.17 1163.77 1363.19C1162.22 1363.2 1160.84 1363.56 1159.62 1364.27C1158.4 1364.97 1157.43 1365.99 1156.72 1367.33C1156.04 1368.65 1155.71 1370.21 1155.73 1372.02C1155.75 1373.81 1156.11 1375.38 1156.82 1376.73C1157.55 1378.06 1158.53 1379.08 1159.76 1379.79C1161 1380.47 1162.39 1380.8 1163.93 1380.79C1165.43 1380.77 1166.78 1380.4 1168 1379.67C1169.25 1378.93 1170.23 1377.9 1170.93 1376.56C1171.64 1375.22 1171.99 1373.67 1171.97 1371.91ZM1191.29 1360.4C1193.91 1360.38 1196.05 1361.17 1197.72 1362.78C1199.38 1364.36 1200.23 1366.69 1200.26 1369.76L1200.39 1382.55L1197.63 1382.58L1197.51 1370.1C1197.48 1367.73 1196.87 1365.92 1195.65 1364.68C1194.47 1363.44 1192.85 1362.83 1190.8 1362.85C1188.69 1362.87 1187.02 1363.55 1185.77 1364.89C1184.53 1366.24 1183.93 1368.21 1183.95 1370.79L1184.07 1382.71L1181.27 1382.74L1181.06 1360.9L1183.86 1360.87L1183.89 1364.59C1184.57 1363.25 1185.56 1362.23 1186.86 1361.52C1188.16 1360.79 1189.64 1360.42 1191.29 1360.4ZM1226.22 1370.27C1226.23 1371.23 1226.21 1371.96 1226.16 1372.47L1208.04 1372.64C1208.14 1374.29 1208.55 1375.7 1209.28 1376.87C1210.01 1378.04 1210.97 1378.92 1212.15 1379.52C1213.33 1380.1 1214.61 1380.38 1216 1380.36C1217.81 1380.35 1219.33 1379.89 1220.54 1379C1221.79 1378.11 1222.6 1376.91 1222.99 1375.42L1225.95 1375.39C1225.44 1377.53 1224.31 1379.28 1222.56 1380.66C1220.84 1382.01 1218.66 1382.7 1216.02 1382.72C1213.97 1382.74 1212.12 1382.31 1210.49 1381.42C1208.85 1380.5 1207.56 1379.21 1206.61 1377.53C1205.69 1375.84 1205.21 1373.85 1205.19 1371.59C1205.17 1369.32 1205.61 1367.33 1206.5 1365.62C1207.39 1363.9 1208.64 1362.58 1210.26 1361.66C1211.88 1360.74 1213.72 1360.27 1215.8 1360.25C1217.88 1360.23 1219.7 1360.66 1221.26 1361.55C1222.84 1362.44 1224.05 1363.66 1224.89 1365.2C1225.76 1366.71 1226.2 1368.4 1226.22 1370.27ZM1223.38 1370.21C1223.39 1368.59 1223.04 1367.2 1222.34 1366.06C1221.66 1364.92 1220.73 1364.06 1219.56 1363.49C1218.38 1362.91 1217.09 1362.63 1215.71 1362.65C1213.63 1362.67 1211.86 1363.35 1210.41 1364.7C1208.95 1366.04 1208.16 1367.93 1208.02 1370.36L1223.38 1370.21ZM1234.09 1364.27C1234.69 1362.9 1235.61 1361.84 1236.86 1361.08C1238.13 1360.32 1239.69 1359.94 1241.52 1359.92L1241.55 1362.84L1240.79 1362.85C1238.77 1362.86 1237.15 1363.43 1235.93 1364.53C1234.71 1365.64 1234.12 1367.47 1234.14 1370.03L1234.26 1382.23L1231.46 1382.26L1231.25 1360.42L1234.05 1360.39L1234.09 1364.27ZM1255.54 1371.06C1255.52 1368.82 1255.94 1366.86 1256.8 1365.17C1257.7 1363.46 1258.92 1362.14 1260.49 1361.22C1262.08 1360.27 1263.87 1359.78 1265.87 1359.76C1267.95 1359.74 1269.74 1360.21 1271.25 1361.15C1272.78 1362.1 1273.88 1363.31 1274.56 1364.8L1274.52 1360L1277.32 1359.97L1277.53 1381.81L1274.73 1381.84L1274.68 1377C1274 1378.5 1272.91 1379.75 1271.4 1380.75C1269.91 1381.73 1268.13 1382.22 1266.05 1382.24C1264.08 1382.26 1262.29 1381.81 1260.68 1380.89C1259.09 1379.98 1257.84 1378.67 1256.92 1376.97C1256.02 1375.27 1255.56 1373.3 1255.54 1371.06ZM1274.62 1370.92C1274.6 1369.16 1274.23 1367.62 1273.5 1366.29C1272.76 1364.96 1271.77 1363.95 1270.51 1363.24C1269.27 1362.53 1267.91 1362.18 1266.42 1362.2C1264.87 1362.21 1263.49 1362.57 1262.27 1363.28C1261.05 1363.98 1260.08 1365.01 1259.38 1366.35C1258.7 1367.66 1258.36 1369.22 1258.38 1371.04C1258.4 1372.82 1258.76 1374.39 1259.47 1375.75C1260.2 1377.07 1261.18 1378.09 1262.42 1378.8C1263.65 1379.48 1265.04 1379.81 1266.59 1379.8C1268.08 1379.78 1269.44 1379.41 1270.66 1378.68C1271.9 1377.95 1272.88 1376.91 1273.59 1375.57C1274.29 1374.23 1274.64 1372.68 1274.62 1370.92ZM1293.94 1359.41C1296.56 1359.39 1298.7 1360.18 1300.37 1361.79C1302.04 1363.38 1302.88 1365.7 1302.91 1368.77L1303.04 1381.57L1300.28 1381.59L1300.16 1369.11C1300.13 1366.74 1299.52 1364.93 1298.3 1363.69C1297.12 1362.45 1295.5 1361.84 1293.45 1361.86C1291.34 1361.88 1289.67 1362.56 1288.43 1363.91C1287.19 1365.25 1286.58 1367.22 1286.6 1369.81L1286.72 1381.72L1283.92 1381.75L1283.71 1359.91L1286.51 1359.89L1286.54 1363.61C1287.22 1362.27 1288.21 1361.24 1289.51 1360.54C1290.81 1359.8 1292.29 1359.43 1293.94 1359.41ZM1307.84 1370.56C1307.82 1368.32 1308.26 1366.36 1309.15 1364.67C1310.04 1362.95 1311.26 1361.63 1312.83 1360.71C1314.42 1359.76 1316.22 1359.28 1318.22 1359.26C1320.14 1359.24 1321.87 1359.69 1323.43 1360.61C1324.98 1361.53 1326.13 1362.73 1326.86 1364.22L1326.74 1351.74L1329.54 1351.71L1329.83 1381.31L1327.03 1381.34L1326.98 1376.46C1326.33 1377.98 1325.25 1379.25 1323.74 1380.25C1322.23 1381.22 1320.45 1381.72 1318.39 1381.74C1316.39 1381.76 1314.59 1381.31 1312.98 1380.39C1311.4 1379.47 1310.14 1378.17 1309.22 1376.47C1308.32 1374.77 1307.87 1372.8 1307.84 1370.56ZM1326.92 1370.42C1326.91 1368.66 1326.53 1367.11 1325.8 1365.79C1325.07 1364.46 1324.07 1363.44 1322.81 1362.74C1321.58 1362.03 1320.21 1361.68 1318.72 1361.7C1317.17 1361.71 1315.79 1362.07 1314.57 1362.78C1313.35 1363.48 1312.39 1364.5 1311.68 1365.84C1311 1367.16 1310.67 1368.72 1310.68 1370.53C1310.7 1372.32 1311.06 1373.89 1311.77 1375.24C1312.5 1376.57 1313.48 1377.59 1314.72 1378.3C1315.95 1378.98 1317.34 1379.31 1318.89 1379.3C1320.38 1379.28 1321.74 1378.91 1322.96 1378.18C1324.2 1377.44 1325.18 1376.41 1325.89 1375.07C1326.6 1373.73 1326.94 1372.18 1326.92 1370.42ZM1355.21 1353.1C1358.3 1353.07 1360.96 1353.61 1363.18 1354.71C1365.41 1355.81 1367.12 1357.4 1368.31 1359.5C1369.5 1361.59 1370.11 1364.1 1370.14 1367C1370.17 1369.88 1369.61 1372.38 1368.45 1374.5C1367.3 1376.59 1365.62 1378.21 1363.42 1379.35C1361.22 1380.46 1358.57 1381.03 1355.48 1381.06L1347.2 1381.14L1346.93 1353.18L1355.21 1353.1ZM1355.45 1378.74C1359.35 1378.71 1362.3 1377.66 1364.3 1375.62C1366.34 1373.55 1367.34 1370.68 1367.3 1367.03C1367.27 1363.35 1366.21 1360.49 1364.14 1358.46C1362.09 1356.4 1359.12 1355.39 1355.23 1355.42L1349.75 1355.48L1349.97 1378.8L1355.45 1378.74ZM1395.08 1368.64C1395.09 1369.6 1395.07 1370.34 1395.02 1370.84L1376.9 1371.02C1377 1372.67 1377.41 1374.08 1378.14 1375.25C1378.87 1376.41 1379.83 1377.3 1381.01 1377.9C1382.19 1378.47 1383.47 1378.75 1384.86 1378.74C1386.67 1378.72 1388.19 1378.27 1389.4 1377.38C1390.65 1376.48 1391.46 1375.29 1391.85 1373.79L1394.81 1373.76C1394.3 1375.9 1393.17 1377.66 1391.42 1379.04C1389.7 1380.39 1387.52 1381.08 1384.88 1381.1C1382.83 1381.12 1380.98 1380.68 1379.35 1379.79C1377.71 1378.88 1376.42 1377.58 1375.47 1375.91C1374.55 1374.21 1374.07 1372.23 1374.05 1369.96C1374.03 1367.7 1374.46 1365.71 1375.35 1363.99C1376.24 1362.28 1377.5 1360.96 1379.12 1360.04C1380.73 1359.11 1382.58 1358.64 1384.66 1358.62C1386.74 1358.6 1388.56 1359.04 1390.12 1359.93C1391.7 1360.82 1392.91 1362.04 1393.75 1363.57C1394.62 1365.09 1395.06 1366.78 1395.08 1368.64ZM1392.24 1368.59C1392.25 1366.96 1391.9 1365.58 1391.2 1364.44C1390.52 1363.3 1389.59 1362.44 1388.41 1361.87C1387.24 1361.29 1385.95 1361.01 1384.57 1361.02C1382.49 1361.04 1380.72 1361.73 1379.27 1363.07C1377.81 1364.42 1377.02 1366.31 1376.88 1368.74L1392.24 1368.59ZM1408.05 1377.84L1415.23 1358.65L1418.19 1358.62L1409.64 1380.54L1406.48 1380.57L1397.51 1358.82L1400.51 1358.79L1408.05 1377.84ZM1441.84 1368.19C1441.85 1369.15 1441.83 1369.89 1441.78 1370.39L1423.66 1370.57C1423.75 1372.22 1424.17 1373.63 1424.9 1374.8C1425.63 1375.96 1426.59 1376.85 1427.76 1377.45C1428.94 1378.02 1430.23 1378.3 1431.61 1378.29C1433.43 1378.27 1434.94 1377.82 1436.16 1376.93C1437.4 1376.04 1438.22 1374.84 1438.61 1373.34L1441.57 1373.32C1441.05 1375.45 1439.92 1377.21 1438.18 1378.59C1436.46 1379.94 1434.28 1380.63 1431.64 1380.65C1429.58 1380.67 1427.74 1380.24 1426.1 1379.34C1424.47 1378.43 1423.17 1377.13 1422.22 1375.46C1421.3 1373.76 1420.83 1371.78 1420.81 1369.51C1420.79 1367.25 1421.22 1365.26 1422.11 1363.54C1423 1361.83 1424.25 1360.51 1425.87 1359.59C1427.49 1358.66 1429.34 1358.19 1431.42 1358.17C1433.5 1358.15 1435.32 1358.59 1436.87 1359.48C1438.45 1360.37 1439.67 1361.59 1440.51 1363.12C1441.38 1364.64 1441.82 1366.33 1441.84 1368.19ZM1439 1368.14C1439.01 1366.51 1438.66 1365.13 1437.96 1363.99C1437.28 1362.85 1436.35 1361.99 1435.17 1361.42C1433.99 1360.84 1432.71 1360.56 1431.32 1360.57C1429.24 1360.59 1427.48 1361.28 1426.02 1362.62C1424.57 1363.97 1423.77 1365.86 1423.64 1368.29L1439 1368.14ZM1449.59 1350.56L1449.87 1380.16L1447.07 1380.18L1446.79 1350.58L1449.59 1350.56ZM1465.78 1380.32C1463.72 1380.34 1461.87 1379.91 1460.2 1379.02C1458.57 1378.1 1457.26 1376.8 1456.29 1375.13C1455.34 1373.44 1454.85 1371.45 1454.83 1369.19C1454.81 1366.92 1455.27 1364.94 1456.21 1363.25C1457.16 1361.54 1458.45 1360.22 1460.09 1359.3C1461.74 1358.35 1463.59 1357.86 1465.64 1357.84C1467.69 1357.82 1469.55 1358.27 1471.21 1359.19C1472.9 1360.08 1474.22 1361.37 1475.17 1363.07C1476.15 1364.74 1476.65 1366.71 1476.67 1368.98C1476.69 1371.22 1476.23 1373.2 1475.29 1374.91C1474.34 1376.63 1473.03 1377.96 1471.36 1378.91C1469.69 1379.83 1467.83 1380.3 1465.78 1380.32ZM1465.75 1377.88C1467.19 1377.87 1468.52 1377.54 1469.74 1376.88C1470.96 1376.21 1471.94 1375.21 1472.68 1373.9C1473.44 1372.56 1473.81 1370.93 1473.79 1369.01C1473.77 1367.09 1473.38 1365.48 1472.62 1364.18C1471.86 1362.85 1470.87 1361.87 1469.63 1361.24C1468.4 1360.59 1467.06 1360.27 1465.62 1360.28C1464.18 1360.3 1462.85 1360.64 1461.63 1361.32C1460.41 1361.97 1459.44 1362.97 1458.7 1364.31C1458 1365.62 1457.65 1367.24 1457.67 1369.16C1457.69 1371.08 1458.06 1372.7 1458.8 1374.03C1459.56 1375.33 1460.54 1376.31 1461.74 1376.96C1462.98 1377.59 1464.31 1377.9 1465.75 1377.88ZM1484.47 1362.78C1485.15 1361.31 1486.23 1360.09 1487.72 1359.11C1489.23 1358.11 1491.02 1357.6 1493.1 1357.58C1495.08 1357.56 1496.85 1358.01 1498.44 1358.93C1500.05 1359.82 1501.3 1361.11 1502.19 1362.81C1503.12 1364.48 1503.59 1366.44 1503.61 1368.68C1503.63 1370.92 1503.2 1372.9 1502.31 1374.61C1501.44 1376.33 1500.22 1377.66 1498.63 1378.61C1497.06 1379.56 1495.29 1380.04 1493.32 1380.06C1491.27 1380.08 1489.48 1379.61 1487.95 1378.67C1486.42 1377.7 1485.3 1376.48 1484.59 1375.02L1484.74 1390.14L1481.98 1390.17L1481.67 1358.01L1484.43 1357.98L1484.47 1362.78ZM1500.77 1368.71C1500.75 1366.89 1500.38 1365.34 1499.65 1364.04C1498.94 1362.71 1497.97 1361.71 1496.74 1361.02C1495.5 1360.34 1494.11 1360.01 1492.57 1360.02C1491.07 1360.04 1489.7 1360.41 1488.46 1361.14C1487.24 1361.88 1486.27 1362.91 1485.57 1364.25C1484.86 1365.59 1484.52 1367.14 1484.53 1368.9C1484.55 1370.66 1484.92 1372.2 1485.66 1373.53C1486.39 1374.86 1487.37 1375.87 1488.61 1376.58C1489.87 1377.29 1491.24 1377.64 1492.74 1377.62C1494.28 1377.61 1495.67 1377.25 1496.89 1376.54C1498.11 1375.81 1499.06 1374.78 1499.74 1373.44C1500.44 1372.07 1500.79 1370.49 1500.77 1368.71ZM1528.51 1367.36C1528.52 1368.32 1528.5 1369.05 1528.45 1369.56L1510.33 1369.73C1510.43 1371.39 1510.84 1372.8 1511.57 1373.96C1512.31 1375.13 1513.26 1376.01 1514.44 1376.61C1515.62 1377.19 1516.9 1377.47 1518.29 1377.46C1520.1 1377.44 1521.62 1376.99 1522.84 1376.09C1524.08 1375.2 1524.9 1374.01 1525.28 1372.51L1528.24 1372.48C1527.73 1374.62 1526.6 1376.38 1524.85 1377.75C1523.13 1379.1 1520.95 1379.79 1518.31 1379.82C1516.26 1379.84 1514.41 1379.4 1512.78 1378.51C1511.14 1377.59 1509.85 1376.3 1508.9 1374.63C1507.98 1372.93 1507.51 1370.95 1507.48 1368.68C1507.46 1366.41 1507.9 1364.42 1508.79 1362.71C1509.68 1360.99 1510.93 1359.67 1512.55 1358.75C1514.17 1357.83 1516.01 1357.36 1518.09 1357.34C1520.17 1357.32 1521.99 1357.75 1523.55 1358.65C1525.13 1359.54 1526.34 1360.75 1527.18 1362.29C1528.05 1363.8 1528.49 1365.49 1528.51 1367.36ZM1525.67 1367.31C1525.68 1365.68 1525.34 1364.3 1524.63 1363.16C1523.95 1362.02 1523.03 1361.16 1521.85 1360.58C1520.67 1360.01 1519.38 1359.73 1518 1359.74C1515.92 1359.76 1514.15 1360.44 1512.7 1361.79C1511.24 1363.14 1510.45 1365.03 1510.31 1367.45L1525.67 1367.31ZM1536.38 1361.36C1536.98 1360 1537.9 1358.93 1539.15 1358.18C1540.42 1357.42 1541.98 1357.03 1543.82 1357.01L1543.84 1359.93L1543.08 1359.94C1541.06 1359.96 1539.44 1360.52 1538.22 1361.63C1537 1362.73 1536.41 1364.56 1536.43 1367.12L1536.55 1379.32L1533.75 1379.35L1533.54 1357.51L1536.34 1357.48L1536.38 1361.36Z" fill="#FFC951"/>
<path d="M2621.08 1032.7C2621.36 1031.13 2622.15 1029.79 2623.45 1028.69C2624.75 1027.58 2626.27 1027.03 2628 1027.01C2629.41 1027 2630.69 1027.36 2631.85 1028.07C2632.97 1028.75 2633.87 1029.77 2634.55 1031.13C2635.2 1032.48 2635.53 1034.11 2635.54 1036L2635.61 1045.68L2607.65 1045.88L2607.58 1036.48C2607.56 1033.65 2608.2 1031.5 2609.5 1030.02C2610.8 1028.52 2612.48 1027.76 2614.56 1027.75C2616.3 1027.74 2617.71 1028.19 2618.81 1029.12C2619.89 1030.04 2620.64 1031.24 2621.08 1032.7ZM2619.99 1042.99L2619.94 1036.47C2619.93 1034.58 2619.48 1033.13 2618.59 1032.12C2617.68 1031.09 2616.44 1030.58 2614.86 1030.59C2613.32 1030.6 2612.11 1031.13 2611.23 1032.17C2610.36 1033.19 2609.93 1034.69 2609.95 1036.66L2609.99 1043.06L2619.99 1042.99ZM2633.18 1036.22C2633.17 1034.19 2632.68 1032.62 2631.71 1031.51C2630.74 1030.37 2629.42 1029.8 2627.74 1029.82C2626.06 1029.83 2624.73 1030.44 2623.75 1031.64C2622.75 1032.82 2622.25 1034.41 2622.26 1036.41L2622.31 1042.97L2633.23 1042.9L2633.18 1036.22ZM2624.49 1023.17C2622.25 1023.19 2620.29 1022.76 2618.6 1021.89C2616.89 1021 2615.57 1019.77 2614.66 1018.2C2613.71 1016.61 2613.23 1014.81 2613.22 1012.81C2613.21 1010.73 2613.67 1008.94 2614.62 1007.44C2615.57 1005.91 2616.79 1004.81 2618.28 1004.13L2613.48 1004.17L2613.46 1001.37L2635.3 1001.22L2635.32 1004.02L2630.48 1004.05C2631.98 1004.73 2633.22 1005.83 2634.22 1007.34C2635.19 1008.83 2635.68 1010.61 2635.7 1012.69C2635.71 1014.67 2635.26 1016.46 2634.34 1018.06C2633.41 1019.64 2632.1 1020.89 2630.4 1021.81C2628.7 1022.7 2626.73 1023.16 2624.49 1023.17ZM2624.4 1004.09C2622.64 1004.1 2621.1 1004.47 2619.77 1005.2C2618.44 1005.93 2617.42 1006.93 2616.71 1008.19C2616 1009.42 2615.65 1010.78 2615.66 1012.27C2615.67 1013.82 2616.02 1015.2 2616.72 1016.43C2617.43 1017.65 2618.45 1018.61 2619.79 1019.32C2621.1 1020.01 2622.66 1020.34 2624.47 1020.33C2626.26 1020.32 2627.83 1019.96 2629.18 1019.26C2630.51 1018.53 2631.53 1017.55 2632.24 1016.32C2632.93 1015.09 2633.27 1013.7 2633.26 1012.15C2633.25 1010.66 2632.88 1009.3 2632.15 1008.08C2631.42 1006.83 2630.38 1005.85 2629.05 1005.14C2627.71 1004.43 2626.16 1004.08 2624.4 1004.09ZM2635.52 987.302C2635.54 989.808 2634.98 991.865 2633.85 993.473C2632.68 995.055 2631.1 995.946 2629.1 996.146L2629.08 993.267C2630.31 993.125 2631.31 992.544 2632.07 991.526C2632.81 990.48 2633.17 989.091 2633.16 987.358C2633.15 985.838 2632.78 984.654 2632.06 983.806C2631.33 982.931 2630.44 982.497 2629.37 982.504C2628.62 982.51 2628.01 982.754 2627.53 983.237C2627.06 983.72 2626.69 984.336 2626.43 985.085C2626.14 985.807 2625.84 986.796 2625.53 988.051C2625.11 989.681 2624.69 991.004 2624.27 992.02C2623.86 993.036 2623.23 993.907 2622.41 994.633C2621.56 995.332 2620.43 995.687 2619.02 995.697C2617.95 995.704 2616.96 995.391 2616.05 994.757C2615.14 994.124 2614.42 993.222 2613.87 992.053C2613.33 990.883 2613.06 989.552 2613.05 988.058C2613.03 985.712 2613.62 983.814 2614.81 982.366C2615.97 980.918 2617.59 980.133 2619.67 980.012L2619.69 982.812C2618.41 982.901 2617.39 983.415 2616.62 984.353C2615.83 985.265 2615.44 986.522 2615.45 988.122C2615.46 989.535 2615.8 990.679 2616.47 991.554C2617.14 992.43 2617.97 992.864 2618.96 992.857C2619.81 992.851 2620.52 992.593 2621.08 992.082C2621.6 991.545 2622.03 990.889 2622.34 990.114C2622.63 989.338 2622.96 988.296 2623.32 986.987C2623.74 985.41 2624.14 984.154 2624.53 983.218C2624.93 982.282 2625.51 981.478 2626.28 980.806C2627.05 980.134 2628.07 979.78 2629.35 979.744C2630.52 979.736 2631.58 980.049 2632.52 980.682C2633.43 981.316 2634.15 982.204 2634.69 983.347C2635.24 984.49 2635.51 985.808 2635.52 987.302ZM2622.94 954.758C2623.89 954.751 2624.63 954.773 2625.14 954.823L2625.26 972.942C2626.91 972.851 2628.33 972.441 2629.49 971.713C2630.66 970.984 2631.55 970.032 2632.15 968.854C2632.73 967.677 2633.02 966.395 2633.01 965.008C2632.99 963.195 2632.54 961.678 2631.65 960.457C2630.77 959.21 2629.57 958.392 2628.08 958.002L2628.06 955.042C2630.19 955.561 2631.95 956.695 2633.32 958.446C2634.67 960.17 2635.35 962.351 2635.37 964.991C2635.38 967.045 2634.94 968.888 2634.05 970.521C2633.12 972.154 2631.83 973.443 2630.15 974.388C2628.45 975.307 2626.47 975.774 2624.2 975.79C2621.94 975.805 2619.95 975.366 2618.23 974.471C2616.52 973.576 2615.2 972.319 2614.29 970.699C2613.37 969.078 2612.9 967.228 2612.89 965.148C2612.87 963.068 2613.31 961.252 2614.21 959.699C2615.1 958.119 2616.32 956.911 2617.86 956.073C2619.38 955.209 2621.07 954.771 2622.94 954.758ZM2622.87 957.598C2621.25 957.583 2619.86 957.926 2618.72 958.627C2617.58 959.302 2616.72 960.228 2616.14 961.405C2615.56 962.583 2615.28 963.865 2615.29 965.251C2615.3 967.331 2615.98 969.1 2617.33 970.557C2618.67 972.015 2620.55 972.815 2622.98 972.958L2622.87 957.598ZM2623.99 950.908C2621.75 950.923 2619.79 950.484 2618.1 949.589C2616.39 948.694 2615.07 947.463 2614.15 945.896C2613.21 944.303 2612.73 942.506 2612.72 940.506C2612.7 938.586 2613.16 936.849 2614.08 935.296C2615 933.743 2616.21 932.601 2617.7 931.871L2605.22 931.958L2605.2 929.158L2634.8 928.952L2634.81 931.752L2629.93 931.786C2631.46 932.442 2632.72 933.526 2633.72 935.039C2634.69 936.553 2635.18 938.336 2635.2 940.389C2635.21 942.389 2634.75 944.192 2633.83 945.799C2632.91 947.379 2631.6 948.628 2629.9 949.546C2628.2 950.438 2626.23 950.892 2623.99 950.908ZM2623.9 931.828C2622.14 931.84 2620.59 932.211 2619.26 932.94C2617.93 933.669 2616.91 934.663 2616.2 935.922C2615.49 937.153 2615.14 938.516 2615.15 940.009C2615.16 941.556 2615.52 942.94 2616.22 944.162C2616.92 945.383 2617.94 946.35 2619.28 947.06C2620.59 947.745 2622.16 948.08 2623.97 948.068C2625.76 948.055 2627.33 947.698 2628.68 946.995C2630.01 946.266 2631.03 945.285 2631.74 944.053C2632.43 942.822 2632.76 941.433 2632.75 939.886C2632.74 938.393 2632.37 937.035 2631.64 935.814C2630.91 934.566 2629.88 933.586 2628.54 932.875C2627.2 932.165 2625.66 931.816 2623.9 931.828ZM2608.71 910.364C2608.71 910.924 2608.51 911.406 2608.12 911.809C2607.72 912.211 2607.23 912.415 2606.64 912.419C2606.05 912.423 2605.57 912.226 2605.2 911.829C2604.79 911.432 2604.59 910.953 2604.59 910.393C2604.58 909.833 2604.78 909.352 2605.18 908.949C2605.55 908.546 2606.02 908.343 2606.61 908.339C2607.2 908.335 2607.69 908.531 2608.1 908.929C2608.5 909.326 2608.7 909.804 2608.71 910.364ZM2612.82 908.936L2634.65 908.783L2634.67 911.583L2612.83 911.736L2612.82 908.936ZM2612.3 892.358C2612.28 889.745 2613.08 887.606 2614.69 885.941C2616.28 884.277 2618.61 883.434 2621.68 883.413L2634.48 883.323L2634.5 886.083L2622.02 886.17C2619.64 886.187 2617.83 886.8 2616.59 888.008C2615.34 889.19 2614.73 890.808 2614.74 892.861C2614.76 894.968 2615.44 896.643 2616.78 897.887C2618.12 899.131 2620.08 899.744 2622.67 899.726L2634.59 899.643L2634.61 902.443L2612.77 902.595L2612.75 899.795L2616.47 899.769C2615.13 899.085 2614.11 898.093 2613.41 896.791C2612.68 895.489 2612.31 894.012 2612.3 892.358ZM2614.31 848.414C2616.71 848.397 2618.65 849.171 2620.13 850.734C2621.61 852.297 2622.36 854.652 2622.38 857.798L2622.42 863.438L2634.34 863.355L2634.36 866.155L2606.4 866.35L2606.34 857.91C2606.32 854.79 2607.03 852.438 2608.49 850.855C2609.95 849.245 2611.89 848.431 2614.31 848.414ZM2619.98 857.815C2619.95 853.442 2618.07 851.268 2614.33 851.294C2612.47 851.307 2611.06 851.837 2610.1 852.884C2609.15 853.93 2608.68 855.6 2608.7 857.894L2608.74 863.533L2620.02 863.455L2619.98 857.815ZM2616.22 840.903C2614.86 840.299 2613.8 839.373 2613.04 838.125C2612.29 836.85 2611.9 835.293 2611.89 833.453L2614.81 833.432L2614.81 834.192C2614.83 836.219 2615.39 837.842 2616.49 839.061C2617.59 840.28 2619.42 840.88 2621.98 840.862L2634.18 840.777L2634.2 843.577L2612.36 843.73L2612.34 840.93L2616.22 840.903ZM2621.92 809.41C2622.88 809.403 2623.61 809.425 2624.12 809.475L2624.25 827.594C2625.9 827.503 2627.31 827.093 2628.48 826.365C2629.65 825.636 2630.53 824.683 2631.14 823.506C2631.72 822.329 2632 821.046 2631.99 819.66C2631.98 817.847 2631.53 816.33 2630.64 815.109C2629.75 813.862 2628.56 813.044 2627.06 812.654L2627.04 809.694C2629.18 810.213 2630.94 811.347 2632.31 813.098C2633.65 814.821 2634.33 817.003 2634.35 819.643C2634.37 821.697 2633.93 823.54 2633.03 825.173C2632.11 826.806 2630.81 828.095 2629.14 829.04C2627.44 829.959 2625.45 830.426 2623.19 830.442C2620.92 830.457 2618.93 830.018 2617.22 829.123C2615.51 828.228 2614.19 826.971 2613.27 825.351C2612.35 823.73 2611.89 821.88 2611.87 819.8C2611.86 817.72 2612.3 815.904 2613.2 814.351C2614.09 812.771 2615.31 811.563 2616.85 810.725C2618.36 809.861 2620.05 809.423 2621.92 809.41ZM2621.86 812.25C2620.23 812.235 2618.85 812.578 2617.71 813.279C2616.57 813.954 2615.71 814.88 2615.13 816.057C2614.55 817.235 2614.26 818.517 2614.27 819.903C2614.29 821.983 2614.97 823.752 2616.31 825.209C2617.65 826.667 2619.54 827.467 2621.97 827.61L2621.86 812.25ZM2614.42 800.699L2627.98 800.605C2629.31 800.595 2630.23 800.336 2630.73 799.825C2631.24 799.315 2631.48 798.42 2631.48 797.14L2631.46 794.58L2633.86 794.563L2633.88 797.563C2633.89 799.537 2633.45 801.006 2632.55 801.973C2631.62 802.939 2630.11 803.43 2628 803.445L2614.44 803.539L2614.46 806.579L2612.1 806.595L2612.08 803.556L2606.6 803.594L2606.58 800.754L2612.06 800.716L2612.02 794.716L2614.38 794.699L2614.42 800.699ZM2634.08 780.384C2634.09 782.437 2633.65 784.293 2632.76 785.953C2631.84 787.586 2630.54 788.889 2628.87 789.86C2627.17 790.806 2625.18 791.286 2622.92 791.302C2620.65 791.318 2618.67 790.851 2616.99 789.903C2615.27 788.955 2613.96 787.658 2613.04 786.011C2612.09 784.364 2611.61 782.514 2611.6 780.461C2611.58 778.407 2612.04 776.551 2612.96 774.891C2613.86 773.205 2615.15 771.889 2616.85 770.944C2618.53 769.972 2620.5 769.478 2622.76 769.462C2625 769.447 2626.98 769.913 2628.69 770.861C2630.41 771.809 2631.74 773.12 2632.68 774.793C2633.6 776.467 2634.06 778.33 2634.08 780.384ZM2631.64 780.401C2631.63 778.961 2631.3 777.63 2630.65 776.408C2629.98 775.186 2628.98 774.206 2627.67 773.468C2626.33 772.704 2624.7 772.329 2622.78 772.342C2620.86 772.356 2619.25 772.74 2617.95 773.496C2616.62 774.252 2615.64 775.246 2615.01 776.477C2614.35 777.708 2614.03 779.044 2614.04 780.483C2614.05 781.923 2614.39 783.254 2615.07 784.476C2615.72 785.699 2616.71 786.678 2618.05 787.416C2619.36 788.127 2620.98 788.475 2622.9 788.462C2624.82 788.449 2626.44 788.077 2627.77 787.348C2629.07 786.592 2630.05 785.612 2630.71 784.407C2631.34 783.176 2631.65 781.841 2631.64 780.401ZM2615.67 761.608C2614.3 761.004 2613.24 760.078 2612.49 758.83C2611.73 757.555 2611.35 755.998 2611.34 754.158L2614.26 754.137L2614.26 754.897C2614.28 756.924 2614.83 758.547 2615.93 759.766C2617.04 760.985 2618.87 761.585 2621.43 761.567L2633.63 761.482L2633.65 764.282L2611.81 764.435L2611.79 761.635L2615.67 761.608ZM2607.58 748.572C2607.58 749.132 2607.38 749.613 2606.99 750.016C2606.59 750.418 2606.1 750.622 2605.51 750.626C2604.92 750.63 2604.44 750.433 2604.07 750.036C2603.66 749.639 2603.46 749.16 2603.46 748.6C2603.45 748.04 2603.65 747.559 2604.05 747.156C2604.42 746.754 2604.9 746.55 2605.48 746.546C2606.07 746.542 2606.56 746.739 2606.97 747.136C2607.37 747.533 2607.57 748.012 2607.58 748.572ZM2611.69 747.143L2633.53 746.991L2633.55 749.79L2611.71 749.943L2611.69 747.143ZM2622.53 742.006C2620.29 742.022 2618.33 741.596 2616.64 740.727C2614.93 739.833 2613.61 738.602 2612.7 737.035C2611.75 735.441 2611.27 733.645 2611.26 731.645C2611.24 729.565 2611.71 727.775 2612.66 726.275C2613.61 724.748 2614.83 723.646 2616.32 722.969L2611.52 723.003L2611.5 720.203L2633.34 720.051L2633.36 722.85L2628.52 722.884C2630.02 723.567 2631.26 724.665 2632.26 726.178C2633.23 727.665 2633.72 729.448 2633.74 731.528C2633.75 733.501 2633.3 735.291 2632.38 736.898C2631.45 738.477 2630.14 739.727 2628.44 740.645C2626.74 741.537 2624.77 741.991 2622.53 742.006ZM2622.44 722.927C2620.68 722.939 2619.13 723.31 2617.81 724.039C2616.48 724.768 2615.46 725.762 2614.75 727.02C2614.04 728.252 2613.68 729.615 2613.7 731.108C2613.71 732.654 2614.06 734.039 2614.76 735.26C2615.47 736.482 2616.49 737.449 2617.82 738.159C2619.14 738.843 2620.7 739.179 2622.51 739.167C2624.3 739.154 2625.87 738.796 2627.22 738.094C2628.55 737.364 2629.57 736.384 2630.28 735.152C2630.97 733.921 2631.31 732.532 2631.29 730.985C2631.28 729.492 2630.91 728.134 2630.19 726.913C2629.46 725.664 2628.42 724.685 2627.09 723.974C2625.75 723.264 2624.2 722.914 2622.44 722.927Z" fill="#FFA33D"/>
<line x1="1553.99" y1="1375.52" x2="1827.99" y2="1372.5" stroke="#FFD16A"/>
<line x1="766.994" y1="1378.52" x2="1040.99" y2="1375.5" stroke="#FFD16A"/>
</g>
<defs>
<clipPath id="clip0_1298_2892">
<rect width="2679" height="1697" fill="white"/>
</clipPath>
</defs>
</svg>
