<svg width="2679" height="1697" viewBox="0 0 2679 1697" fill="none" xmlns="http://www.w3.org/2000/svg">
<g clip-path="url(#clip0_1298_2892)">
<rect width="2679" height="1697" fill="#C7D9E5"/>
<rect x="1339" width="1340" height="1697" fill="#577C8E"/>
<path d="M2587.36 1464.71C2583.83 1465.98 2580.99 1468.18 2578.83 1471.3C2576.62 1474.37 2575.52 1478.03 2575.51 1482.27C2575.51 1485.79 2576.34 1488.99 2578.02 1491.88C2579.66 1494.76 2582.03 1497.04 2585.15 1498.73C2588.23 1500.37 2591.83 1501.2 2595.95 1501.2C2600.07 1501.21 2603.69 1500.39 2606.81 1498.76C2609.89 1497.08 2612.28 1494.8 2613.96 1491.93C2615.6 1489.05 2616.43 1485.85 2616.43 1482.33C2616.44 1478.89 2615.64 1475.75 2614.05 1472.91C2612.45 1470.02 2610.15 1467.72 2607.15 1466C2604.12 1464.27 2600.6 1463.37 2596.6 1463.28L2596.57 1483.2L2595.49 1483.2L2595.52 1462.14L2596 1462.14C2600.16 1462.15 2603.88 1463.01 2607.16 1464.74C2610.43 1466.46 2612.99 1468.86 2614.83 1471.95C2616.62 1474.99 2617.52 1478.45 2617.51 1482.33C2617.51 1486.21 2616.6 1489.69 2614.8 1492.77C2612.95 1495.8 2610.39 1498.18 2607.11 1499.9C2603.83 1501.61 2600.1 1502.47 2595.94 1502.46C2591.78 1502.46 2588.07 1501.59 2584.79 1499.87C2581.51 1498.14 2578.97 1495.76 2577.18 1492.72C2575.34 1489.63 2574.43 1486.15 2574.43 1482.27C2574.44 1477.71 2575.6 1473.81 2577.93 1470.58C2580.25 1467.34 2583.4 1464.98 2587.36 1463.51L2587.36 1464.71ZM2576.39 1452.81C2576.39 1453.25 2576.25 1453.63 2575.97 1453.95C2575.65 1454.23 2575.25 1454.37 2574.77 1454.37C2574.29 1454.37 2573.91 1454.23 2573.63 1453.95C2573.31 1453.63 2573.15 1453.25 2573.15 1452.81C2573.15 1452.37 2573.31 1452.01 2573.63 1451.73C2573.91 1451.41 2574.29 1451.25 2574.77 1451.25C2575.25 1451.25 2575.65 1451.41 2575.97 1451.73C2576.25 1452.01 2576.39 1452.37 2576.39 1452.81ZM2584.67 1452.23L2617.07 1452.27L2617.07 1453.47L2584.67 1453.43L2584.67 1452.23ZM2585.89 1439.42L2608.57 1439.45C2610.53 1439.46 2612.03 1439.24 2613.07 1438.8C2614.11 1438.36 2614.85 1437.66 2615.29 1436.7C2615.7 1435.74 2615.9 1434.4 2615.9 1432.68L2615.91 1429.26L2617.11 1429.26L2617.1 1432.8C2617.1 1435.6 2616.45 1437.62 2615.17 1438.86C2613.89 1440.06 2611.69 1440.66 2608.57 1440.65L2585.89 1440.62L2585.88 1445.9L2584.68 1445.9L2584.69 1440.62L2576.41 1440.61L2576.41 1439.41L2584.69 1439.42L2584.71 1429.22L2585.91 1429.22L2585.89 1439.42ZM2584.01 1407.81C2584.02 1404.01 2585.2 1400.89 2587.57 1398.45C2589.93 1396.01 2593.49 1394.8 2598.25 1394.81L2617.15 1394.83L2617.15 1395.97L2598.13 1395.94C2593.89 1395.94 2590.67 1396.99 2588.47 1399.11C2586.22 1401.23 2585.1 1404.13 2585.09 1407.81C2585.09 1411.65 2586.34 1414.73 2588.86 1417.05C2591.34 1419.38 2595.02 1420.54 2599.9 1420.55L2617.12 1420.57L2617.12 1421.77L2572.72 1421.71L2572.72 1420.51L2593.24 1420.54C2590.24 1419.77 2587.96 1418.25 2586.4 1415.97C2584.81 1413.69 2584.01 1410.97 2584.01 1407.81ZM2584.8 1358.23L2617.2 1358.28L2617.2 1359.48L2608.38 1359.46C2611.46 1360.19 2613.8 1361.71 2615.39 1364.03C2616.99 1366.32 2617.79 1369.04 2617.78 1372.2C2617.78 1376 2616.59 1379.11 2614.23 1381.55C2611.87 1383.99 2608.31 1385.2 2603.55 1385.2L2584.77 1385.17L2584.77 1384.03L2603.67 1384.06C2607.91 1384.06 2611.15 1383.01 2613.39 1380.89C2615.59 1378.77 2616.7 1375.87 2616.7 1372.19C2616.71 1368.35 2615.47 1365.27 2613 1362.95C2610.48 1360.63 2606.78 1359.46 2601.9 1359.45L2584.8 1359.43L2584.8 1358.23ZM2594.72 1346.89C2591.68 1345.89 2589.2 1344.12 2587.29 1341.6C2585.37 1339.08 2584.41 1335.96 2584.42 1332.24C2584.42 1329.16 2585.11 1326.42 2586.47 1324.02C2587.79 1321.62 2589.71 1319.76 2592.24 1318.45C2594.72 1317.13 2597.66 1316.47 2601.06 1316.48C2604.46 1316.48 2607.42 1317.15 2609.94 1318.47C2612.41 1319.79 2614.33 1321.66 2615.69 1324.06C2617.01 1326.46 2617.66 1329.2 2617.66 1332.28C2617.65 1336 2616.69 1339.14 2614.76 1341.7C2612.84 1344.25 2610.36 1345.99 2607.32 1346.91L2617.22 1346.92L2617.22 1348.06L2572.82 1348L2572.82 1346.86L2594.72 1346.89ZM2601.06 1317.68C2597.86 1317.67 2595.1 1318.27 2592.78 1319.47C2590.41 1320.66 2588.61 1322.36 2587.37 1324.56C2586.13 1326.72 2585.5 1329.28 2585.5 1332.24C2585.49 1335.04 2586.15 1337.56 2587.47 1339.8C2588.74 1342 2590.56 1343.74 2592.92 1345.03C2595.24 1346.27 2597.94 1346.89 2601.02 1346.9C2604.1 1346.9 2606.82 1346.29 2609.18 1345.05C2611.5 1343.77 2613.32 1342.03 2614.65 1339.84C2615.93 1337.6 2616.57 1335.08 2616.58 1332.28C2616.58 1329.32 2615.97 1326.76 2614.73 1324.6C2613.49 1322.39 2611.71 1320.69 2609.4 1319.49C2607.04 1318.29 2604.26 1317.68 2601.06 1317.68ZM2575.12 1243.31L2617.34 1254.7L2617.34 1255.9L2577.07 1268.39L2617.31 1280.98L2617.31 1282.06L2575.05 1293.35L2575.05 1292.03L2614.97 1281.46L2575.08 1269.05L2575.09 1267.73L2615.18 1255.3L2575.12 1244.63L2575.12 1243.31ZM2616.73 1222.05C2616.73 1218.41 2615.82 1215.34 2613.98 1212.86C2612.14 1210.38 2609.63 1208.88 2606.43 1208.35L2606.43 1207.15C2609.83 1207.72 2612.59 1209.32 2614.7 1211.96C2616.78 1214.57 2617.81 1217.93 2617.81 1222.05C2617.8 1225.05 2617.14 1227.73 2615.82 1230.08C2614.49 1232.44 2612.57 1234.3 2610.05 1235.66C2607.53 1236.97 2604.57 1237.63 2601.17 1237.62C2597.77 1237.62 2594.81 1236.96 2592.29 1235.63C2589.77 1234.27 2587.85 1232.41 2586.54 1230.04C2585.22 1227.68 2584.56 1225 2584.57 1222C2584.57 1218.84 2585.26 1216.14 2586.62 1213.9C2587.94 1211.67 2589.67 1209.99 2591.79 1208.87C2593.91 1207.71 2596.15 1207.14 2598.51 1207.14C2599.95 1207.14 2601.03 1207.16 2601.75 1207.2L2601.71 1236.42C2605.03 1236.39 2607.81 1235.71 2610.05 1234.4C2612.29 1233.04 2613.98 1231.28 2615.1 1229.12C2616.18 1226.96 2616.73 1224.61 2616.73 1222.05ZM2585.65 1222C2585.65 1224.56 2586.2 1226.92 2587.32 1229.08C2588.4 1231.25 2590.05 1233.01 2592.29 1234.37C2594.53 1235.69 2597.31 1236.38 2600.63 1236.42L2600.67 1208.22C2597.35 1208.02 2594.57 1208.55 2592.33 1209.83C2590.08 1211.07 2588.42 1212.79 2587.34 1214.98C2586.22 1217.14 2585.65 1219.48 2585.65 1222ZM2594.92 1197.3C2591.88 1196.3 2589.41 1194.53 2587.49 1192.01C2585.57 1189.49 2584.62 1186.37 2584.62 1182.65C2584.63 1179.57 2585.31 1176.83 2586.67 1174.43C2588 1172.03 2589.92 1170.17 2592.44 1168.86C2594.92 1167.54 2597.86 1166.88 2601.26 1166.89C2604.66 1166.89 2607.62 1167.56 2610.14 1168.88C2612.62 1170.2 2614.54 1172.07 2615.89 1174.47C2617.21 1176.87 2617.87 1179.61 2617.86 1182.69C2617.86 1186.41 2616.89 1189.55 2614.97 1192.11C2613.05 1194.66 2610.56 1196.4 2607.52 1197.32L2617.42 1197.33L2617.42 1198.47L2573.02 1198.41L2573.02 1197.27L2594.92 1197.3ZM2601.26 1168.09C2598.06 1168.08 2595.3 1168.68 2592.98 1169.88C2590.62 1171.07 2588.82 1172.77 2587.57 1174.97C2586.33 1177.13 2585.71 1179.69 2585.7 1182.65C2585.7 1185.45 2586.36 1187.97 2587.67 1190.21C2588.95 1192.41 2590.77 1194.15 2593.13 1195.44C2595.44 1196.68 2598.14 1197.3 2601.22 1197.31C2604.3 1197.31 2607.02 1196.7 2609.39 1195.46C2611.71 1194.18 2613.53 1192.45 2614.85 1190.25C2616.14 1188.01 2616.78 1185.49 2616.78 1182.69C2616.79 1179.73 2616.17 1177.17 2614.93 1175.01C2613.7 1172.81 2611.92 1171.1 2609.6 1169.9C2607.24 1168.7 2604.46 1168.09 2601.26 1168.09ZM2617.91 1147.78C2617.91 1151.34 2617.18 1154.22 2615.74 1156.41C2614.3 1158.57 2612.11 1159.83 2609.19 1160.19L2609.2 1158.99C2611.6 1158.75 2613.48 1157.69 2614.84 1155.81C2616.16 1153.89 2616.83 1151.2 2616.83 1147.72C2616.83 1145.96 2616.5 1144.42 2615.82 1143.09C2615.14 1141.73 2614.24 1140.69 2613.12 1139.97C2611.96 1139.25 2610.72 1138.89 2609.4 1138.89C2607.96 1138.88 2606.8 1139.3 2605.92 1140.14C2605 1140.94 2604.3 1141.96 2603.82 1143.2C2603.34 1144.4 2602.81 1146.06 2602.25 1148.18C2601.65 1150.53 2601.04 1152.45 2600.44 1153.93C2599.84 1155.37 2598.92 1156.61 2597.68 1157.65C2596.44 1158.65 2594.79 1159.15 2592.75 1159.14C2591.31 1159.14 2589.98 1158.7 2588.74 1157.82C2587.5 1156.94 2586.52 1155.73 2585.8 1154.21C2585.04 1152.65 2584.67 1150.91 2584.67 1148.99C2584.67 1145.71 2585.5 1143.07 2587.14 1141.07C2588.78 1139.08 2591.06 1138 2593.98 1137.84L2593.98 1139.04C2591.58 1139.16 2589.62 1140.08 2588.1 1141.8C2586.54 1143.47 2585.75 1145.87 2585.75 1148.99C2585.75 1150.67 2586.06 1152.19 2586.7 1153.55C2587.34 1154.92 2588.2 1156 2589.28 1156.8C2590.36 1157.56 2591.52 1157.94 2592.76 1157.94C2594.52 1157.95 2595.94 1157.49 2597.02 1156.57C2598.1 1155.65 2598.9 1154.53 2599.42 1153.21C2599.94 1151.85 2600.51 1150.05 2601.11 1147.81C2601.75 1145.53 2602.34 1143.76 2602.86 1142.48C2603.38 1141.16 2604.18 1140.04 2605.26 1139.12C2606.3 1138.2 2607.68 1137.74 2609.4 1137.75C2611 1137.75 2612.46 1138.19 2613.78 1139.07C2615.06 1139.95 2616.08 1141.15 2616.84 1142.68C2617.56 1144.2 2617.91 1145.9 2617.91 1147.78ZM2576.84 1128.56C2576.84 1129 2576.7 1129.38 2576.42 1129.7C2576.09 1129.98 2575.69 1130.12 2575.21 1130.11C2574.73 1130.11 2574.35 1129.97 2574.08 1129.69C2573.76 1129.37 2573.6 1128.99 2573.6 1128.55C2573.6 1128.11 2573.76 1127.75 2574.08 1127.47C2574.36 1127.15 2574.74 1126.99 2575.22 1126.99C2575.7 1127 2576.1 1127.16 2576.42 1127.48C2576.7 1127.76 2576.84 1128.12 2576.84 1128.56ZM2585.12 1127.97L2617.52 1128.01L2617.52 1129.21L2585.12 1129.17L2585.12 1127.97ZM2586.34 1115.16L2609.02 1115.2C2610.98 1115.2 2612.48 1114.98 2613.52 1114.54C2614.56 1114.1 2615.3 1113.4 2615.74 1112.44C2616.14 1111.48 2616.34 1110.15 2616.34 1108.43L2616.35 1105.01L2617.55 1105.01L2617.54 1108.55C2617.54 1111.35 2616.9 1113.37 2615.62 1114.6C2614.33 1115.8 2612.13 1116.4 2609.01 1116.4L2586.33 1116.36L2586.33 1121.64L2585.13 1121.64L2585.13 1116.36L2576.85 1116.35L2576.86 1115.15L2585.14 1115.16L2585.15 1104.96L2586.35 1104.96L2586.34 1115.16ZM2616.92 1083.41C2616.92 1079.77 2616.01 1076.71 2614.17 1074.23C2612.33 1071.75 2609.82 1070.24 2606.62 1069.72L2606.62 1068.52C2610.02 1069.08 2612.78 1070.69 2614.89 1073.33C2616.97 1075.93 2618 1079.29 2618 1083.41C2617.99 1086.41 2617.33 1089.09 2616.01 1091.45C2614.68 1093.81 2612.76 1095.67 2610.24 1097.02C2607.72 1098.34 2604.76 1099 2601.36 1098.99C2597.96 1098.99 2595 1098.32 2592.48 1097C2589.96 1095.64 2588.04 1093.77 2586.73 1091.41C2585.41 1089.05 2584.75 1086.37 2584.76 1083.37C2584.76 1080.21 2585.45 1077.51 2586.81 1075.27C2588.13 1073.03 2589.86 1071.36 2591.98 1070.24C2594.1 1069.08 2596.34 1068.5 2598.7 1068.51C2600.14 1068.51 2601.22 1068.53 2601.94 1068.57L2601.9 1097.79C2605.22 1097.76 2608 1097.08 2610.24 1095.76C2612.48 1094.41 2614.17 1092.65 2615.29 1090.49C2616.37 1088.33 2616.92 1085.97 2616.92 1083.41ZM2585.84 1083.37C2585.84 1085.93 2586.39 1088.29 2587.51 1090.45C2588.59 1092.61 2590.24 1094.38 2592.48 1095.74C2594.72 1097.06 2597.5 1097.75 2600.82 1097.79L2600.86 1069.59C2597.54 1069.39 2594.76 1069.92 2592.52 1071.2C2590.27 1072.44 2588.61 1074.15 2587.53 1076.35C2586.41 1078.51 2585.84 1080.85 2585.84 1083.37ZM2587.07 1018.21C2590.95 1018.22 2593.85 1019.36 2595.76 1021.65C2597.68 1023.93 2598.64 1027.29 2598.63 1031.73L2598.62 1041.21L2617.64 1041.24L2617.63 1042.44L2575.39 1042.38L2575.41 1031.7C2575.42 1027.06 2576.44 1023.66 2578.48 1021.5C2580.53 1019.3 2583.39 1018.21 2587.07 1018.21ZM2597.37 1031.73C2597.38 1027.41 2596.48 1024.29 2594.68 1022.36C2592.88 1020.4 2590.35 1019.42 2587.07 1019.41C2583.63 1019.41 2581.02 1020.37 2579.26 1022.28C2577.5 1024.2 2576.62 1027.34 2576.61 1031.7L2576.6 1041.18L2597.36 1041.21L2597.37 1031.73ZM2618.12 996.397C2618.11 999.397 2617.45 1002.1 2616.13 1004.49C2614.76 1006.89 2612.84 1008.79 2610.36 1010.19C2607.84 1011.54 2604.88 1012.22 2601.48 1012.21C2598.08 1012.21 2595.14 1011.53 2592.66 1010.16C2590.14 1008.76 2588.22 1006.86 2586.91 1004.45C2585.55 1002.05 2584.87 999.351 2584.88 996.351C2584.88 993.351 2585.57 990.652 2586.93 988.254C2588.25 985.856 2590.17 983.979 2592.7 982.622C2595.18 981.265 2598.12 980.589 2601.52 980.594C2604.92 980.599 2607.88 981.283 2610.4 982.646C2612.87 984.01 2614.79 985.892 2616.15 988.294C2617.47 990.696 2618.12 993.397 2618.12 996.397ZM2617.04 996.395C2617.04 993.795 2616.48 991.395 2615.37 989.193C2614.21 986.991 2612.47 985.209 2610.15 983.846C2607.84 982.483 2604.96 981.799 2601.52 981.794C2598.08 981.789 2595.2 982.465 2592.87 983.822C2590.55 985.179 2588.83 986.957 2587.71 989.155C2586.54 991.354 2585.96 993.753 2585.96 996.353C2585.95 998.953 2586.53 1001.37 2587.69 1003.62C2588.8 1005.82 2590.54 1007.6 2592.9 1008.96C2595.22 1010.33 2598.08 1011.01 2601.48 1011.01C2604.88 1011.02 2607.76 1010.34 2610.12 1008.99C2612.44 1007.63 2614.18 1005.85 2615.35 1003.65C2616.47 1001.41 2617.03 998.995 2617.04 996.395ZM2593.19 970.655C2587.47 969.367 2584.62 965.103 2584.63 957.863L2585.95 957.865L2585.95 958.405C2585.95 961.805 2586.94 964.706 2588.94 967.109C2590.89 969.472 2594.07 970.656 2598.47 970.662L2617.73 970.689L2617.73 971.889L2585.33 971.844L2585.33 970.644L2593.19 970.655ZM2586.56 948.992L2609.24 949.023C2611.2 949.026 2612.7 948.808 2613.74 948.37C2614.78 947.931 2615.52 947.232 2615.97 946.273C2616.37 945.313 2616.57 943.974 2616.57 942.254L2616.58 938.834L2617.78 938.835L2617.77 942.375C2617.77 945.175 2617.13 947.194 2615.84 948.433C2614.56 949.631 2612.36 950.228 2609.24 950.223L2586.56 950.192L2586.55 955.472L2585.35 955.471L2585.36 950.191L2577.08 950.179L2577.08 948.979L2585.36 948.991L2585.38 938.791L2586.58 938.792L2586.56 948.992ZM2574.6 919.403C2574.6 922.883 2575.27 925.304 2576.63 926.665C2577.95 928.027 2580.11 928.71 2583.11 928.714L2585.39 928.717L2585.4 919.417L2586.66 919.419L2586.65 928.719L2617.79 928.762L2617.79 929.962L2586.65 929.919L2586.64 935.199L2585.38 935.197L2585.39 929.917L2583.11 929.914C2579.83 929.91 2577.39 929.106 2575.79 927.504C2574.19 925.902 2573.4 923.201 2573.4 919.401L2574.6 919.403ZM2618.25 897.901C2618.25 900.901 2617.58 903.6 2616.26 905.998C2614.9 908.396 2612.98 910.294 2610.49 911.69C2607.97 913.047 2605.01 913.723 2601.61 913.718C2598.21 913.713 2595.27 913.029 2592.79 911.666C2590.28 910.262 2588.36 908.36 2587.04 905.958C2585.68 903.556 2585.01 900.855 2585.01 897.855C2585.02 894.855 2585.7 892.156 2587.06 889.758C2588.39 887.36 2590.31 885.483 2592.83 884.126C2595.31 882.769 2598.25 882.093 2601.65 882.098C2605.05 882.103 2608.01 882.787 2610.53 884.15C2613.01 885.514 2614.93 887.396 2616.28 889.798C2617.6 892.2 2618.26 894.901 2618.25 897.901ZM2617.17 897.899C2617.18 895.299 2616.62 892.899 2615.5 890.697C2614.35 888.495 2612.61 886.713 2610.29 885.35C2607.97 883.987 2605.09 883.303 2601.65 883.298C2598.21 883.293 2595.33 883.969 2593.01 885.326C2590.69 886.683 2588.97 888.461 2587.84 890.659C2586.68 892.858 2586.1 895.257 2586.09 897.857C2586.09 900.457 2586.67 902.878 2587.82 905.119C2588.94 907.321 2590.68 909.103 2593.04 910.466C2595.35 911.829 2598.21 912.513 2601.61 912.518C2605.01 912.523 2607.89 911.847 2610.26 910.49C2612.58 909.133 2614.32 907.355 2615.48 905.157C2616.61 902.919 2617.17 900.499 2617.17 897.899ZM2573.47 872.132L2617.87 872.193L2617.87 873.393L2573.47 873.332L2573.47 872.132ZM2577.2 861.311C2577.2 861.751 2577.06 862.131 2576.78 862.451C2576.46 862.73 2576.06 862.87 2575.58 862.869C2575.1 862.868 2574.72 862.728 2574.44 862.447C2574.12 862.127 2573.96 861.747 2573.96 861.307C2573.96 860.867 2574.12 860.507 2574.44 860.227C2574.72 859.908 2575.1 859.748 2575.58 859.749C2576.06 859.75 2576.46 859.91 2576.78 860.231C2577.06 860.511 2577.2 860.871 2577.2 861.311ZM2585.48 860.722L2617.88 860.767L2617.88 861.967L2585.48 861.922L2585.48 860.722ZM2618.34 836.202C2618.33 839.202 2617.67 841.901 2616.35 844.299C2614.98 846.697 2613.06 848.594 2610.58 849.991C2608.06 851.348 2605.1 852.024 2601.7 852.019C2598.3 852.014 2595.36 851.33 2592.88 849.967C2590.36 848.563 2588.44 846.661 2587.13 844.259C2585.77 841.857 2585.09 839.156 2585.1 836.156C2585.1 833.156 2585.78 830.457 2587.15 828.059C2588.47 825.661 2590.39 823.783 2592.92 822.427C2595.4 821.07 2598.34 820.394 2601.74 820.399C2605.14 820.404 2608.1 821.088 2610.62 822.451C2613.09 823.814 2615.01 825.697 2616.37 828.099C2617.68 830.501 2618.34 833.202 2618.34 836.202ZM2617.26 836.2C2617.26 833.6 2616.7 831.199 2615.59 828.998C2614.43 826.796 2612.69 825.014 2610.37 823.651C2608.06 822.288 2605.18 821.604 2601.74 821.599C2598.3 821.594 2595.42 822.27 2593.09 823.627C2590.77 824.984 2589.05 826.762 2587.93 828.96C2586.76 831.158 2586.18 833.558 2586.18 836.158C2586.17 838.758 2586.75 841.178 2587.91 843.42C2589.02 845.621 2590.76 847.404 2593.12 848.767C2595.44 850.13 2598.3 850.814 2601.7 850.819C2605.1 850.824 2607.98 850.147 2610.34 848.791C2612.66 847.434 2614.4 845.656 2615.57 843.458C2616.69 841.219 2617.25 838.8 2617.26 836.2ZM2618.09 795.911C2618.09 796.351 2617.95 796.731 2617.67 797.051C2617.35 797.33 2616.95 797.47 2616.47 797.469C2615.99 797.468 2615.61 797.328 2615.33 797.047C2615.01 796.727 2614.85 796.347 2614.85 795.907C2614.85 795.467 2615.01 795.107 2615.33 794.827C2615.61 794.508 2615.99 794.348 2616.47 794.349C2616.95 794.35 2617.35 794.51 2617.67 794.831C2617.95 795.111 2618.09 795.471 2618.09 795.911Z" fill="white"/>
<path d="M1812.95 966.345C1812.9 961.511 1813.21 956.795 1813.9 952.198C1814.63 947.6 1815.85 943.265 1817.57 939.194C1819.28 935.122 1821.56 931.387 1824.4 927.987C1827.3 924.586 1830.88 921.642 1835.15 919.155C1839.42 916.668 1844.45 914.733 1850.25 913.353C1856.05 911.923 1862.75 911.167 1870.37 911.086C1877.94 911.004 1884.63 911.616 1890.46 912.921C1896.28 914.176 1901.36 916.002 1905.68 918.397C1910 920.792 1913.62 923.658 1916.54 926.996C1919.45 930.334 1921.81 934.02 1923.62 938.054C1925.42 942.087 1926.71 946.395 1927.49 950.977C1928.32 955.558 1928.76 960.265 1928.81 965.099C1928.87 969.933 1928.53 974.673 1927.79 979.32C1927.11 983.917 1925.91 988.252 1924.2 992.323C1922.48 996.395 1920.21 1000.13 1917.36 1003.53C1914.52 1006.93 1910.96 1009.87 1906.69 1012.36C1902.42 1014.85 1897.38 1016.78 1891.59 1018.16C1885.79 1019.59 1879.11 1020.35 1871.54 1020.43C1863.98 1020.51 1857.26 1019.9 1851.38 1018.6C1845.56 1017.34 1840.48 1015.51 1836.16 1013.12C1831.84 1010.72 1828.19 1007.86 1825.23 1004.52C1822.31 1001.18 1819.95 997.497 1818.15 993.463C1816.35 989.43 1815.03 985.122 1814.2 980.541C1813.42 975.959 1813 971.227 1812.95 966.345ZM1871.49 1015.38C1874.03 1015.35 1876.05 1014.57 1877.54 1013.04C1879.09 1011.51 1880.26 1008.86 1881.05 1005.09C1881.84 1001.28 1882.32 996.192 1882.49 989.842C1882.72 983.442 1882.78 975.36 1882.67 965.595C1882.57 955.879 1882.34 947.849 1881.98 941.505C1881.66 935.111 1881.07 930.039 1880.2 926.288C1879.33 922.489 1878.1 919.841 1876.53 918.344C1875 916.847 1872.96 916.112 1870.42 916.139C1867.83 916.167 1865.77 916.946 1864.22 918.476C1862.72 920.006 1861.58 922.68 1860.79 926.497C1860 930.265 1859.5 935.349 1859.27 941.749C1859.1 948.099 1859.06 956.132 1859.16 965.848C1859.27 975.613 1859.48 983.692 1859.79 990.086C1860.15 996.43 1860.77 1001.5 1861.64 1005.3C1862.51 1009.05 1863.71 1011.68 1865.24 1013.17C1866.82 1014.67 1868.9 1015.4 1871.49 1015.38ZM1943.96 1011.08L1956.85 1010.94L1955.93 925.621L1943.04 925.759L1942.98 919.974C1949.28 919.906 1954.91 919.162 1959.87 917.741C1964.84 916.32 1968.87 914.666 1971.98 912.777L2002.81 912.445L2003.87 1010.44L2016.61 1010.3L2016.67 1016.09L1944.02 1016.87L1943.96 1011.08Z" fill="white"/>
<rect x="278.5" y="99.5" width="1481" height="1498" stroke="#C7D9E5" stroke-width="3"/>
<rect x="1519.5" y="1127.5" width="866" height="944" stroke="#F4EFEB" stroke-width="3"/>
<rect x="154.5" y="298.5" width="974" height="1205" fill="#C7D9E5" stroke="#F4EFEB" stroke-width="5"/>
<path d="M156.979 191.027H165.831V127.658H156.979V123.735H207.825C212.184 123.735 216.241 124.003 219.996 124.54C223.751 125.042 227.02 125.965 229.803 127.306C232.586 128.613 234.765 130.407 236.341 132.687C237.951 134.933 238.755 137.783 238.755 141.237C238.755 144.053 238.185 146.484 237.045 148.529C235.939 150.541 234.195 152.217 231.815 153.559C229.434 154.866 226.35 155.855 222.561 156.526C218.806 157.196 214.296 157.549 209.032 157.582C211.882 157.616 214.715 157.716 217.532 157.884C220.348 158.018 223.03 158.303 225.579 158.739C228.127 159.175 230.491 159.812 232.67 160.65C234.849 161.455 236.744 162.528 238.353 163.869C239.962 165.176 241.22 166.802 242.125 168.747C243.03 170.692 243.483 173.005 243.483 175.688C243.483 179.51 242.762 182.678 241.32 185.193C239.879 187.674 237.8 189.652 235.084 191.127C232.368 192.569 229.032 193.575 225.076 194.145C221.153 194.715 216.677 195 211.647 195H156.979V191.027ZM200.482 156.023C201.991 156.023 203.399 155.839 204.707 155.47C206.015 155.101 207.155 154.397 208.127 153.357C209.099 152.285 209.854 150.809 210.39 148.932C210.96 147.021 211.245 144.556 211.245 141.539C211.245 138.521 210.96 136.09 210.39 134.246C209.854 132.402 209.099 130.977 208.127 129.971C207.155 128.932 206.015 128.244 204.707 127.909C203.399 127.54 201.991 127.356 200.482 127.356V156.023ZM200.482 191.027C202.326 191.027 203.919 190.876 205.26 190.574C206.601 190.239 207.708 189.585 208.58 188.613C209.485 187.64 210.155 186.249 210.591 184.438C211.027 182.594 211.245 180.164 211.245 177.146C211.245 171.111 210.357 166.719 208.58 163.969C206.836 161.186 204.137 159.795 200.482 159.795V191.027Z" fill="#577C8E"/>
</g>
<defs>
<clipPath id="clip0_1298_2892">
<rect width="2679" height="1697" fill="white"/>
</clipPath>
</defs>
</svg>
