<svg width="2679" height="1697" viewBox="0 0 2679 1697" fill="none" xmlns="http://www.w3.org/2000/svg">
<g clip-path="url(#clip0_1298_2892)">
<rect width="2679" height="1697" fill="#FFEABB"/>
<path d="M1981.41 273.701C2084.73 154.083 1898.46 41.393 1792.41 0H2729V1701H2093.23C2124.73 1695.42 2146.46 1644.44 1981.41 1485.08C1775.08 1285.89 1577.68 1468.86 1525.71 1186.54C1473.74 904.226 1878.51 1169.82 1981.41 896.117C2084.31 622.416 1611.81 821.609 1525.71 523.073C1439.61 224.536 1852.26 423.223 1981.41 273.701Z" fill="#F8445F" stroke="#F98D32" stroke-width="17"/>
<path d="M2058.41 273.701C2161.73 154.083 1975.46 41.393 1869.41 0H2806V1701H2170.23C2201.73 1695.42 2223.46 1644.44 2058.41 1485.08C1852.08 1285.89 1654.68 1468.86 1602.71 1186.54C1550.74 904.226 1955.51 1169.82 2058.41 896.117C2161.31 622.416 1688.81 821.609 1602.71 523.073C1516.61 224.536 1929.26 423.223 2058.41 273.701Z" fill="#F96BA7"/>
<path d="M591.5 563.5C590.25 546.25 594.75 528.75 599.25 511.5C603 497 607 482.5 608.25 467.5C609.25 455.75 610.25 444 611.75 432.5C612.5 426.5 613.75 421 617.75 415.75C624.25 407.25 632.75 406.75 641.25 409C656.75 413.25 668.75 422 674.75 437.5C679.75 450 678.5 462.25 675 474.75C673.75 479.5 672.5 484 671.25 488.75C670.5 492.25 672.5 496 676 496.25C680.5 496.75 685 496.75 689.25 496C699 494.25 702.75 486.75 703.5 478.25C704.5 468 703.75 457.75 703.75 447.75C703.75 437.75 706.75 429 713.25 421.5C718.75 415 732 412.25 740.25 414.25C749.75 416.75 757.25 422 762.25 430C768.5 440.25 770.5 451.5 769.25 463.25C767.5 476.75 765.75 490.5 763 503.75C759.5 521.5 759.75 539.25 760 557C760 567 761 577 760.5 586.75C760 598 756 608 745.5 614.25C739.75 617.5 733.5 620.25 726.75 619.5C717.75 618.25 710.25 614.25 704.25 607C695.75 597 692.5 585.25 690 573C688.5 566.25 688 559.5 687.25 552.5C686.5 545.75 682.5 541.75 675.75 541.75C674 541.5 672.25 541 670.5 541C668.5 541 665.75 540.75 665 542C664.25 543.25 664.75 546 665.25 547.75C667 551.75 669.25 555.5 670.75 559.5C675.5 570.5 678.5 581.75 675 593.5C674 597.25 671.25 601.25 668.5 604C661 611.75 652.25 617.25 641.25 619C623.5 621.5 609.75 616.75 600.25 601C593.5 589.75 591.25 577.5 591.5 563.5ZM775.152 570.75C775.402 556.5 779.152 542.75 782.902 529C785.902 517.5 789.152 505.75 788.152 493.5C787.652 487.5 786.402 481.5 785.652 475.75C784.152 464.25 785.652 453.75 790.652 443.25C793.902 436 798.652 430.25 804.652 425.25C809.652 421.25 815.902 420.25 821.902 419.5C826.902 419 832.152 418.75 837.152 418.75C847.652 418.25 854.152 427.5 853.152 437.5C851.902 448 850.402 458.75 850.152 469.25C849.902 483 853.902 496.25 857.902 509.25C863.402 526.75 866.402 544.5 866.652 562.5C867.152 580 858.402 599.5 838.152 608C821.402 615.25 805.152 613 789.902 604.5C783.152 600.75 778.902 594.5 777.402 587C776.152 581.75 775.902 576.25 775.152 570.75Z" fill="#F96BA7"/>
<path d="M1024.13 399.25C1030.13 415.25 1031.63 432 1030.38 446.25C1030.88 473 1029.13 496.75 1023.63 520.25C1020.88 531 1018.63 542 1016.13 553C1014.63 558.5 1012.13 564 1007.13 567.75C999.883 572.75 984.883 570 980.133 561.75C976.633 556.25 974.133 550 971.883 543.75C968.133 534 964.383 524 961.383 514C958.633 504.75 956.883 495 954.883 485.5C953.133 476.25 950.883 467 950.383 457.5C949.883 449.25 950.883 440.75 951.883 432.5C953.383 421.5 955.383 410.75 957.383 399.75C958.883 391.75 964.633 386.75 972.133 383C981.633 378.25 991.883 377.25 1002.13 379C1013.88 381 1020.38 389.25 1024.13 399.25ZM1015.63 591C1028.63 597.5 1034.63 612.5 1027.13 626.5C1022.88 634 1017.63 640.5 1009.13 643.75C996.633 648.25 978.133 647.75 969.133 638.5C963.883 633 962.133 626.5 961.633 619.5C961.883 609 966.883 600.75 975.133 594.5C987.633 584.75 1001.63 584 1015.63 591Z" fill="#F96BA7"/>
<path d="M291.42 716.3V758H284.58V729.44L271.86 758H267.12L254.34 729.44V758H247.5V716.3H254.88L269.52 749L284.1 716.3H291.42ZM330.17 724.94L309.89 773.54H302.81L309.53 757.46L296.51 724.94H304.13L313.43 750.14L323.09 724.94H330.17ZM367.598 724.4C370.198 724.4 372.518 724.94 374.558 726.02C376.638 727.1 378.258 728.7 379.418 730.82C380.578 732.94 381.158 735.5 381.158 738.5V758H374.378V739.52C374.378 736.56 373.638 734.3 372.158 732.74C370.678 731.14 368.658 730.34 366.098 730.34C363.538 730.34 361.498 731.14 359.978 732.74C358.498 734.3 357.758 736.56 357.758 739.52V758H350.918V724.94H357.758V728.72C358.878 727.36 360.298 726.3 362.018 725.54C363.778 724.78 365.638 724.4 367.598 724.4ZM387.603 741.32C387.603 738 388.283 735.06 389.643 732.5C391.043 729.94 392.923 727.96 395.283 726.56C397.683 725.12 400.323 724.4 403.203 724.4C405.803 724.4 408.063 724.92 409.983 725.96C411.943 726.96 413.503 728.22 414.663 729.74V724.94H421.563V758H414.663V753.08C413.503 754.64 411.923 755.94 409.923 756.98C407.923 758.02 405.643 758.54 403.083 758.54C400.243 758.54 397.643 757.82 395.283 756.38C392.923 754.9 391.043 752.86 389.643 750.26C388.283 747.62 387.603 744.64 387.603 741.32ZM414.663 741.44C414.663 739.16 414.183 737.18 413.223 735.5C412.303 733.82 411.083 732.54 409.563 731.66C408.043 730.78 406.403 730.34 404.643 730.34C402.883 730.34 401.243 730.78 399.723 731.66C398.203 732.5 396.963 733.76 396.003 735.44C395.083 737.08 394.623 739.04 394.623 741.32C394.623 743.6 395.083 745.6 396.003 747.32C396.963 749.04 398.203 750.36 399.723 751.28C401.283 752.16 402.923 752.6 404.643 752.6C406.403 752.6 408.043 752.16 409.563 751.28C411.083 750.4 412.303 749.12 413.223 747.44C414.183 745.72 414.663 743.72 414.663 741.44ZM470.567 724.4C473.167 724.4 475.487 724.94 477.527 726.02C479.607 727.1 481.227 728.7 482.387 730.82C483.587 732.94 484.187 735.5 484.187 738.5V758H477.407V739.52C477.407 736.56 476.667 734.3 475.187 732.74C473.707 731.14 471.687 730.34 469.127 730.34C466.567 730.34 464.527 731.14 463.007 732.74C461.527 734.3 460.787 736.56 460.787 739.52V758H454.007V739.52C454.007 736.56 453.267 734.3 451.787 732.74C450.307 731.14 448.287 730.34 445.727 730.34C443.167 730.34 441.127 731.14 439.607 732.74C438.127 734.3 437.387 736.56 437.387 739.52V758H430.547V724.94H437.387V728.72C438.507 727.36 439.927 726.3 441.647 725.54C443.367 724.78 445.207 724.4 447.167 724.4C449.807 724.4 452.167 724.96 454.247 726.08C456.327 727.2 457.927 728.82 459.047 730.94C460.047 728.94 461.607 727.36 463.727 726.2C465.847 725 468.127 724.4 470.567 724.4ZM523.191 740.66C523.191 741.9 523.111 743.02 522.951 744.02H497.691C497.891 746.66 498.871 748.78 500.631 750.38C502.391 751.98 504.551 752.78 507.111 752.78C510.791 752.78 513.391 751.24 514.911 748.16H522.291C521.291 751.2 519.471 753.7 516.831 755.66C514.231 757.58 510.991 758.54 507.111 758.54C503.951 758.54 501.111 757.84 498.591 756.44C496.111 755 494.151 753 492.711 750.44C491.311 747.84 490.611 744.84 490.611 741.44C490.611 738.04 491.291 735.06 492.651 732.5C494.051 729.9 495.991 727.9 498.471 726.5C500.991 725.1 503.871 724.4 507.111 724.4C510.231 724.4 513.011 725.08 515.451 726.44C517.891 727.8 519.791 729.72 521.151 732.2C522.511 734.64 523.191 737.46 523.191 740.66ZM516.051 738.5C516.011 735.98 515.111 733.96 513.351 732.44C511.591 730.92 509.411 730.16 506.811 730.16C504.451 730.16 502.431 730.92 500.751 732.44C499.071 733.92 498.071 735.94 497.751 738.5H516.051ZM548.988 720.56C547.748 720.56 546.708 720.14 545.868 719.3C545.028 718.46 544.608 717.42 544.608 716.18C544.608 714.94 545.028 713.9 545.868 713.06C546.708 712.22 547.748 711.8 548.988 711.8C550.188 711.8 551.208 712.22 552.048 713.06C552.888 713.9 553.308 714.94 553.308 716.18C553.308 717.42 552.888 718.46 552.048 719.3C551.208 720.14 550.188 720.56 548.988 720.56ZM552.348 724.94V758H545.508V724.94H552.348ZM573.328 758.54C570.728 758.54 568.388 758.08 566.308 757.16C564.268 756.2 562.648 754.92 561.448 753.32C560.248 751.68 559.608 749.86 559.528 747.86H566.608C566.728 749.26 567.388 750.44 568.588 751.4C569.828 752.32 571.368 752.78 573.208 752.78C575.128 752.78 576.608 752.42 577.648 751.7C578.728 750.94 579.268 749.98 579.268 748.82C579.268 747.58 578.668 746.66 577.468 746.06C576.308 745.46 574.448 744.8 571.888 744.08C569.408 743.4 567.388 742.74 565.828 742.1C564.268 741.46 562.908 740.48 561.748 739.16C560.628 737.84 560.068 736.1 560.068 733.94C560.068 732.18 560.588 730.58 561.628 729.14C562.668 727.66 564.148 726.5 566.068 725.66C568.028 724.82 570.268 724.4 572.788 724.4C576.548 724.4 579.568 725.36 581.848 727.28C584.168 729.16 585.408 731.74 585.568 735.02H578.728C578.608 733.54 578.008 732.36 576.928 731.48C575.848 730.6 574.388 730.16 572.548 730.16C570.748 730.16 569.368 730.5 568.408 731.18C567.448 731.86 566.968 732.76 566.968 733.88C566.968 734.76 567.288 735.5 567.928 736.1C568.568 736.7 569.348 737.18 570.268 737.54C571.188 737.86 572.548 738.28 574.348 738.8C576.748 739.44 578.708 740.1 580.228 740.78C581.788 741.42 583.128 742.38 584.248 743.66C585.368 744.94 585.948 746.64 585.988 748.76C585.988 750.64 585.468 752.32 584.428 753.8C583.388 755.28 581.908 756.44 579.988 757.28C578.108 758.12 575.888 758.54 573.328 758.54ZM631.285 736.58C633.525 736.98 635.425 738.16 636.985 740.12C638.545 742.08 639.325 744.3 639.325 746.78C639.325 748.9 638.765 750.82 637.645 752.54C636.565 754.22 634.985 755.56 632.905 756.56C630.825 757.52 628.405 758 625.645 758H608.965V716.3H624.865C627.705 716.3 630.145 716.78 632.185 717.74C634.225 718.7 635.765 720 636.805 721.64C637.845 723.24 638.365 725.04 638.365 727.04C638.365 729.44 637.725 731.44 636.445 733.04C635.165 734.64 633.445 735.82 631.285 736.58ZM615.805 733.82H624.265C626.505 733.82 628.245 733.32 629.485 732.32C630.765 731.28 631.405 729.8 631.405 727.88C631.405 726 630.765 724.54 629.485 723.5C628.245 722.42 626.505 721.88 624.265 721.88H615.805V733.82ZM625.045 752.42C627.365 752.42 629.185 751.86 630.505 750.74C631.825 749.62 632.485 748.06 632.485 746.06C632.485 744.02 631.785 742.4 630.385 741.2C628.985 740 627.125 739.4 624.805 739.4H615.805V752.42H625.045ZM653.598 729.74C654.598 728.06 655.918 726.76 657.558 725.84C659.238 724.88 661.218 724.4 663.498 724.4V731.48H661.758C659.078 731.48 657.038 732.16 655.638 733.52C654.278 734.88 653.598 737.24 653.598 740.6V758H646.758V724.94H653.598V729.74ZM673.265 720.56C672.025 720.56 670.985 720.14 670.145 719.3C669.305 718.46 668.885 717.42 668.885 716.18C668.885 714.94 669.305 713.9 670.145 713.06C670.985 712.22 672.025 711.8 673.265 711.8C674.465 711.8 675.485 712.22 676.325 713.06C677.165 713.9 677.585 714.94 677.585 716.18C677.585 717.42 677.165 718.46 676.325 719.3C675.485 720.14 674.465 720.56 673.265 720.56ZM676.625 724.94V758H669.785V724.94H676.625ZM692.445 713.6V758H685.605V713.6H692.445ZM731.366 724.94V758H724.526V754.1C723.446 755.46 722.026 756.54 720.266 757.34C718.546 758.1 716.706 758.48 714.746 758.48C712.146 758.48 709.806 757.94 707.726 756.86C705.686 755.78 704.066 754.18 702.866 752.06C701.706 749.94 701.126 747.38 701.126 744.38V724.94H707.906V743.36C707.906 746.32 708.646 748.6 710.126 750.2C711.606 751.76 713.626 752.54 716.186 752.54C718.746 752.54 720.766 751.76 722.246 750.2C723.766 748.6 724.526 746.32 724.526 743.36V724.94H731.366ZM765.771 733.4V739.16H741.111V733.4H765.771ZM782.088 752.06H801.468V758H773.988V752.66L793.308 722.24H773.988V716.3H801.468V721.64L782.088 752.06ZM839.245 740.66C839.245 741.9 839.165 743.02 839.005 744.02H813.745C813.945 746.66 814.925 748.78 816.685 750.38C818.445 751.98 820.605 752.78 823.165 752.78C826.845 752.78 829.445 751.24 830.965 748.16H838.345C837.345 751.2 835.525 753.7 832.885 755.66C830.285 757.58 827.045 758.54 823.165 758.54C820.005 758.54 817.165 757.84 814.645 756.44C812.165 755 810.205 753 808.765 750.44C807.365 747.84 806.665 744.84 806.665 741.44C806.665 738.04 807.345 735.06 808.705 732.5C810.105 729.9 812.045 727.9 814.525 726.5C817.045 725.1 819.925 724.4 823.165 724.4C826.285 724.4 829.065 725.08 831.505 726.44C833.945 727.8 835.845 729.72 837.205 732.2C838.565 734.64 839.245 737.46 839.245 740.66ZM832.105 738.5C832.065 735.98 831.165 733.96 829.405 732.44C827.645 730.92 825.465 730.16 822.865 730.16C820.505 730.16 818.485 730.92 816.805 732.44C815.125 733.92 814.125 735.94 813.805 738.5H832.105ZM843.697 741.44C843.697 738.04 844.377 735.06 845.737 732.5C847.137 729.9 849.057 727.9 851.497 726.5C853.937 725.1 856.737 724.4 859.897 724.4C863.897 724.4 867.197 725.36 869.797 727.28C872.437 729.16 874.217 731.86 875.137 735.38H867.757C867.157 733.74 866.197 732.46 864.877 731.54C863.557 730.62 861.897 730.16 859.897 730.16C857.097 730.16 854.857 731.16 853.177 733.16C851.537 735.12 850.717 737.88 850.717 741.44C850.717 745 851.537 747.78 853.177 749.78C854.857 751.78 857.097 752.78 859.897 752.78C863.857 752.78 866.477 751.04 867.757 747.56H875.137C874.177 750.92 872.377 753.6 869.737 755.6C867.097 757.56 863.817 758.54 859.897 758.54C856.737 758.54 853.937 757.84 851.497 756.44C849.057 755 847.137 753 845.737 750.44C844.377 747.84 843.697 744.84 843.697 741.44ZM899.053 724.4C901.573 724.4 903.813 724.94 905.773 726.02C907.773 727.1 909.333 728.7 910.453 730.82C911.613 732.94 912.193 735.5 912.193 738.5V758H905.413V739.52C905.413 736.56 904.673 734.3 903.193 732.74C901.713 731.14 899.693 730.34 897.133 730.34C894.573 730.34 892.533 731.14 891.013 732.74C889.533 734.3 888.793 736.56 888.793 739.52V758H881.953V713.6H888.793V728.78C889.953 727.38 891.413 726.3 893.173 725.54C894.973 724.78 896.933 724.4 899.053 724.4ZM944.004 749.78L936.744 766.34H932.304L936.564 749.78H944.004ZM963.286 741.32C963.286 738 963.966 735.06 965.326 732.5C966.726 729.94 968.606 727.96 970.966 726.56C973.366 725.12 976.006 724.4 978.886 724.4C981.486 724.4 983.746 724.92 985.666 725.96C987.626 726.96 989.186 728.22 990.346 729.74V724.94H997.246V758H990.346V753.08C989.186 754.64 987.606 755.94 985.606 756.98C983.606 758.02 981.326 758.54 978.766 758.54C975.926 758.54 973.326 757.82 970.966 756.38C968.606 754.9 966.726 752.86 965.326 750.26C963.966 747.62 963.286 744.64 963.286 741.32ZM990.346 741.44C990.346 739.16 989.866 737.18 988.906 735.5C987.986 733.82 986.766 732.54 985.246 731.66C983.726 730.78 982.086 730.34 980.326 730.34C978.566 730.34 976.926 730.78 975.406 731.66C973.886 732.5 972.646 733.76 971.686 735.44C970.766 737.08 970.306 739.04 970.306 741.32C970.306 743.6 970.766 745.6 971.686 747.32C972.646 749.04 973.886 750.36 975.406 751.28C976.966 752.16 978.606 752.6 980.326 752.6C982.086 752.6 983.726 752.16 985.246 751.28C986.766 750.4 987.986 749.12 988.906 747.44C989.866 745.72 990.346 743.72 990.346 741.44ZM1022.91 724.4C1025.51 724.4 1027.83 724.94 1029.87 726.02C1031.95 727.1 1033.57 728.7 1034.73 730.82C1035.89 732.94 1036.47 735.5 1036.47 738.5V758H1029.69V739.52C1029.69 736.56 1028.95 734.3 1027.47 732.74C1025.99 731.14 1023.97 730.34 1021.41 730.34C1018.85 730.34 1016.81 731.14 1015.29 732.74C1013.81 734.3 1013.07 736.56 1013.07 739.52V758H1006.23V724.94H1013.07V728.72C1014.19 727.36 1015.61 726.3 1017.33 725.54C1019.09 724.78 1020.95 724.4 1022.91 724.4ZM1042.92 741.32C1042.92 738 1043.6 735.06 1044.96 732.5C1046.36 729.94 1048.24 727.96 1050.6 726.56C1053 725.12 1055.66 724.4 1058.58 724.4C1060.74 724.4 1062.86 724.88 1064.94 725.84C1067.06 726.76 1068.74 728 1069.98 729.56V713.6H1076.88V758H1069.98V753.02C1068.86 754.62 1067.3 755.94 1065.3 756.98C1063.34 758.02 1061.08 758.54 1058.52 758.54C1055.64 758.54 1053 757.82 1050.6 756.38C1048.24 754.9 1046.36 752.86 1044.96 750.26C1043.6 747.62 1042.92 744.64 1042.92 741.32ZM1069.98 741.44C1069.98 739.16 1069.5 737.18 1068.54 735.5C1067.62 733.82 1066.4 732.54 1064.88 731.66C1063.36 730.78 1061.72 730.34 1059.96 730.34C1058.2 730.34 1056.56 730.78 1055.04 731.66C1053.52 732.5 1052.28 733.76 1051.32 735.44C1050.4 737.08 1049.94 739.04 1049.94 741.32C1049.94 743.6 1050.4 745.6 1051.32 747.32C1052.28 749.04 1053.52 750.36 1055.04 751.28C1056.6 752.16 1058.24 752.6 1059.96 752.6C1061.72 752.6 1063.36 752.16 1064.88 751.28C1066.4 750.4 1067.62 749.12 1068.54 747.44C1069.5 745.72 1069.98 743.72 1069.98 741.44ZM1108.29 716.3V758H1101.45V716.3H1108.29ZM1118.35 716.3H1125.79L1119.49 730.58H1114.69L1118.35 716.3ZM1171.82 724.4C1174.42 724.4 1176.74 724.94 1178.78 726.02C1180.86 727.1 1182.48 728.7 1183.64 730.82C1184.84 732.94 1185.44 735.5 1185.44 738.5V758H1178.66V739.52C1178.66 736.56 1177.92 734.3 1176.44 732.74C1174.96 731.14 1172.94 730.34 1170.38 730.34C1167.82 730.34 1165.78 731.14 1164.26 732.74C1162.78 734.3 1162.04 736.56 1162.04 739.52V758H1155.26V739.52C1155.26 736.56 1154.52 734.3 1153.04 732.74C1151.56 731.14 1149.54 730.34 1146.98 730.34C1144.42 730.34 1142.38 731.14 1140.86 732.74C1139.38 734.3 1138.64 736.56 1138.64 739.52V758H1131.8V724.94H1138.64V728.72C1139.76 727.36 1141.18 726.3 1142.9 725.54C1144.62 724.78 1146.46 724.4 1148.42 724.4C1151.06 724.4 1153.42 724.96 1155.5 726.08C1157.58 727.2 1159.18 728.82 1160.3 730.94C1161.3 728.94 1162.86 727.36 1164.98 726.2C1167.1 725 1169.38 724.4 1171.82 724.4ZM1207.45 741.32C1207.45 738 1208.13 735.06 1209.49 732.5C1210.89 729.94 1212.77 727.96 1215.13 726.56C1217.53 725.12 1220.17 724.4 1223.05 724.4C1225.65 724.4 1227.91 724.92 1229.83 725.96C1231.79 726.96 1233.35 728.22 1234.51 729.74V724.94H1241.41V758H1234.51V753.08C1233.35 754.64 1231.77 755.94 1229.77 756.98C1227.77 758.02 1225.49 758.54 1222.93 758.54C1220.09 758.54 1217.49 757.82 1215.13 756.38C1212.77 754.9 1210.89 752.86 1209.49 750.26C1208.13 747.62 1207.45 744.64 1207.45 741.32ZM1234.51 741.44C1234.51 739.16 1234.03 737.18 1233.07 735.5C1232.15 733.82 1230.93 732.54 1229.41 731.66C1227.89 730.78 1226.25 730.34 1224.49 730.34C1222.73 730.34 1221.09 730.78 1219.57 731.66C1218.05 732.5 1216.81 733.76 1215.85 735.44C1214.93 737.08 1214.47 739.04 1214.47 741.32C1214.47 743.6 1214.93 745.6 1215.85 747.32C1216.81 749.04 1218.05 750.36 1219.57 751.28C1221.13 752.16 1222.77 752.6 1224.49 752.6C1226.25 752.6 1227.89 752.16 1229.41 751.28C1230.93 750.4 1232.15 749.12 1233.07 747.44C1234.03 745.72 1234.51 743.72 1234.51 741.44ZM1310.38 724.94L1300.12 758H1292.92L1286.26 733.58L1279.6 758H1272.4L1262.08 724.94H1269.04L1275.94 751.52L1282.96 724.94H1290.1L1296.82 751.4L1303.66 724.94H1310.38ZM1345.79 740.66C1345.79 741.9 1345.71 743.02 1345.55 744.02H1320.29C1320.49 746.66 1321.47 748.78 1323.23 750.38C1324.99 751.98 1327.15 752.78 1329.71 752.78C1333.39 752.78 1335.99 751.24 1337.51 748.16H1344.89C1343.89 751.2 1342.07 753.7 1339.43 755.66C1336.83 757.58 1333.59 758.54 1329.71 758.54C1326.55 758.54 1323.71 757.84 1321.19 756.44C1318.71 755 1316.75 753 1315.31 750.44C1313.91 747.84 1313.21 744.84 1313.21 741.44C1313.21 738.04 1313.89 735.06 1315.25 732.5C1316.65 729.9 1318.59 727.9 1321.07 726.5C1323.59 725.1 1326.47 724.4 1329.71 724.4C1332.83 724.4 1335.61 725.08 1338.05 726.44C1340.49 727.8 1342.39 729.72 1343.75 732.2C1345.11 734.64 1345.79 737.46 1345.79 740.66ZM1338.65 738.5C1338.61 735.98 1337.71 733.96 1335.95 732.44C1334.19 730.92 1332.01 730.16 1329.41 730.16C1327.05 730.16 1325.03 730.92 1323.35 732.44C1321.67 733.92 1320.67 735.94 1320.35 738.5H1338.65ZM1359.36 729.86C1360.52 728.26 1362.1 726.96 1364.1 725.96C1366.14 724.92 1368.4 724.4 1370.88 724.4C1373.8 724.4 1376.44 725.1 1378.8 726.5C1381.16 727.9 1383.02 729.9 1384.38 732.5C1385.74 735.06 1386.42 738 1386.42 741.32C1386.42 744.64 1385.74 747.62 1384.38 750.26C1383.02 752.86 1381.14 754.9 1378.74 756.38C1376.38 757.82 1373.76 758.54 1370.88 758.54C1368.32 758.54 1366.04 758.04 1364.04 757.04C1362.08 756.04 1360.52 754.76 1359.36 753.2V758H1352.52V713.6H1359.36V729.86ZM1379.46 741.32C1379.46 739.04 1378.98 737.08 1378.02 735.44C1377.1 733.76 1375.86 732.5 1374.3 731.66C1372.78 730.78 1371.14 730.34 1369.38 730.34C1367.66 730.34 1366.02 730.78 1364.46 731.66C1362.94 732.54 1361.7 733.82 1360.74 735.5C1359.82 737.18 1359.36 739.16 1359.36 741.44C1359.36 743.72 1359.82 745.72 1360.74 747.44C1361.7 749.12 1362.94 750.4 1364.46 751.28C1366.02 752.16 1367.66 752.6 1369.38 752.6C1371.14 752.6 1372.78 752.16 1374.3 751.28C1375.86 750.36 1377.1 749.04 1378.02 747.32C1378.98 745.6 1379.46 743.6 1379.46 741.32ZM245.22 831.32C245.22 828 245.9 825.06 247.26 822.5C248.66 819.94 250.54 817.96 252.9 816.56C255.3 815.12 257.96 814.4 260.88 814.4C263.04 814.4 265.16 814.88 267.24 815.84C269.36 816.76 271.04 818 272.28 819.56V803.6H279.18V848H272.28V843.02C271.16 844.62 269.6 845.94 267.6 846.98C265.64 848.02 263.38 848.54 260.82 848.54C257.94 848.54 255.3 847.82 252.9 846.38C250.54 844.9 248.66 842.86 247.26 840.26C245.9 837.62 245.22 834.64 245.22 831.32ZM272.28 831.44C272.28 829.16 271.8 827.18 270.84 825.5C269.92 823.82 268.7 822.54 267.18 821.66C265.66 820.78 264.02 820.34 262.26 820.34C260.5 820.34 258.86 820.78 257.34 821.66C255.82 822.5 254.58 823.76 253.62 825.44C252.7 827.08 252.24 829.04 252.24 831.32C252.24 833.6 252.7 835.6 253.62 837.32C254.58 839.04 255.82 840.36 257.34 841.28C258.9 842.16 260.54 842.6 262.26 842.6C264.02 842.6 265.66 842.16 267.18 841.28C268.7 840.4 269.92 839.12 270.84 837.44C271.8 835.72 272.28 833.72 272.28 831.44ZM318.464 830.66C318.464 831.9 318.384 833.02 318.224 834.02H292.964C293.164 836.66 294.144 838.78 295.904 840.38C297.664 841.98 299.824 842.78 302.384 842.78C306.064 842.78 308.664 841.24 310.184 838.16H317.564C316.564 841.2 314.744 843.7 312.104 845.66C309.504 847.58 306.264 848.54 302.384 848.54C299.224 848.54 296.384 847.84 293.864 846.44C291.384 845 289.424 843 287.984 840.44C286.584 837.84 285.884 834.84 285.884 831.44C285.884 828.04 286.564 825.06 287.924 822.5C289.324 819.9 291.264 817.9 293.744 816.5C296.264 815.1 299.144 814.4 302.384 814.4C305.504 814.4 308.284 815.08 310.724 816.44C313.164 817.8 315.064 819.72 316.424 822.2C317.784 824.64 318.464 827.46 318.464 830.66ZM311.324 828.5C311.284 825.98 310.384 823.96 308.624 822.44C306.864 820.92 304.684 820.16 302.084 820.16C299.724 820.16 297.704 820.92 296.024 822.44C294.344 823.92 293.344 825.94 293.024 828.5H311.324ZM337.195 848.54C334.595 848.54 332.255 848.08 330.175 847.16C328.135 846.2 326.515 844.92 325.315 843.32C324.115 841.68 323.475 839.86 323.395 837.86H330.475C330.595 839.26 331.255 840.44 332.455 841.4C333.695 842.32 335.235 842.78 337.075 842.78C338.995 842.78 340.475 842.42 341.515 841.7C342.595 840.94 343.135 839.98 343.135 838.82C343.135 837.58 342.535 836.66 341.335 836.06C340.175 835.46 338.315 834.8 335.755 834.08C333.275 833.4 331.255 832.74 329.695 832.1C328.135 831.46 326.775 830.48 325.615 829.16C324.495 827.84 323.935 826.1 323.935 823.94C323.935 822.18 324.455 820.58 325.495 819.14C326.535 817.66 328.015 816.5 329.935 815.66C331.895 814.82 334.135 814.4 336.655 814.4C340.415 814.4 343.435 815.36 345.715 817.28C348.035 819.16 349.275 821.74 349.435 825.02H342.595C342.475 823.54 341.875 822.36 340.795 821.48C339.715 820.6 338.255 820.16 336.415 820.16C334.615 820.16 333.235 820.5 332.275 821.18C331.315 821.86 330.835 822.76 330.835 823.88C330.835 824.76 331.155 825.5 331.795 826.1C332.435 826.7 333.215 827.18 334.135 827.54C335.055 827.86 336.415 828.28 338.215 828.8C340.615 829.44 342.575 830.1 344.095 830.78C345.655 831.42 346.995 832.38 348.115 833.66C349.235 834.94 349.815 836.64 349.855 838.76C349.855 840.64 349.335 842.32 348.295 843.8C347.255 845.28 345.775 846.44 343.855 847.28C341.975 848.12 339.755 848.54 337.195 848.54ZM360.726 810.56C359.486 810.56 358.446 810.14 357.606 809.3C356.766 808.46 356.346 807.42 356.346 806.18C356.346 804.94 356.766 803.9 357.606 803.06C358.446 802.22 359.486 801.8 360.726 801.8C361.926 801.8 362.946 802.22 363.786 803.06C364.626 803.9 365.046 804.94 365.046 806.18C365.046 807.42 364.626 808.46 363.786 809.3C362.946 810.14 361.926 810.56 360.726 810.56ZM364.086 814.94V848H357.246V814.94H364.086ZM386.386 814.4C388.946 814.4 391.206 814.92 393.166 815.96C395.166 816.96 396.726 818.22 397.846 819.74V814.94H404.746V848.54C404.746 851.58 404.106 854.28 402.826 856.64C401.546 859.04 399.686 860.92 397.246 862.28C394.846 863.64 391.966 864.32 388.606 864.32C384.126 864.32 380.406 863.26 377.446 861.14C374.486 859.06 372.806 856.22 372.406 852.62H379.186C379.706 854.34 380.806 855.72 382.486 856.76C384.206 857.84 386.246 858.38 388.606 858.38C391.366 858.38 393.586 857.54 395.266 855.86C396.986 854.18 397.846 851.74 397.846 848.54V843.02C396.686 844.58 395.106 845.9 393.106 846.98C391.146 848.02 388.906 848.54 386.386 848.54C383.506 848.54 380.866 847.82 378.466 846.38C376.106 844.9 374.226 842.86 372.826 840.26C371.466 837.62 370.786 834.64 370.786 831.32C370.786 828 371.466 825.06 372.826 822.5C374.226 819.94 376.106 817.96 378.466 816.56C380.866 815.12 383.506 814.4 386.386 814.4ZM397.846 831.44C397.846 829.16 397.366 827.18 396.406 825.5C395.486 823.82 394.266 822.54 392.746 821.66C391.226 820.78 389.586 820.34 387.826 820.34C386.066 820.34 384.426 820.78 382.906 821.66C381.386 822.5 380.146 823.76 379.186 825.44C378.266 827.08 377.806 829.04 377.806 831.32C377.806 833.6 378.266 835.6 379.186 837.32C380.146 839.04 381.386 840.36 382.906 841.28C384.466 842.16 386.106 842.6 387.826 842.6C389.586 842.6 391.226 842.16 392.746 841.28C394.266 840.4 395.486 839.12 396.406 837.44C397.366 835.72 397.846 833.72 397.846 831.44ZM430.41 814.4C433.01 814.4 435.33 814.94 437.37 816.02C439.45 817.1 441.07 818.7 442.23 820.82C443.39 822.94 443.97 825.5 443.97 828.5V848H437.19V829.52C437.19 826.56 436.45 824.3 434.97 822.74C433.49 821.14 431.47 820.34 428.91 820.34C426.35 820.34 424.31 821.14 422.79 822.74C421.31 824.3 420.57 826.56 420.57 829.52V848H413.73V814.94H420.57V818.72C421.69 817.36 423.11 816.3 424.83 815.54C426.59 814.78 428.45 814.4 430.41 814.4ZM482.995 830.66C482.995 831.9 482.915 833.02 482.755 834.02H457.495C457.695 836.66 458.675 838.78 460.435 840.38C462.195 841.98 464.355 842.78 466.915 842.78C470.595 842.78 473.195 841.24 474.715 838.16H482.095C481.095 841.2 479.275 843.7 476.635 845.66C474.035 847.58 470.795 848.54 466.915 848.54C463.755 848.54 460.915 847.84 458.395 846.44C455.915 845 453.955 843 452.515 840.44C451.115 837.84 450.415 834.84 450.415 831.44C450.415 828.04 451.095 825.06 452.455 822.5C453.855 819.9 455.795 817.9 458.275 816.5C460.795 815.1 463.675 814.4 466.915 814.4C470.035 814.4 472.815 815.08 475.255 816.44C477.695 817.8 479.595 819.72 480.955 822.2C482.315 824.64 482.995 827.46 482.995 830.66ZM475.855 828.5C475.815 825.98 474.915 823.96 473.155 822.44C471.395 820.92 469.215 820.16 466.615 820.16C464.255 820.16 462.235 820.92 460.555 822.44C458.875 823.92 457.875 825.94 457.555 828.5H475.855ZM496.567 819.74C497.567 818.06 498.887 816.76 500.527 815.84C502.207 814.88 504.187 814.4 506.467 814.4V821.48H504.727C502.047 821.48 500.007 822.16 498.607 823.52C497.247 824.88 496.567 827.24 496.567 830.6V848H489.727V814.94H496.567V819.74ZM526.06 831.32C526.06 828 526.74 825.06 528.1 822.5C529.5 819.94 531.38 817.96 533.74 816.56C536.14 815.12 538.78 814.4 541.66 814.4C544.26 814.4 546.52 814.92 548.44 815.96C550.4 816.96 551.96 818.22 553.12 819.74V814.94H560.02V848H553.12V843.08C551.96 844.64 550.38 845.94 548.38 846.98C546.38 848.02 544.1 848.54 541.54 848.54C538.7 848.54 536.1 847.82 533.74 846.38C531.38 844.9 529.5 842.86 528.1 840.26C526.74 837.62 526.06 834.64 526.06 831.32ZM553.12 831.44C553.12 829.16 552.64 827.18 551.68 825.5C550.76 823.82 549.54 822.54 548.02 821.66C546.5 820.78 544.86 820.34 543.1 820.34C541.34 820.34 539.7 820.78 538.18 821.66C536.66 822.5 535.42 823.76 534.46 825.44C533.54 827.08 533.08 829.04 533.08 831.32C533.08 833.6 533.54 835.6 534.46 837.32C535.42 839.04 536.66 840.36 538.18 841.28C539.74 842.16 541.38 842.6 543.1 842.6C544.86 842.6 546.5 842.16 548.02 841.28C549.54 840.4 550.76 839.12 551.68 837.44C552.64 835.72 553.12 833.72 553.12 831.44ZM585.684 814.4C588.284 814.4 590.604 814.94 592.644 816.02C594.724 817.1 596.344 818.7 597.504 820.82C598.664 822.94 599.244 825.5 599.244 828.5V848H592.464V829.52C592.464 826.56 591.724 824.3 590.244 822.74C588.764 821.14 586.744 820.34 584.184 820.34C581.624 820.34 579.584 821.14 578.064 822.74C576.584 824.3 575.844 826.56 575.844 829.52V848H569.004V814.94H575.844V818.72C576.964 817.36 578.384 816.3 580.104 815.54C581.864 814.78 583.724 814.4 585.684 814.4ZM605.689 831.32C605.689 828 606.369 825.06 607.729 822.5C609.129 819.94 611.009 817.96 613.369 816.56C615.769 815.12 618.429 814.4 621.349 814.4C623.509 814.4 625.629 814.88 627.709 815.84C629.829 816.76 631.509 818 632.749 819.56V803.6H639.649V848H632.749V843.02C631.629 844.62 630.069 845.94 628.069 846.98C626.109 848.02 623.849 848.54 621.289 848.54C618.409 848.54 615.769 847.82 613.369 846.38C611.009 844.9 609.129 842.86 607.729 840.26C606.369 837.62 605.689 834.64 605.689 831.32ZM632.749 831.44C632.749 829.16 632.269 827.18 631.309 825.5C630.389 823.82 629.169 822.54 627.649 821.66C626.129 820.78 624.489 820.34 622.729 820.34C620.969 820.34 619.329 820.78 617.809 821.66C616.289 822.5 615.049 823.76 614.089 825.44C613.169 827.08 612.709 829.04 612.709 831.32C612.709 833.6 613.169 835.6 614.089 837.32C615.049 839.04 616.289 840.36 617.809 841.28C619.369 842.16 621.009 842.6 622.729 842.6C624.489 842.6 626.129 842.16 627.649 841.28C629.169 840.4 630.389 839.12 631.309 837.44C632.269 835.72 632.749 833.72 632.749 831.44ZM661.939 831.32C661.939 828 662.619 825.06 663.979 822.5C665.379 819.94 667.259 817.96 669.619 816.56C672.019 815.12 674.679 814.4 677.599 814.4C679.759 814.4 681.879 814.88 683.959 815.84C686.079 816.76 687.759 818 688.999 819.56V803.6H695.899V848H688.999V843.02C687.879 844.62 686.319 845.94 684.319 846.98C682.359 848.02 680.099 848.54 677.539 848.54C674.659 848.54 672.019 847.82 669.619 846.38C667.259 844.9 665.379 842.86 663.979 840.26C662.619 837.62 661.939 834.64 661.939 831.32ZM688.999 831.44C688.999 829.16 688.519 827.18 687.559 825.5C686.639 823.82 685.419 822.54 683.899 821.66C682.379 820.78 680.739 820.34 678.979 820.34C677.219 820.34 675.579 820.78 674.059 821.66C672.539 822.5 671.299 823.76 670.339 825.44C669.419 827.08 668.959 829.04 668.959 831.32C668.959 833.6 669.419 835.6 670.339 837.32C671.299 839.04 672.539 840.36 674.059 841.28C675.619 842.16 677.259 842.6 678.979 842.6C680.739 842.6 682.379 842.16 683.899 841.28C685.419 840.4 686.639 839.12 687.559 837.44C688.519 835.72 688.999 833.72 688.999 831.44ZM735.183 830.66C735.183 831.9 735.103 833.02 734.943 834.02H709.683C709.883 836.66 710.863 838.78 712.623 840.38C714.383 841.98 716.543 842.78 719.103 842.78C722.783 842.78 725.383 841.24 726.903 838.16H734.283C733.283 841.2 731.463 843.7 728.823 845.66C726.223 847.58 722.983 848.54 719.103 848.54C715.943 848.54 713.103 847.84 710.583 846.44C708.103 845 706.143 843 704.703 840.44C703.303 837.84 702.603 834.84 702.603 831.44C702.603 828.04 703.283 825.06 704.643 822.5C706.043 819.9 707.983 817.9 710.463 816.5C712.983 815.1 715.863 814.4 719.103 814.4C722.223 814.4 725.003 815.08 727.443 816.44C729.883 817.8 731.783 819.72 733.143 822.2C734.503 824.64 735.183 827.46 735.183 830.66ZM728.043 828.5C728.003 825.98 727.103 823.96 725.343 822.44C723.583 820.92 721.403 820.16 718.803 820.16C716.443 820.16 714.423 820.92 712.743 822.44C711.063 823.92 710.063 825.94 709.743 828.5H728.043ZM754.694 841.88L764.054 814.94H771.314L758.714 848H750.554L738.014 814.94H745.334L754.694 841.88ZM806.784 830.66C806.784 831.9 806.704 833.02 806.544 834.02H781.284C781.484 836.66 782.464 838.78 784.224 840.38C785.984 841.98 788.144 842.78 790.704 842.78C794.384 842.78 796.984 841.24 798.504 838.16H805.884C804.884 841.2 803.064 843.7 800.424 845.66C797.824 847.58 794.584 848.54 790.704 848.54C787.544 848.54 784.704 847.84 782.184 846.44C779.704 845 777.744 843 776.304 840.44C774.904 837.84 774.204 834.84 774.204 831.44C774.204 828.04 774.884 825.06 776.244 822.5C777.644 819.9 779.584 817.9 782.064 816.5C784.584 815.1 787.464 814.4 790.704 814.4C793.824 814.4 796.604 815.08 799.044 816.44C801.484 817.8 803.384 819.72 804.744 822.2C806.104 824.64 806.784 827.46 806.784 830.66ZM799.644 828.5C799.604 825.98 798.704 823.96 796.944 822.44C795.184 820.92 793.004 820.16 790.404 820.16C788.044 820.16 786.024 820.92 784.344 822.44C782.664 823.92 781.664 825.94 781.344 828.5H799.644ZM820.356 803.6V848H813.516V803.6H820.356ZM843.676 848.54C840.556 848.54 837.736 847.84 835.216 846.44C832.696 845 830.716 843 829.276 840.44C827.836 837.84 827.116 834.84 827.116 831.44C827.116 828.08 827.856 825.1 829.336 822.5C830.816 819.9 832.836 817.9 835.396 816.5C837.956 815.1 840.816 814.4 843.976 814.4C847.136 814.4 849.996 815.1 852.556 816.5C855.116 817.9 857.136 819.9 858.616 822.5C860.096 825.1 860.836 828.08 860.836 831.44C860.836 834.8 860.076 837.78 858.556 840.38C857.036 842.98 854.956 845 852.316 846.44C849.716 847.84 846.836 848.54 843.676 848.54ZM843.676 842.6C845.436 842.6 847.076 842.18 848.596 841.34C850.156 840.5 851.416 839.24 852.376 837.56C853.336 835.88 853.816 833.84 853.816 831.44C853.816 829.04 853.356 827.02 852.436 825.38C851.516 823.7 850.296 822.44 848.776 821.6C847.256 820.76 845.616 820.34 843.856 820.34C842.096 820.34 840.456 820.76 838.936 821.6C837.456 822.44 836.276 823.7 835.396 825.38C834.516 827.02 834.076 829.04 834.076 831.44C834.076 835 834.976 837.76 836.776 839.72C838.616 841.64 840.916 842.6 843.676 842.6ZM874.438 819.8C875.598 818.28 877.178 817 879.178 815.96C881.178 814.92 883.438 814.4 885.958 814.4C888.838 814.4 891.458 815.12 893.818 816.56C896.218 817.96 898.098 819.94 899.458 822.5C900.818 825.06 901.498 828 901.498 831.32C901.498 834.64 900.818 837.62 899.458 840.26C898.098 842.86 896.218 844.9 893.818 846.38C891.458 847.82 888.838 848.54 885.958 848.54C883.438 848.54 881.198 848.04 879.238 847.04C877.278 846 875.678 844.72 874.438 843.2V863.72H867.598V814.94H874.438V819.8ZM894.538 831.32C894.538 829.04 894.058 827.08 893.098 825.44C892.178 823.76 890.938 822.5 889.378 821.66C887.858 820.78 886.218 820.34 884.458 820.34C882.738 820.34 881.098 820.78 879.538 821.66C878.018 822.54 876.778 823.82 875.818 825.5C874.898 827.18 874.438 829.16 874.438 831.44C874.438 833.72 874.898 835.72 875.818 837.44C876.778 839.12 878.018 840.4 879.538 841.28C881.098 842.16 882.738 842.6 884.458 842.6C886.218 842.6 887.858 842.16 889.378 841.28C890.938 840.36 892.178 839.04 893.098 837.32C894.058 835.6 894.538 833.6 894.538 831.32ZM938.562 830.66C938.562 831.9 938.482 833.02 938.322 834.02H913.062C913.262 836.66 914.242 838.78 916.002 840.38C917.762 841.98 919.922 842.78 922.482 842.78C926.162 842.78 928.762 841.24 930.282 838.16H937.662C936.662 841.2 934.842 843.7 932.202 845.66C929.602 847.58 926.362 848.54 922.482 848.54C919.322 848.54 916.482 847.84 913.962 846.44C911.482 845 909.522 843 908.082 840.44C906.682 837.84 905.982 834.84 905.982 831.44C905.982 828.04 906.662 825.06 908.022 822.5C909.422 819.9 911.362 817.9 913.842 816.5C916.362 815.1 919.242 814.4 922.482 814.4C925.602 814.4 928.382 815.08 930.822 816.44C933.262 817.8 935.162 819.72 936.522 822.2C937.882 824.64 938.562 827.46 938.562 830.66ZM931.422 828.5C931.382 825.98 930.482 823.96 928.722 822.44C926.962 820.92 924.782 820.16 922.182 820.16C919.822 820.16 917.802 820.92 916.122 822.44C914.442 823.92 913.442 825.94 913.122 828.5H931.422ZM952.133 819.74C953.133 818.06 954.453 816.76 956.093 815.84C957.773 814.88 959.753 814.4 962.033 814.4V821.48H960.293C957.613 821.48 955.573 822.16 954.173 823.52C952.813 824.88 952.133 827.24 952.133 830.6V848H945.293V814.94H952.133V819.74ZM990.746 819.86C991.906 818.26 993.486 816.96 995.486 815.96C997.526 814.92 999.786 814.4 1002.27 814.4C1005.19 814.4 1007.83 815.1 1010.19 816.5C1012.55 817.9 1014.41 819.9 1015.77 822.5C1017.13 825.06 1017.81 828 1017.81 831.32C1017.81 834.64 1017.13 837.62 1015.77 840.26C1014.41 842.86 1012.53 844.9 1010.13 846.38C1007.77 847.82 1005.15 848.54 1002.27 848.54C999.706 848.54 997.426 848.04 995.426 847.04C993.466 846.04 991.906 844.76 990.746 843.2V848H983.906V803.6H990.746V819.86ZM1010.85 831.32C1010.85 829.04 1010.37 827.08 1009.41 825.44C1008.49 823.76 1007.25 822.5 1005.69 821.66C1004.17 820.78 1002.53 820.34 1000.77 820.34C999.046 820.34 997.406 820.78 995.846 821.66C994.326 822.54 993.086 823.82 992.126 825.5C991.206 827.18 990.746 829.16 990.746 831.44C990.746 833.72 991.206 835.72 992.126 837.44C993.086 839.12 994.326 840.4 995.846 841.28C997.406 842.16 999.046 842.6 1000.77 842.6C1002.53 842.6 1004.17 842.16 1005.69 841.28C1007.25 840.36 1008.49 839.04 1009.41 837.32C1010.37 835.6 1010.85 833.6 1010.85 831.32ZM1054.51 814.94V848H1047.67V844.1C1046.59 845.46 1045.17 846.54 1043.41 847.34C1041.69 848.1 1039.85 848.48 1037.89 848.48C1035.29 848.48 1032.95 847.94 1030.87 846.86C1028.83 845.78 1027.21 844.18 1026.01 842.06C1024.85 839.94 1024.27 837.38 1024.27 834.38V814.94H1031.05V833.36C1031.05 836.32 1031.79 838.6 1033.27 840.2C1034.75 841.76 1036.77 842.54 1039.33 842.54C1041.89 842.54 1043.91 841.76 1045.39 840.2C1046.91 838.6 1047.67 836.32 1047.67 833.36V814.94H1054.51ZM1071.52 820.52V838.82C1071.52 840.06 1071.8 840.96 1072.36 841.52C1072.96 842.04 1073.96 842.3 1075.36 842.3H1079.56V848H1074.16C1071.08 848 1068.72 847.28 1067.08 845.84C1065.44 844.4 1064.62 842.06 1064.62 838.82V820.52H1060.72V814.94H1064.62V806.72H1071.52V814.94H1079.56V820.52H1071.52ZM1108.29 806.3V848H1101.45V806.3H1108.29ZM1177.25 814.94L1166.99 848H1159.79L1153.13 823.58L1146.47 848H1139.27L1128.95 814.94H1135.91L1142.81 841.52L1149.83 814.94H1156.97L1163.69 841.4L1170.53 814.94H1177.25ZM1196.7 848.54C1193.58 848.54 1190.76 847.84 1188.24 846.44C1185.72 845 1183.74 843 1182.3 840.44C1180.86 837.84 1180.14 834.84 1180.14 831.44C1180.14 828.08 1180.88 825.1 1182.36 822.5C1183.84 819.9 1185.86 817.9 1188.42 816.5C1190.98 815.1 1193.84 814.4 1197 814.4C1200.16 814.4 1203.02 815.1 1205.58 816.5C1208.14 817.9 1210.16 819.9 1211.64 822.5C1213.12 825.1 1213.86 828.08 1213.86 831.44C1213.86 834.8 1213.1 837.78 1211.58 840.38C1210.06 842.98 1207.98 845 1205.34 846.44C1202.74 847.84 1199.86 848.54 1196.7 848.54ZM1196.7 842.6C1198.46 842.6 1200.1 842.18 1201.62 841.34C1203.18 840.5 1204.44 839.24 1205.4 837.56C1206.36 835.88 1206.84 833.84 1206.84 831.44C1206.84 829.04 1206.38 827.02 1205.46 825.38C1204.54 823.7 1203.32 822.44 1201.8 821.6C1200.28 820.76 1198.64 820.34 1196.88 820.34C1195.12 820.34 1193.48 820.76 1191.96 821.6C1190.48 822.44 1189.3 823.7 1188.42 825.38C1187.54 827.02 1187.1 829.04 1187.1 831.44C1187.1 835 1188 837.76 1189.8 839.72C1191.64 841.64 1193.94 842.6 1196.7 842.6ZM1250.57 814.94V848H1243.73V844.1C1242.65 845.46 1241.23 846.54 1239.47 847.34C1237.75 848.1 1235.91 848.48 1233.95 848.48C1231.35 848.48 1229.01 847.94 1226.93 846.86C1224.89 845.78 1223.27 844.18 1222.07 842.06C1220.91 839.94 1220.33 837.38 1220.33 834.38V814.94H1227.11V833.36C1227.11 836.32 1227.85 838.6 1229.33 840.2C1230.81 841.76 1232.83 842.54 1235.39 842.54C1237.95 842.54 1239.97 841.76 1241.45 840.2C1242.97 838.6 1243.73 836.32 1243.73 833.36V814.94H1250.57ZM1266.43 803.6V848H1259.59V803.6H1266.43ZM1273.13 831.32C1273.13 828 1273.81 825.06 1275.17 822.5C1276.57 819.94 1278.45 817.96 1280.81 816.56C1283.21 815.12 1285.87 814.4 1288.79 814.4C1290.95 814.4 1293.07 814.88 1295.15 815.84C1297.27 816.76 1298.95 818 1300.19 819.56V803.6H1307.09V848H1300.19V843.02C1299.07 844.62 1297.51 845.94 1295.51 846.98C1293.55 848.02 1291.29 848.54 1288.73 848.54C1285.85 848.54 1283.21 847.82 1280.81 846.38C1278.45 844.9 1276.57 842.86 1275.17 840.26C1273.81 837.62 1273.13 834.64 1273.13 831.32ZM1300.19 831.44C1300.19 829.16 1299.71 827.18 1298.75 825.5C1297.83 823.82 1296.61 822.54 1295.09 821.66C1293.57 820.78 1291.93 820.34 1290.17 820.34C1288.41 820.34 1286.77 820.78 1285.25 821.66C1283.73 822.5 1282.49 823.76 1281.53 825.44C1280.61 827.08 1280.15 829.04 1280.15 831.32C1280.15 833.6 1280.61 835.6 1281.53 837.32C1282.49 839.04 1283.73 840.36 1285.25 841.28C1286.81 842.16 1288.45 842.6 1290.17 842.6C1291.93 842.6 1293.57 842.16 1295.09 841.28C1296.61 840.4 1297.83 839.12 1298.75 837.44C1299.71 835.72 1300.19 833.72 1300.19 831.44ZM1343.66 848.54C1341.06 848.54 1338.72 848.08 1336.64 847.16C1334.6 846.2 1332.98 844.92 1331.78 843.32C1330.58 841.68 1329.94 839.86 1329.86 837.86H1336.94C1337.06 839.26 1337.72 840.44 1338.92 841.4C1340.16 842.32 1341.7 842.78 1343.54 842.78C1345.46 842.78 1346.94 842.42 1347.98 841.7C1349.06 840.94 1349.6 839.98 1349.6 838.82C1349.6 837.58 1349 836.66 1347.8 836.06C1346.64 835.46 1344.78 834.8 1342.22 834.08C1339.74 833.4 1337.72 832.74 1336.16 832.1C1334.6 831.46 1333.24 830.48 1332.08 829.16C1330.96 827.84 1330.4 826.1 1330.4 823.94C1330.4 822.18 1330.92 820.58 1331.96 819.14C1333 817.66 1334.48 816.5 1336.4 815.66C1338.36 814.82 1340.6 814.4 1343.12 814.4C1346.88 814.4 1349.9 815.36 1352.18 817.28C1354.5 819.16 1355.74 821.74 1355.9 825.02H1349.06C1348.94 823.54 1348.34 822.36 1347.26 821.48C1346.18 820.6 1344.72 820.16 1342.88 820.16C1341.08 820.16 1339.7 820.5 1338.74 821.18C1337.78 821.86 1337.3 822.76 1337.3 823.88C1337.3 824.76 1337.62 825.5 1338.26 826.1C1338.9 826.7 1339.68 827.18 1340.6 827.54C1341.52 827.86 1342.88 828.28 1344.68 828.8C1347.08 829.44 1349.04 830.1 1350.56 830.78C1352.12 831.42 1353.46 832.38 1354.58 833.66C1355.7 834.94 1356.28 836.64 1356.32 838.76C1356.32 840.64 1355.8 842.32 1354.76 843.8C1353.72 845.28 1352.24 846.44 1350.32 847.28C1348.44 848.12 1346.22 848.54 1343.66 848.54ZM1361.43 831.32C1361.43 828 1362.11 825.06 1363.47 822.5C1364.87 819.94 1366.75 817.96 1369.11 816.56C1371.51 815.12 1374.15 814.4 1377.03 814.4C1379.63 814.4 1381.89 814.92 1383.81 815.96C1385.77 816.96 1387.33 818.22 1388.49 819.74V814.94H1395.39V848H1388.49V843.08C1387.33 844.64 1385.75 845.94 1383.75 846.98C1381.75 848.02 1379.47 848.54 1376.91 848.54C1374.07 848.54 1371.47 847.82 1369.11 846.38C1366.75 844.9 1364.87 842.86 1363.47 840.26C1362.11 837.62 1361.43 834.64 1361.43 831.32ZM1388.49 831.44C1388.49 829.16 1388.01 827.18 1387.05 825.5C1386.13 823.82 1384.91 822.54 1383.39 821.66C1381.87 820.78 1380.23 820.34 1378.47 820.34C1376.71 820.34 1375.07 820.78 1373.55 821.66C1372.03 822.5 1370.79 823.76 1369.83 825.44C1368.91 827.08 1368.45 829.04 1368.45 831.32C1368.45 833.6 1368.91 835.6 1369.83 837.32C1370.79 839.04 1372.03 840.36 1373.55 841.28C1375.11 842.16 1376.75 842.6 1378.47 842.6C1380.23 842.6 1381.87 842.16 1383.39 841.28C1384.91 840.4 1386.13 839.12 1387.05 837.44C1388.01 835.72 1388.49 833.72 1388.49 831.44ZM1434.14 814.94L1413.86 863.54H1406.78L1413.5 847.46L1400.48 814.94H1408.1L1417.4 840.14L1427.06 814.94H1434.14ZM287.52 904.4C290.12 904.4 292.44 904.94 294.48 906.02C296.56 907.1 298.18 908.7 299.34 910.82C300.54 912.94 301.14 915.5 301.14 918.5V938H294.36V919.52C294.36 916.56 293.62 914.3 292.14 912.74C290.66 911.14 288.64 910.34 286.08 910.34C283.52 910.34 281.48 911.14 279.96 912.74C278.48 914.3 277.74 916.56 277.74 919.52V938H270.96V919.52C270.96 916.56 270.22 914.3 268.74 912.74C267.26 911.14 265.24 910.34 262.68 910.34C260.12 910.34 258.08 911.14 256.56 912.74C255.08 914.3 254.34 916.56 254.34 919.52V938H247.5V904.94H254.34V908.72C255.46 907.36 256.88 906.3 258.6 905.54C260.32 904.78 262.16 904.4 264.12 904.4C266.76 904.4 269.12 904.96 271.2 906.08C273.28 907.2 274.88 908.82 276 910.94C277 908.94 278.56 907.36 280.68 906.2C282.8 905 285.08 904.4 287.52 904.4ZM339.604 904.94L319.324 953.54H312.244L318.964 937.46L305.944 904.94H313.564L322.864 930.14L332.524 904.94H339.604ZM372.352 938.54C369.752 938.54 367.412 938.08 365.332 937.16C363.292 936.2 361.672 934.92 360.472 933.32C359.272 931.68 358.632 929.86 358.552 927.86H365.632C365.752 929.26 366.412 930.44 367.612 931.4C368.852 932.32 370.392 932.78 372.232 932.78C374.152 932.78 375.632 932.42 376.672 931.7C377.752 930.94 378.292 929.98 378.292 928.82C378.292 927.58 377.692 926.66 376.492 926.06C375.332 925.46 373.472 924.8 370.912 924.08C368.432 923.4 366.412 922.74 364.852 922.1C363.292 921.46 361.932 920.48 360.772 919.16C359.652 917.84 359.092 916.1 359.092 913.94C359.092 912.18 359.612 910.58 360.652 909.14C361.692 907.66 363.172 906.5 365.092 905.66C367.052 904.82 369.292 904.4 371.812 904.4C375.572 904.4 378.592 905.36 380.872 907.28C383.192 909.16 384.432 911.74 384.592 915.02H377.752C377.632 913.54 377.032 912.36 375.952 911.48C374.872 910.6 373.412 910.16 371.572 910.16C369.772 910.16 368.392 910.5 367.432 911.18C366.472 911.86 365.992 912.76 365.992 913.88C365.992 914.76 366.312 915.5 366.952 916.1C367.592 916.7 368.372 917.18 369.292 917.54C370.212 917.86 371.572 918.28 373.372 918.8C375.772 919.44 377.732 920.1 379.252 920.78C380.812 921.42 382.152 922.38 383.272 923.66C384.392 924.94 384.972 926.64 385.012 928.76C385.012 930.64 384.492 932.32 383.452 933.8C382.412 935.28 380.932 936.44 379.012 937.28C377.132 938.12 374.912 938.54 372.352 938.54ZM400.382 910.52V928.82C400.382 930.06 400.662 930.96 401.222 931.52C401.822 932.04 402.822 932.3 404.222 932.3H408.422V938H403.022C399.942 938 397.582 937.28 395.942 935.84C394.302 934.4 393.482 932.06 393.482 928.82V910.52H389.582V904.94H393.482V896.72H400.382V904.94H408.422V910.52H400.382ZM421.567 909.74C422.567 908.06 423.887 906.76 425.527 905.84C427.207 904.88 429.187 904.4 431.467 904.4V911.48H429.727C427.047 911.48 425.007 912.16 423.607 913.52C422.247 914.88 421.567 917.24 421.567 920.6V938H414.727V904.94H421.567V909.74ZM452.094 938.54C448.974 938.54 446.154 937.84 443.634 936.44C441.114 935 439.134 933 437.694 930.44C436.254 927.84 435.534 924.84 435.534 921.44C435.534 918.08 436.274 915.1 437.754 912.5C439.234 909.9 441.254 907.9 443.814 906.5C446.374 905.1 449.234 904.4 452.394 904.4C455.554 904.4 458.414 905.1 460.974 906.5C463.534 907.9 465.554 909.9 467.034 912.5C468.514 915.1 469.254 918.08 469.254 921.44C469.254 924.8 468.494 927.78 466.974 930.38C465.454 932.98 463.374 935 460.734 936.44C458.134 937.84 455.254 938.54 452.094 938.54ZM452.094 932.6C453.854 932.6 455.494 932.18 457.014 931.34C458.574 930.5 459.834 929.24 460.794 927.56C461.754 925.88 462.234 923.84 462.234 921.44C462.234 919.04 461.774 917.02 460.854 915.38C459.934 913.7 458.714 912.44 457.194 911.6C455.674 910.76 454.034 910.34 452.274 910.34C450.514 910.34 448.874 910.76 447.354 911.6C445.874 912.44 444.694 913.7 443.814 915.38C442.934 917.02 442.494 919.04 442.494 921.44C442.494 925 443.394 927.76 445.194 929.72C447.034 931.64 449.334 932.6 452.094 932.6ZM492.696 904.4C495.296 904.4 497.616 904.94 499.656 906.02C501.736 907.1 503.356 908.7 504.516 910.82C505.676 912.94 506.256 915.5 506.256 918.5V938H499.476V919.52C499.476 916.56 498.736 914.3 497.256 912.74C495.776 911.14 493.756 910.34 491.196 910.34C488.636 910.34 486.596 911.14 485.076 912.74C483.596 914.3 482.856 916.56 482.856 919.52V938H476.016V904.94H482.856V908.72C483.976 907.36 485.396 906.3 487.116 905.54C488.876 904.78 490.736 904.4 492.696 904.4ZM528.3 904.4C530.86 904.4 533.12 904.92 535.08 905.96C537.08 906.96 538.64 908.22 539.76 909.74V904.94H546.66V938.54C546.66 941.58 546.02 944.28 544.74 946.64C543.46 949.04 541.6 950.92 539.16 952.28C536.76 953.64 533.88 954.32 530.52 954.32C526.04 954.32 522.32 953.26 519.36 951.14C516.4 949.06 514.72 946.22 514.32 942.62H521.1C521.62 944.34 522.72 945.72 524.4 946.76C526.12 947.84 528.16 948.38 530.52 948.38C533.28 948.38 535.5 947.54 537.18 945.86C538.9 944.18 539.76 941.74 539.76 938.54V933.02C538.6 934.58 537.02 935.9 535.02 936.98C533.06 938.02 530.82 938.54 528.3 938.54C525.42 938.54 522.78 937.82 520.38 936.38C518.02 934.9 516.14 932.86 514.74 930.26C513.38 927.62 512.7 924.64 512.7 921.32C512.7 918 513.38 915.06 514.74 912.5C516.14 909.94 518.02 907.96 520.38 906.56C522.78 905.12 525.42 904.4 528.3 904.4ZM539.76 921.44C539.76 919.16 539.28 917.18 538.32 915.5C537.4 913.82 536.18 912.54 534.66 911.66C533.14 910.78 531.5 910.34 529.74 910.34C527.98 910.34 526.34 910.78 524.82 911.66C523.3 912.5 522.06 913.76 521.1 915.44C520.18 917.08 519.72 919.04 519.72 921.32C519.72 923.6 520.18 925.6 521.1 927.32C522.06 929.04 523.3 930.36 524.82 931.28C526.38 932.16 528.02 932.6 529.74 932.6C531.5 932.6 533.14 932.16 534.66 931.28C536.18 930.4 537.4 929.12 538.32 927.44C539.28 925.72 539.76 923.72 539.76 921.44ZM585.945 920.66C585.945 921.9 585.865 923.02 585.705 924.02H560.445C560.645 926.66 561.625 928.78 563.385 930.38C565.145 931.98 567.305 932.78 569.865 932.78C573.545 932.78 576.145 931.24 577.665 928.16H585.045C584.045 931.2 582.225 933.7 579.585 935.66C576.985 937.58 573.745 938.54 569.865 938.54C566.705 938.54 563.865 937.84 561.345 936.44C558.865 935 556.905 933 555.465 930.44C554.065 927.84 553.365 924.84 553.365 921.44C553.365 918.04 554.045 915.06 555.405 912.5C556.805 909.9 558.745 907.9 561.225 906.5C563.745 905.1 566.625 904.4 569.865 904.4C572.985 904.4 575.765 905.08 578.205 906.44C580.645 907.8 582.545 909.72 583.905 912.2C585.265 914.64 585.945 917.46 585.945 920.66ZM578.805 918.5C578.765 915.98 577.865 913.96 576.105 912.44C574.345 910.92 572.165 910.16 569.565 910.16C567.205 910.16 565.185 910.92 563.505 912.44C561.825 913.92 560.825 915.94 560.505 918.5H578.805ZM604.676 938.54C602.076 938.54 599.736 938.08 597.656 937.16C595.616 936.2 593.996 934.92 592.796 933.32C591.596 931.68 590.956 929.86 590.876 927.86H597.956C598.076 929.26 598.736 930.44 599.936 931.4C601.176 932.32 602.716 932.78 604.556 932.78C606.476 932.78 607.956 932.42 608.996 931.7C610.076 930.94 610.616 929.98 610.616 928.82C610.616 927.58 610.016 926.66 608.816 926.06C607.656 925.46 605.796 924.8 603.236 924.08C600.756 923.4 598.736 922.74 597.176 922.1C595.616 921.46 594.256 920.48 593.096 919.16C591.976 917.84 591.416 916.1 591.416 913.94C591.416 912.18 591.936 910.58 592.976 909.14C594.016 907.66 595.496 906.5 597.416 905.66C599.376 904.82 601.616 904.4 604.136 904.4C607.896 904.4 610.916 905.36 613.196 907.28C615.516 909.16 616.756 911.74 616.916 915.02H610.076C609.956 913.54 609.356 912.36 608.276 911.48C607.196 910.6 605.736 910.16 603.896 910.16C602.096 910.16 600.716 910.5 599.756 911.18C598.796 911.86 598.316 912.76 598.316 913.88C598.316 914.76 598.636 915.5 599.276 916.1C599.916 916.7 600.696 917.18 601.616 917.54C602.536 917.86 603.896 918.28 605.696 918.8C608.096 919.44 610.056 920.1 611.576 920.78C613.136 921.42 614.476 922.38 615.596 923.66C616.716 924.94 617.296 926.64 617.336 928.76C617.336 930.64 616.816 932.32 615.776 933.8C614.736 935.28 613.256 936.44 611.336 937.28C609.456 938.12 607.236 938.54 604.676 938.54ZM632.707 910.52V928.82C632.707 930.06 632.987 930.96 633.547 931.52C634.147 932.04 635.147 932.3 636.547 932.3H640.747V938H635.347C632.267 938 629.907 937.28 628.267 935.84C626.627 934.4 625.807 932.06 625.807 928.82V910.52H621.907V904.94H625.807V896.72H632.707V904.94H640.747V910.52H632.707ZM674.637 938.54C672.037 938.54 669.697 938.08 667.617 937.16C665.577 936.2 663.957 934.92 662.757 933.32C661.557 931.68 660.917 929.86 660.837 927.86H667.917C668.037 929.26 668.697 930.44 669.897 931.4C671.137 932.32 672.677 932.78 674.517 932.78C676.437 932.78 677.917 932.42 678.957 931.7C680.037 930.94 680.577 929.98 680.577 928.82C680.577 927.58 679.977 926.66 678.777 926.06C677.617 925.46 675.757 924.8 673.197 924.08C670.717 923.4 668.697 922.74 667.137 922.1C665.577 921.46 664.217 920.48 663.057 919.16C661.937 917.84 661.377 916.1 661.377 913.94C661.377 912.18 661.897 910.58 662.937 909.14C663.977 907.66 665.457 906.5 667.377 905.66C669.337 904.82 671.577 904.4 674.097 904.4C677.857 904.4 680.877 905.36 683.157 907.28C685.477 909.16 686.717 911.74 686.877 915.02H680.037C679.917 913.54 679.317 912.36 678.237 911.48C677.157 910.6 675.697 910.16 673.857 910.16C672.057 910.16 670.677 910.5 669.717 911.18C668.757 911.86 668.277 912.76 668.277 913.88C668.277 914.76 668.597 915.5 669.237 916.1C669.877 916.7 670.657 917.18 671.577 917.54C672.497 917.86 673.857 918.28 675.657 918.8C678.057 919.44 680.017 920.1 681.537 920.78C683.097 921.42 684.437 922.38 685.557 923.66C686.677 924.94 687.257 926.64 687.297 928.76C687.297 930.64 686.777 932.32 685.737 933.8C684.697 935.28 683.217 936.44 681.297 937.28C679.417 938.12 677.197 938.54 674.637 938.54ZM707.768 921.5L723.008 938H713.768L701.528 923.78V938H694.688V893.6H701.528V919.4L713.528 904.94H723.008L707.768 921.5ZM731.39 900.56C730.15 900.56 729.11 900.14 728.27 899.3C727.43 898.46 727.01 897.42 727.01 896.18C727.01 894.94 727.43 893.9 728.27 893.06C729.11 892.22 730.15 891.8 731.39 891.8C732.59 891.8 733.61 892.22 734.45 893.06C735.29 893.9 735.71 894.94 735.71 896.18C735.71 897.42 735.29 898.46 734.45 899.3C733.61 900.14 732.59 900.56 731.39 900.56ZM734.75 904.94V938H727.91V904.94H734.75ZM750.57 893.6V938H743.73V893.6H750.57ZM766.391 893.6V938H759.551V893.6H766.391ZM797.797 909.86C798.957 908.26 800.537 906.96 802.537 905.96C804.577 904.92 806.837 904.4 809.317 904.4C812.237 904.4 814.877 905.1 817.237 906.5C819.597 907.9 821.457 909.9 822.817 912.5C824.177 915.06 824.857 918 824.857 921.32C824.857 924.64 824.177 927.62 822.817 930.26C821.457 932.86 819.577 934.9 817.177 936.38C814.817 937.82 812.197 938.54 809.317 938.54C806.757 938.54 804.477 938.04 802.477 937.04C800.517 936.04 798.957 934.76 797.797 933.2V938H790.957V893.6H797.797V909.86ZM817.897 921.32C817.897 919.04 817.417 917.08 816.457 915.44C815.537 913.76 814.297 912.5 812.737 911.66C811.217 910.78 809.577 910.34 807.817 910.34C806.097 910.34 804.457 910.78 802.897 911.66C801.377 912.54 800.137 913.82 799.177 915.5C798.257 917.18 797.797 919.16 797.797 921.44C797.797 923.72 798.257 925.72 799.177 927.44C800.137 929.12 801.377 930.4 802.897 931.28C804.457 932.16 806.097 932.6 807.817 932.6C809.577 932.6 811.217 932.16 812.737 931.28C814.297 930.36 815.537 929.04 816.457 927.32C817.417 925.6 817.897 923.6 817.897 921.32ZM861.921 920.66C861.921 921.9 861.841 923.02 861.681 924.02H836.421C836.621 926.66 837.601 928.78 839.361 930.38C841.121 931.98 843.281 932.78 845.841 932.78C849.521 932.78 852.121 931.24 853.641 928.16H861.021C860.021 931.2 858.201 933.7 855.561 935.66C852.961 937.58 849.721 938.54 845.841 938.54C842.681 938.54 839.841 937.84 837.321 936.44C834.841 935 832.881 933 831.441 930.44C830.041 927.84 829.341 924.84 829.341 921.44C829.341 918.04 830.021 915.06 831.381 912.5C832.781 909.9 834.721 907.9 837.201 906.5C839.721 905.1 842.601 904.4 845.841 904.4C848.961 904.4 851.741 905.08 854.181 906.44C856.621 907.8 858.521 909.72 859.881 912.2C861.241 914.64 861.921 917.46 861.921 920.66ZM854.781 918.5C854.741 915.98 853.841 913.96 852.081 912.44C850.321 910.92 848.141 910.16 845.541 910.16C843.181 910.16 841.161 910.92 839.481 912.44C837.801 913.92 836.801 915.94 836.481 918.5H854.781ZM876.632 910.52V928.82C876.632 930.06 876.912 930.96 877.472 931.52C878.072 932.04 879.072 932.3 880.472 932.3H884.672V938H879.272C876.192 938 873.832 937.28 872.192 935.84C870.552 934.4 869.732 932.06 869.732 928.82V910.52H865.832V904.94H869.732V896.72H876.632V904.94H884.672V910.52H876.632ZM935.377 904.94L925.117 938H917.917L911.257 913.58L904.597 938H897.397L887.077 904.94H894.037L900.937 931.52L907.957 904.94H915.097L921.817 931.4L928.657 904.94H935.377ZM970.788 920.66C970.788 921.9 970.708 923.02 970.548 924.02H945.288C945.488 926.66 946.468 928.78 948.228 930.38C949.988 931.98 952.148 932.78 954.708 932.78C958.388 932.78 960.988 931.24 962.508 928.16H969.888C968.888 931.2 967.068 933.7 964.428 935.66C961.828 937.58 958.588 938.54 954.708 938.54C951.548 938.54 948.708 937.84 946.188 936.44C943.708 935 941.748 933 940.308 930.44C938.908 927.84 938.208 924.84 938.208 921.44C938.208 918.04 938.888 915.06 940.248 912.5C941.648 909.9 943.588 907.9 946.068 906.5C948.588 905.1 951.468 904.4 954.708 904.4C957.828 904.4 960.608 905.08 963.048 906.44C965.488 907.8 967.388 909.72 968.748 912.2C970.108 914.64 970.788 917.46 970.788 920.66ZM963.648 918.5C963.608 915.98 962.708 913.96 960.948 912.44C959.188 910.92 957.008 910.16 954.408 910.16C952.048 910.16 950.028 910.92 948.348 912.44C946.668 913.92 945.668 915.94 945.348 918.5H963.648ZM1007.82 920.66C1007.82 921.9 1007.74 923.02 1007.58 924.02H982.32C982.52 926.66 983.5 928.78 985.26 930.38C987.02 931.98 989.18 932.78 991.74 932.78C995.42 932.78 998.02 931.24 999.54 928.16H1006.92C1005.92 931.2 1004.1 933.7 1001.46 935.66C998.86 937.58 995.62 938.54 991.74 938.54C988.58 938.54 985.74 937.84 983.22 936.44C980.74 935 978.78 933 977.34 930.44C975.94 927.84 975.24 924.84 975.24 921.44C975.24 918.04 975.92 915.06 977.28 912.5C978.68 909.9 980.62 907.9 983.1 906.5C985.62 905.1 988.5 904.4 991.74 904.4C994.86 904.4 997.64 905.08 1000.08 906.44C1002.52 907.8 1004.42 909.72 1005.78 912.2C1007.14 914.64 1007.82 917.46 1007.82 920.66ZM1000.68 918.5C1000.64 915.98 999.74 913.96 997.98 912.44C996.22 910.92 994.04 910.16 991.44 910.16C989.08 910.16 987.06 910.92 985.38 912.44C983.7 913.92 982.7 915.94 982.38 918.5H1000.68ZM1031.23 904.4C1033.83 904.4 1036.15 904.94 1038.19 906.02C1040.27 907.1 1041.89 908.7 1043.05 910.82C1044.21 912.94 1044.79 915.5 1044.79 918.5V938H1038.01V919.52C1038.01 916.56 1037.27 914.3 1035.79 912.74C1034.31 911.14 1032.29 910.34 1029.73 910.34C1027.17 910.34 1025.13 911.14 1023.61 912.74C1022.13 914.3 1021.39 916.56 1021.39 919.52V938H1014.55V904.94H1021.39V908.72C1022.51 907.36 1023.93 906.3 1025.65 905.54C1027.41 904.78 1029.27 904.4 1031.23 904.4ZM1077.08 910.52V928.82C1077.08 930.06 1077.36 930.96 1077.92 931.52C1078.52 932.04 1079.52 932.3 1080.92 932.3H1085.12V938H1079.72C1076.64 938 1074.28 937.28 1072.64 935.84C1071 934.4 1070.18 932.06 1070.18 928.82V910.52H1066.28V904.94H1070.18V896.72H1077.08V904.94H1085.12V910.52H1077.08ZM1108.53 904.4C1111.05 904.4 1113.29 904.94 1115.25 906.02C1117.25 907.1 1118.81 908.7 1119.93 910.82C1121.09 912.94 1121.67 915.5 1121.67 918.5V938H1114.89V919.52C1114.89 916.56 1114.15 914.3 1112.67 912.74C1111.19 911.14 1109.17 910.34 1106.61 910.34C1104.05 910.34 1102.01 911.14 1100.49 912.74C1099.01 914.3 1098.27 916.56 1098.27 919.52V938H1091.43V893.6H1098.27V908.78C1099.43 907.38 1100.89 906.3 1102.65 905.54C1104.45 904.78 1106.41 904.4 1108.53 904.4ZM1160.69 920.66C1160.69 921.9 1160.61 923.02 1160.45 924.02H1135.19C1135.39 926.66 1136.37 928.78 1138.13 930.38C1139.89 931.98 1142.05 932.78 1144.61 932.78C1148.29 932.78 1150.89 931.24 1152.41 928.16H1159.79C1158.79 931.2 1156.97 933.7 1154.33 935.66C1151.73 937.58 1148.49 938.54 1144.61 938.54C1141.45 938.54 1138.61 937.84 1136.09 936.44C1133.61 935 1131.65 933 1130.21 930.44C1128.81 927.84 1128.11 924.84 1128.11 921.44C1128.11 918.04 1128.79 915.06 1130.15 912.5C1131.55 909.9 1133.49 907.9 1135.97 906.5C1138.49 905.1 1141.37 904.4 1144.61 904.4C1147.73 904.4 1150.51 905.08 1152.95 906.44C1155.39 907.8 1157.29 909.72 1158.65 912.2C1160.01 914.64 1160.69 917.46 1160.69 920.66ZM1153.55 918.5C1153.51 915.98 1152.61 913.96 1150.85 912.44C1149.09 910.92 1146.91 910.16 1144.31 910.16C1141.95 910.16 1139.93 910.92 1138.25 912.44C1136.57 913.92 1135.57 915.94 1135.25 918.5H1153.55ZM1190.99 910.52V928.82C1190.99 930.06 1191.27 930.96 1191.83 931.52C1192.43 932.04 1193.43 932.3 1194.83 932.3H1199.03V938H1193.63C1190.55 938 1188.19 937.28 1186.55 935.84C1184.91 934.4 1184.09 932.06 1184.09 928.82V910.52H1180.19V904.94H1184.09V896.72H1190.99V904.94H1199.03V910.52H1190.99ZM1249.73 904.94L1239.47 938H1232.27L1225.61 913.58L1218.95 938H1211.75L1201.43 904.94H1208.39L1215.29 931.52L1222.31 904.94H1229.45L1236.17 931.4L1243.01 904.94H1249.73ZM1269.18 938.54C1266.06 938.54 1263.24 937.84 1260.72 936.44C1258.2 935 1256.22 933 1254.78 930.44C1253.34 927.84 1252.62 924.84 1252.62 921.44C1252.62 918.08 1253.36 915.1 1254.84 912.5C1256.32 909.9 1258.34 907.9 1260.9 906.5C1263.46 905.1 1266.32 904.4 1269.48 904.4C1272.64 904.4 1275.5 905.1 1278.06 906.5C1280.62 907.9 1282.64 909.9 1284.12 912.5C1285.6 915.1 1286.34 918.08 1286.34 921.44C1286.34 924.8 1285.58 927.78 1284.06 930.38C1282.54 932.98 1280.46 935 1277.82 936.44C1275.22 937.84 1272.34 938.54 1269.18 938.54ZM1269.18 932.6C1270.94 932.6 1272.58 932.18 1274.1 931.34C1275.66 930.5 1276.92 929.24 1277.88 927.56C1278.84 925.88 1279.32 923.84 1279.32 921.44C1279.32 919.04 1278.86 917.02 1277.94 915.38C1277.02 913.7 1275.8 912.44 1274.28 911.6C1272.76 910.76 1271.12 910.34 1269.36 910.34C1267.6 910.34 1265.96 910.76 1264.44 911.6C1262.96 912.44 1261.78 913.7 1260.9 915.38C1260.02 917.02 1259.58 919.04 1259.58 921.44C1259.58 925 1260.48 927.76 1262.28 929.72C1264.12 931.64 1266.42 932.6 1269.18 932.6ZM1353.09 904.94L1342.83 938H1335.63L1328.97 913.58L1322.31 938H1315.11L1304.79 904.94H1311.75L1318.65 931.52L1325.67 904.94H1332.81L1339.53 931.4L1346.37 904.94H1353.09ZM1372.54 938.54C1369.42 938.54 1366.6 937.84 1364.08 936.44C1361.56 935 1359.58 933 1358.14 930.44C1356.7 927.84 1355.98 924.84 1355.98 921.44C1355.98 918.08 1356.72 915.1 1358.2 912.5C1359.68 909.9 1361.7 907.9 1364.26 906.5C1366.82 905.1 1369.68 904.4 1372.84 904.4C1376 904.4 1378.86 905.1 1381.42 906.5C1383.98 907.9 1386 909.9 1387.48 912.5C1388.96 915.1 1389.7 918.08 1389.7 921.44C1389.7 924.8 1388.94 927.78 1387.42 930.38C1385.9 932.98 1383.82 935 1381.18 936.44C1378.58 937.84 1375.7 938.54 1372.54 938.54ZM1372.54 932.6C1374.3 932.6 1375.94 932.18 1377.46 931.34C1379.02 930.5 1380.28 929.24 1381.24 927.56C1382.2 925.88 1382.68 923.84 1382.68 921.44C1382.68 919.04 1382.22 917.02 1381.3 915.38C1380.38 913.7 1379.16 912.44 1377.64 911.6C1376.12 910.76 1374.48 910.34 1372.72 910.34C1370.96 910.34 1369.32 910.76 1367.8 911.6C1366.32 912.44 1365.14 913.7 1364.26 915.38C1363.38 917.02 1362.94 919.04 1362.94 921.44C1362.94 925 1363.84 927.76 1365.64 929.72C1367.48 931.64 1369.78 932.6 1372.54 932.6ZM1426.4 904.94V938H1419.56V934.1C1418.48 935.46 1417.06 936.54 1415.3 937.34C1413.58 938.1 1411.74 938.48 1409.78 938.48C1407.18 938.48 1404.84 937.94 1402.76 936.86C1400.72 935.78 1399.1 934.18 1397.9 932.06C1396.74 929.94 1396.16 927.38 1396.16 924.38V904.94H1402.94V923.36C1402.94 926.32 1403.68 928.6 1405.16 930.2C1406.64 931.76 1408.66 932.54 1411.22 932.54C1413.78 932.54 1415.8 931.76 1417.28 930.2C1418.8 928.6 1419.56 926.32 1419.56 923.36V904.94H1426.4ZM1442.27 893.6V938H1435.43V893.6H1442.27ZM1448.97 921.32C1448.97 918 1449.65 915.06 1451.01 912.5C1452.41 909.94 1454.29 907.96 1456.65 906.56C1459.05 905.12 1461.71 904.4 1464.63 904.4C1466.79 904.4 1468.91 904.88 1470.99 905.84C1473.11 906.76 1474.79 908 1476.03 909.56V893.6H1482.93V938H1476.03V933.02C1474.91 934.62 1473.35 935.94 1471.35 936.98C1469.39 938.02 1467.13 938.54 1464.57 938.54C1461.69 938.54 1459.05 937.82 1456.65 936.38C1454.29 934.9 1452.41 932.86 1451.01 930.26C1449.65 927.62 1448.97 924.64 1448.97 921.32ZM1476.03 921.44C1476.03 919.16 1475.55 917.18 1474.59 915.5C1473.67 913.82 1472.45 912.54 1470.93 911.66C1469.41 910.78 1467.77 910.34 1466.01 910.34C1464.25 910.34 1462.61 910.78 1461.09 911.66C1459.57 912.5 1458.33 913.76 1457.37 915.44C1456.45 917.08 1455.99 919.04 1455.99 921.32C1455.99 923.6 1456.45 925.6 1457.37 927.32C1458.33 929.04 1459.57 930.36 1461.09 931.28C1462.65 932.16 1464.29 932.6 1466.01 932.6C1467.77 932.6 1469.41 932.16 1470.93 931.28C1472.45 930.4 1473.67 929.12 1474.59 927.44C1475.55 925.72 1476.03 923.72 1476.03 921.44ZM254.34 999.86C255.5 998.26 257.08 996.96 259.08 995.96C261.12 994.92 263.38 994.4 265.86 994.4C268.78 994.4 271.42 995.1 273.78 996.5C276.14 997.9 278 999.9 279.36 1002.5C280.72 1005.06 281.4 1008 281.4 1011.32C281.4 1014.64 280.72 1017.62 279.36 1020.26C278 1022.86 276.12 1024.9 273.72 1026.38C271.36 1027.82 268.74 1028.54 265.86 1028.54C263.3 1028.54 261.02 1028.04 259.02 1027.04C257.06 1026.04 255.5 1024.76 254.34 1023.2V1028H247.5V983.6H254.34V999.86ZM274.44 1011.32C274.44 1009.04 273.96 1007.08 273 1005.44C272.08 1003.76 270.84 1002.5 269.28 1001.66C267.76 1000.78 266.12 1000.34 264.36 1000.34C262.64 1000.34 261 1000.78 259.44 1001.66C257.92 1002.54 256.68 1003.82 255.72 1005.5C254.8 1007.18 254.34 1009.16 254.34 1011.44C254.34 1013.72 254.8 1015.72 255.72 1017.44C256.68 1019.12 257.92 1020.4 259.44 1021.28C261 1022.16 262.64 1022.6 264.36 1022.6C266.12 1022.6 267.76 1022.16 269.28 1021.28C270.84 1020.36 272.08 1019.04 273 1017.32C273.96 1015.6 274.44 1013.6 274.44 1011.32ZM318.464 1010.66C318.464 1011.9 318.384 1013.02 318.224 1014.02H292.964C293.164 1016.66 294.144 1018.78 295.904 1020.38C297.664 1021.98 299.824 1022.78 302.384 1022.78C306.064 1022.78 308.664 1021.24 310.184 1018.16H317.564C316.564 1021.2 314.744 1023.7 312.104 1025.66C309.504 1027.58 306.264 1028.54 302.384 1028.54C299.224 1028.54 296.384 1027.84 293.864 1026.44C291.384 1025 289.424 1023 287.984 1020.44C286.584 1017.84 285.884 1014.84 285.884 1011.44C285.884 1008.04 286.564 1005.06 287.924 1002.5C289.324 999.9 291.264 997.9 293.744 996.5C296.264 995.1 299.144 994.4 302.384 994.4C305.504 994.4 308.284 995.08 310.724 996.44C313.164 997.8 315.064 999.72 316.424 1002.2C317.784 1004.64 318.464 1007.46 318.464 1010.66ZM311.324 1008.5C311.284 1005.98 310.384 1003.96 308.624 1002.44C306.864 1000.92 304.684 1000.16 302.084 1000.16C299.724 1000.16 297.704 1000.92 296.024 1002.44C294.344 1003.92 293.344 1005.94 293.024 1008.5H311.324ZM385.181 994.94L374.921 1028H367.721L361.061 1003.58L354.401 1028H347.201L336.881 994.94H343.841L350.741 1021.52L357.761 994.94H364.901L371.621 1021.4L378.461 994.94H385.181ZM420.593 1010.66C420.593 1011.9 420.513 1013.02 420.353 1014.02H395.093C395.293 1016.66 396.273 1018.78 398.033 1020.38C399.793 1021.98 401.953 1022.78 404.513 1022.78C408.193 1022.78 410.793 1021.24 412.313 1018.16H419.693C418.693 1021.2 416.873 1023.7 414.233 1025.66C411.633 1027.58 408.393 1028.54 404.513 1028.54C401.353 1028.54 398.513 1027.84 395.993 1026.44C393.513 1025 391.553 1023 390.113 1020.44C388.713 1017.84 388.013 1014.84 388.013 1011.44C388.013 1008.04 388.693 1005.06 390.053 1002.5C391.453 999.9 393.393 997.9 395.873 996.5C398.393 995.1 401.273 994.4 404.513 994.4C407.633 994.4 410.413 995.08 412.853 996.44C415.293 997.8 417.193 999.72 418.553 1002.2C419.913 1004.64 420.593 1007.46 420.593 1010.66ZM413.453 1008.5C413.413 1005.98 412.513 1003.96 410.753 1002.44C408.993 1000.92 406.813 1000.16 404.213 1000.16C401.853 1000.16 399.833 1000.92 398.153 1002.44C396.473 1003.92 395.473 1005.94 395.153 1008.5H413.453ZM434.164 999.86C435.324 998.26 436.904 996.96 438.904 995.96C440.944 994.92 443.204 994.4 445.684 994.4C448.604 994.4 451.244 995.1 453.604 996.5C455.964 997.9 457.824 999.9 459.184 1002.5C460.544 1005.06 461.224 1008 461.224 1011.32C461.224 1014.64 460.544 1017.62 459.184 1020.26C457.824 1022.86 455.944 1024.9 453.544 1026.38C451.184 1027.82 448.564 1028.54 445.684 1028.54C443.124 1028.54 440.844 1028.04 438.844 1027.04C436.884 1026.04 435.324 1024.76 434.164 1023.2V1028H427.324V983.6H434.164V999.86ZM454.264 1011.32C454.264 1009.04 453.784 1007.08 452.824 1005.44C451.904 1003.76 450.664 1002.5 449.104 1001.66C447.584 1000.78 445.944 1000.34 444.184 1000.34C442.464 1000.34 440.824 1000.78 439.264 1001.66C437.744 1002.54 436.504 1003.82 435.544 1005.5C434.624 1007.18 434.164 1009.16 434.164 1011.44C434.164 1013.72 434.624 1015.72 435.544 1017.44C436.504 1019.12 437.744 1020.4 439.264 1021.28C440.824 1022.16 442.464 1022.6 444.184 1022.6C445.944 1022.6 447.584 1022.16 449.104 1021.28C450.664 1020.36 451.904 1019.04 452.824 1017.32C453.784 1015.6 454.264 1013.6 454.264 1011.32ZM481.294 1011.32C481.294 1008 481.974 1005.06 483.334 1002.5C484.734 999.94 486.614 997.96 488.974 996.56C491.374 995.12 494.034 994.4 496.954 994.4C499.114 994.4 501.234 994.88 503.314 995.84C505.434 996.76 507.114 998 508.354 999.56V983.6H515.254V1028H508.354V1023.02C507.234 1024.62 505.674 1025.94 503.674 1026.98C501.714 1028.02 499.454 1028.54 496.894 1028.54C494.014 1028.54 491.374 1027.82 488.974 1026.38C486.614 1024.9 484.734 1022.86 483.334 1020.26C481.974 1017.62 481.294 1014.64 481.294 1011.32ZM508.354 1011.44C508.354 1009.16 507.874 1007.18 506.914 1005.5C505.994 1003.82 504.774 1002.54 503.254 1001.66C501.734 1000.78 500.094 1000.34 498.334 1000.34C496.574 1000.34 494.934 1000.78 493.414 1001.66C491.894 1002.5 490.654 1003.76 489.694 1005.44C488.774 1007.08 488.314 1009.04 488.314 1011.32C488.314 1013.6 488.774 1015.6 489.694 1017.32C490.654 1019.04 491.894 1020.36 493.414 1021.28C494.974 1022.16 496.614 1022.6 498.334 1022.6C500.094 1022.6 501.734 1022.16 503.254 1021.28C504.774 1020.4 505.994 1019.12 506.914 1017.44C507.874 1015.72 508.354 1013.72 508.354 1011.44ZM554.538 1010.66C554.538 1011.9 554.458 1013.02 554.298 1014.02H529.038C529.238 1016.66 530.218 1018.78 531.978 1020.38C533.738 1021.98 535.898 1022.78 538.458 1022.78C542.138 1022.78 544.738 1021.24 546.258 1018.16H553.638C552.638 1021.2 550.818 1023.7 548.178 1025.66C545.578 1027.58 542.338 1028.54 538.458 1028.54C535.298 1028.54 532.458 1027.84 529.938 1026.44C527.458 1025 525.498 1023 524.058 1020.44C522.658 1017.84 521.958 1014.84 521.958 1011.44C521.958 1008.04 522.638 1005.06 523.998 1002.5C525.398 999.9 527.338 997.9 529.818 996.5C532.338 995.1 535.218 994.4 538.458 994.4C541.578 994.4 544.358 995.08 546.798 996.44C549.238 997.8 551.138 999.72 552.498 1002.2C553.858 1004.64 554.538 1007.46 554.538 1010.66ZM547.398 1008.5C547.358 1005.98 546.458 1003.96 544.698 1002.44C542.938 1000.92 540.758 1000.16 538.158 1000.16C535.798 1000.16 533.778 1000.92 532.098 1002.44C530.418 1003.92 529.418 1005.94 529.098 1008.5H547.398ZM573.27 1028.54C570.67 1028.54 568.33 1028.08 566.25 1027.16C564.21 1026.2 562.59 1024.92 561.39 1023.32C560.19 1021.68 559.55 1019.86 559.47 1017.86H566.55C566.67 1019.26 567.33 1020.44 568.53 1021.4C569.77 1022.32 571.31 1022.78 573.15 1022.78C575.07 1022.78 576.55 1022.42 577.59 1021.7C578.67 1020.94 579.21 1019.98 579.21 1018.82C579.21 1017.58 578.61 1016.66 577.41 1016.06C576.25 1015.46 574.39 1014.8 571.83 1014.08C569.35 1013.4 567.33 1012.74 565.77 1012.1C564.21 1011.46 562.85 1010.48 561.69 1009.16C560.57 1007.84 560.01 1006.1 560.01 1003.94C560.01 1002.18 560.53 1000.58 561.57 999.14C562.61 997.66 564.09 996.5 566.01 995.66C567.97 994.82 570.21 994.4 572.73 994.4C576.49 994.4 579.51 995.36 581.79 997.28C584.11 999.16 585.35 1001.74 585.51 1005.02H578.67C578.55 1003.54 577.95 1002.36 576.87 1001.48C575.79 1000.6 574.33 1000.16 572.49 1000.16C570.69 1000.16 569.31 1000.5 568.35 1001.18C567.39 1001.86 566.91 1002.76 566.91 1003.88C566.91 1004.76 567.23 1005.5 567.87 1006.1C568.51 1006.7 569.29 1007.18 570.21 1007.54C571.13 1007.86 572.49 1008.28 574.29 1008.8C576.69 1009.44 578.65 1010.1 580.17 1010.78C581.73 1011.42 583.07 1012.38 584.19 1013.66C585.31 1014.94 585.89 1016.64 585.93 1018.76C585.93 1020.64 585.41 1022.32 584.37 1023.8C583.33 1025.28 581.85 1026.44 579.93 1027.28C578.05 1028.12 575.83 1028.54 573.27 1028.54ZM596.8 990.56C595.56 990.56 594.52 990.14 593.68 989.3C592.84 988.46 592.42 987.42 592.42 986.18C592.42 984.94 592.84 983.9 593.68 983.06C594.52 982.22 595.56 981.8 596.8 981.8C598 981.8 599.02 982.22 599.86 983.06C600.7 983.9 601.12 984.94 601.12 986.18C601.12 987.42 600.7 988.46 599.86 989.3C599.02 990.14 598 990.56 596.8 990.56ZM600.16 994.94V1028H593.32V994.94H600.16ZM622.461 994.4C625.021 994.4 627.281 994.92 629.241 995.96C631.241 996.96 632.801 998.22 633.921 999.74V994.94H640.821V1028.54C640.821 1031.58 640.181 1034.28 638.901 1036.64C637.621 1039.04 635.761 1040.92 633.321 1042.28C630.921 1043.64 628.041 1044.32 624.681 1044.32C620.201 1044.32 616.481 1043.26 613.521 1041.14C610.561 1039.06 608.881 1036.22 608.481 1032.62H615.261C615.781 1034.34 616.881 1035.72 618.561 1036.76C620.281 1037.84 622.321 1038.38 624.681 1038.38C627.441 1038.38 629.661 1037.54 631.341 1035.86C633.061 1034.18 633.921 1031.74 633.921 1028.54V1023.02C632.761 1024.58 631.181 1025.9 629.181 1026.98C627.221 1028.02 624.981 1028.54 622.461 1028.54C619.581 1028.54 616.941 1027.82 614.541 1026.38C612.181 1024.9 610.301 1022.86 608.901 1020.26C607.541 1017.62 606.861 1014.64 606.861 1011.32C606.861 1008 607.541 1005.06 608.901 1002.5C610.301 999.94 612.181 997.96 614.541 996.56C616.941 995.12 619.581 994.4 622.461 994.4ZM633.921 1011.44C633.921 1009.16 633.441 1007.18 632.481 1005.5C631.561 1003.82 630.341 1002.54 628.821 1001.66C627.301 1000.78 625.661 1000.34 623.901 1000.34C622.141 1000.34 620.501 1000.78 618.981 1001.66C617.461 1002.5 616.221 1003.76 615.261 1005.44C614.341 1007.08 613.881 1009.04 613.881 1011.32C613.881 1013.6 614.341 1015.6 615.261 1017.32C616.221 1019.04 617.461 1020.36 618.981 1021.28C620.541 1022.16 622.181 1022.6 623.901 1022.6C625.661 1022.6 627.301 1022.16 628.821 1021.28C630.341 1020.4 631.561 1019.12 632.481 1017.44C633.441 1015.72 633.921 1013.72 633.921 1011.44ZM666.485 994.4C669.085 994.4 671.405 994.94 673.445 996.02C675.525 997.1 677.145 998.7 678.305 1000.82C679.465 1002.94 680.045 1005.5 680.045 1008.5V1028H673.265V1009.52C673.265 1006.56 672.525 1004.3 671.045 1002.74C669.565 1001.14 667.545 1000.34 664.985 1000.34C662.425 1000.34 660.385 1001.14 658.865 1002.74C657.385 1004.3 656.645 1006.56 656.645 1009.52V1028H649.805V994.94H656.645V998.72C657.765 997.36 659.185 996.3 660.905 995.54C662.665 994.78 664.525 994.4 666.485 994.4ZM691.53 1028.42C690.29 1028.42 689.25 1028 688.41 1027.16C687.57 1026.32 687.15 1025.28 687.15 1024.04C687.15 1022.8 687.57 1021.76 688.41 1020.92C689.25 1020.08 690.29 1019.66 691.53 1019.66C692.73 1019.66 693.75 1020.08 694.59 1020.92C695.43 1021.76 695.85 1022.8 695.85 1024.04C695.85 1025.28 695.43 1026.32 694.59 1027.16C693.75 1028 692.73 1028.42 691.53 1028.42Z" fill="#FFA187"/>
<path d="M280.8 1203.3V1245H273.96V1226.76H254.34V1245H247.5V1203.3H254.34V1221.18H273.96V1203.3H280.8ZM293.285 1207.56C292.045 1207.56 291.005 1207.14 290.165 1206.3C289.325 1205.46 288.905 1204.42 288.905 1203.18C288.905 1201.94 289.325 1200.9 290.165 1200.06C291.005 1199.22 292.045 1198.8 293.285 1198.8C294.485 1198.8 295.505 1199.22 296.345 1200.06C297.185 1200.9 297.605 1201.94 297.605 1203.18C297.605 1204.42 297.185 1205.46 296.345 1206.3C295.505 1207.14 294.485 1207.56 293.285 1207.56ZM296.645 1211.94V1245H289.805V1211.94H296.645ZM312.465 1216.74C313.465 1215.06 314.785 1213.76 316.425 1212.84C318.105 1211.88 320.085 1211.4 322.365 1211.4V1218.48H320.625C317.945 1218.48 315.905 1219.16 314.505 1220.52C313.145 1221.88 312.465 1224.24 312.465 1227.6V1245H305.625V1211.94H312.465V1216.74ZM358.952 1227.66C358.952 1228.9 358.872 1230.02 358.712 1231.02H333.452C333.652 1233.66 334.632 1235.78 336.392 1237.38C338.152 1238.98 340.312 1239.78 342.872 1239.78C346.552 1239.78 349.152 1238.24 350.672 1235.16H358.052C357.052 1238.2 355.232 1240.7 352.592 1242.66C349.992 1244.58 346.752 1245.54 342.872 1245.54C339.712 1245.54 336.872 1244.84 334.352 1243.44C331.872 1242 329.912 1240 328.472 1237.44C327.072 1234.84 326.372 1231.84 326.372 1228.44C326.372 1225.04 327.052 1222.06 328.412 1219.5C329.812 1216.9 331.752 1214.9 334.232 1213.5C336.752 1212.1 339.632 1211.4 342.872 1211.4C345.992 1211.4 348.772 1212.08 351.212 1213.44C353.652 1214.8 355.552 1216.72 356.912 1219.2C358.272 1221.64 358.952 1224.46 358.952 1227.66ZM351.812 1225.5C351.772 1222.98 350.872 1220.96 349.112 1219.44C347.352 1217.92 345.172 1217.16 342.572 1217.16C340.212 1217.16 338.192 1217.92 336.512 1219.44C334.832 1220.92 333.832 1222.94 333.512 1225.5H351.812ZM425.19 1203.3V1245H418.35V1216.44L405.63 1245H400.89L388.11 1216.44V1245H381.27V1203.3H388.65L403.29 1236L417.87 1203.3H425.19ZM464.48 1227.66C464.48 1228.9 464.4 1230.02 464.24 1231.02H438.98C439.18 1233.66 440.16 1235.78 441.92 1237.38C443.68 1238.98 445.84 1239.78 448.4 1239.78C452.08 1239.78 454.68 1238.24 456.2 1235.16H463.58C462.58 1238.2 460.76 1240.7 458.12 1242.66C455.52 1244.58 452.28 1245.54 448.4 1245.54C445.24 1245.54 442.4 1244.84 439.88 1243.44C437.4 1242 435.44 1240 434 1237.44C432.6 1234.84 431.9 1231.84 431.9 1228.44C431.9 1225.04 432.58 1222.06 433.94 1219.5C435.34 1216.9 437.28 1214.9 439.76 1213.5C442.28 1212.1 445.16 1211.4 448.4 1211.4C451.52 1211.4 454.3 1212.08 456.74 1213.44C459.18 1214.8 461.08 1216.72 462.44 1219.2C463.8 1221.64 464.48 1224.46 464.48 1227.66ZM457.34 1225.5C457.3 1222.98 456.4 1220.96 454.64 1219.44C452.88 1217.92 450.7 1217.16 448.1 1217.16C445.74 1217.16 443.72 1217.92 442.04 1219.44C440.36 1220.92 439.36 1222.94 439.04 1225.5H457.34ZM473.971 1245.42C472.731 1245.42 471.691 1245 470.851 1244.16C470.011 1243.32 469.591 1242.28 469.591 1241.04C469.591 1239.8 470.011 1238.76 470.851 1237.92C471.691 1237.08 472.731 1236.66 473.971 1236.66C475.171 1236.66 476.191 1237.08 477.031 1237.92C477.871 1238.76 478.291 1239.8 478.291 1241.04C478.291 1242.28 477.871 1243.32 477.031 1244.16C476.191 1245 475.171 1245.42 473.971 1245.42Z" fill="#F8445F"/>
<path d="M745.061 1227.06C745.646 1226.47 745.646 1225.53 745.061 1224.94L735.515 1215.39C734.929 1214.81 733.979 1214.81 733.393 1215.39C732.808 1215.98 732.808 1216.93 733.393 1217.51L741.879 1226L733.393 1234.49C732.808 1235.07 732.808 1236.02 733.393 1236.61C733.979 1237.19 734.929 1237.19 735.515 1236.61L745.061 1227.06ZM519 1227.5H744V1224.5H519V1227.5Z" fill="#F96BA7"/>
<ellipse cx="2320.5" cy="1359.5" rx="122.5" ry="113.5" fill="#F379B2"/>
<ellipse cx="2638.5" cy="1331.5" rx="90.5" ry="86.5" fill="#FFA33D"/>
<ellipse cx="2262.5" cy="1661.5" rx="57.5" ry="56.5" fill="#FFA187"/>
<ellipse cx="2490.5" cy="1151.5" rx="57.5" ry="56.5" fill="#FF7D10"/>
<path d="M610.5 563.5C609.25 546.25 613.75 528.75 618.25 511.5C622 497 626 482.5 627.25 467.5C628.25 455.75 629.25 444 630.75 432.5C631.5 426.5 632.75 421 636.75 415.75C643.25 407.25 651.75 406.75 660.25 409C675.75 413.25 687.75 422 693.75 437.5C698.75 450 697.5 462.25 694 474.75C692.75 479.5 691.5 484 690.25 488.75C689.5 492.25 691.5 496 695 496.25C699.5 496.75 704 496.75 708.25 496C718 494.25 721.75 486.75 722.5 478.25C723.5 468 722.75 457.75 722.75 447.75C722.75 437.75 725.75 429 732.25 421.5C737.75 415 751 412.25 759.25 414.25C768.75 416.75 776.25 422 781.25 430C787.5 440.25 789.5 451.5 788.25 463.25C786.5 476.75 784.75 490.5 782 503.75C778.5 521.5 778.75 539.25 779 557C779 567 780 577 779.5 586.75C779 598 775 608 764.5 614.25C758.75 617.5 752.5 620.25 745.75 619.5C736.75 618.25 729.25 614.25 723.25 607C714.75 597 711.5 585.25 709 573C707.5 566.25 707 559.5 706.25 552.5C705.5 545.75 701.5 541.75 694.75 541.75C693 541.5 691.25 541 689.5 541C687.5 541 684.75 540.75 684 542C683.25 543.25 683.75 546 684.25 547.75C686 551.75 688.25 555.5 689.75 559.5C694.5 570.5 697.5 581.75 694 593.5C693 597.25 690.25 601.25 687.5 604C680 611.75 671.25 617.25 660.25 619C642.5 621.5 628.75 616.75 619.25 601C612.5 589.75 610.25 577.5 610.5 563.5ZM794.152 570.75C794.402 556.5 798.152 542.75 801.902 529C804.902 517.5 808.152 505.75 807.152 493.5C806.652 487.5 805.402 481.5 804.652 475.75C803.152 464.25 804.652 453.75 809.652 443.25C812.902 436 817.652 430.25 823.652 425.25C828.652 421.25 834.902 420.25 840.902 419.5C845.902 419 851.152 418.75 856.152 418.75C866.652 418.25 873.152 427.5 872.152 437.5C870.902 448 869.402 458.75 869.152 469.25C868.902 483 872.902 496.25 876.902 509.25C882.402 526.75 885.402 544.5 885.652 562.5C886.152 580 877.402 599.5 857.152 608C840.402 615.25 824.152 613 808.902 604.5C802.152 600.75 797.902 594.5 796.402 587C795.152 581.75 794.902 576.25 794.152 570.75Z" fill="#F74360"/>
<path d="M1042.13 400.25C1048.13 416.25 1049.63 433 1048.38 447.25C1048.88 474 1047.13 497.75 1041.63 521.25C1038.88 532 1036.63 543 1034.13 554C1032.63 559.5 1030.13 565 1025.13 568.75C1017.88 573.75 1002.88 571 998.133 562.75C994.633 557.25 992.133 551 989.883 544.75C986.133 535 982.383 525 979.383 515C976.633 505.75 974.883 496 972.883 486.5C971.133 477.25 968.883 468 968.383 458.5C967.883 450.25 968.883 441.75 969.883 433.5C971.383 422.5 973.383 411.75 975.383 400.75C976.883 392.75 982.633 387.75 990.133 384C999.633 379.25 1009.88 378.25 1020.13 380C1031.88 382 1038.38 390.25 1042.13 400.25ZM1033.63 592C1046.63 598.5 1052.63 613.5 1045.13 627.5C1040.88 635 1035.63 641.5 1027.13 644.75C1014.63 649.25 996.133 648.75 987.133 639.5C981.883 634 980.133 627.5 979.633 620.5C979.883 610 984.883 601.75 993.133 595.5C1005.63 585.75 1019.63 585 1033.63 592Z" fill="#F74360"/>
<path d="M310 192C310 249.452 261.3 297 200 297C138.7 297 90 249.452 90 192C90 134.548 138.7 87 200 87C261.3 87 310 134.548 310 192Z" fill="#FFEABB" stroke="#FF7D10" stroke-width="28"/>
<path d="M306 192C306 248.069 258.588 294 199.5 294C140.412 294 93 248.069 93 192C93 135.931 140.412 90 199.5 90C258.588 90 306 135.931 306 192Z" stroke="#FFA33D" stroke-width="14"/>
<path d="M211.92 173.76C215.04 174.72 217.92 175.56 220.8 176.64C226.92 178.8 231.36 182.88 234.48 188.4C235.8 190.8 236.88 193.32 237.48 195.96C238.8 201.12 236.76 205.8 234.48 210.36C231.72 216 228 220.92 222.72 224.28C215.76 228.6 208.44 232.2 200.28 233.4C193.44 234.36 186.72 234.48 180 232.92C172.32 231 166.44 226.92 162.24 219.84C159.24 214.56 157.44 208.92 156.48 203.04C155.28 195.24 155.28 187.32 155.88 179.52C156.12 176.16 156 172.8 156.48 169.56C156.96 164.88 157.92 160.2 158.52 155.52C158.88 153.48 158.88 151.56 158.88 149.52C158.88 146.28 160.56 144 162.96 142.32C166.92 139.32 171.6 137.76 176.52 137.28C182.52 136.8 188.64 136.44 194.76 136.56C202.8 136.68 210.12 138.84 215.88 144.72C218.64 147.48 220.56 150.6 220.56 154.44C220.56 160.2 218.4 165.24 215.16 169.92C214.2 171.24 213.12 172.32 211.92 173.76ZM194.88 186.96C190.56 186.96 186.96 189.24 185.28 193.2C183.96 196.44 185.64 199.56 189 200.04C192.6 200.4 196.2 199.44 199.32 197.52C200.28 196.92 201.12 195.24 201.36 193.92C201.96 189.6 199.44 187.08 194.88 186.96ZM187.32 157.2C183.96 157.2 181.8 158.88 181.56 161.28C181.44 161.76 181.56 162.48 181.8 162.72C184.44 165.6 188.76 165 190.68 161.76C191.64 160.08 191.04 158.28 189.36 157.56C188.52 157.32 187.68 157.2 187.32 157.2ZM267.686 205.56C271.526 211.44 269.246 217.68 265.886 222.12C263.126 225.72 259.646 228.48 254.846 229.2C253.766 229.32 252.806 229.2 251.846 229.2C246.446 229.8 238.526 225.6 237.086 219.72C235.646 214.2 237.086 209.64 240.566 205.44C243.686 201.84 247.286 199.08 252.086 198.72C257.006 198.24 264.326 200.4 267.686 205.56Z" fill="#F86AA6"/>
<path d="M220.92 173.76C224.04 174.72 226.92 175.56 229.8 176.64C235.92 178.8 240.36 182.88 243.48 188.4C244.8 190.8 245.88 193.32 246.48 195.96C247.8 201.12 245.76 205.8 243.48 210.36C240.72 216 237 220.92 231.72 224.28C224.76 228.6 217.44 232.2 209.28 233.4C202.44 234.36 195.72 234.48 189 232.92C181.32 231 175.44 226.92 171.24 219.84C168.24 214.56 166.44 208.92 165.48 203.04C164.28 195.24 164.28 187.32 164.88 179.52C165.12 176.16 165 172.8 165.48 169.56C165.96 164.88 166.92 160.2 167.52 155.52C167.88 153.48 167.88 151.56 167.88 149.52C167.88 146.28 169.56 144 171.96 142.32C175.92 139.32 180.6 137.76 185.52 137.28C191.52 136.8 197.64 136.44 203.76 136.56C211.8 136.68 219.12 138.84 224.88 144.72C227.64 147.48 229.56 150.6 229.56 154.44C229.56 160.2 227.4 165.24 224.16 169.92C223.2 171.24 222.12 172.32 220.92 173.76ZM203.88 186.96C199.56 186.96 195.96 189.24 194.28 193.2C192.96 196.44 194.64 199.56 198 200.04C201.6 200.4 205.2 199.44 208.32 197.52C209.28 196.92 210.12 195.24 210.36 193.92C210.96 189.6 208.44 187.08 203.88 186.96ZM196.32 157.2C192.96 157.2 190.8 158.88 190.56 161.28C190.44 161.76 190.56 162.48 190.8 162.72C193.44 165.6 197.76 165 199.68 161.76C200.64 160.08 200.04 158.28 198.36 157.56C197.52 157.32 196.68 157.2 196.32 157.2ZM276.686 205.56C280.526 211.44 278.246 217.68 274.886 222.12C272.126 225.72 268.646 228.48 263.846 229.2C262.766 229.32 261.806 229.2 260.846 229.2C255.446 229.8 247.526 225.6 246.086 219.72C244.646 214.2 246.086 209.64 249.566 205.44C252.686 201.84 256.286 199.08 261.086 198.72C266.006 198.24 273.326 200.4 276.686 205.56Z" fill="#F74360"/>
</g>
<defs>
<clipPath id="clip0_1298_2892">
<rect width="2679" height="1697" fill="white"/>
</clipPath>
</defs>
</svg>
