<svg width="5103" height="3385" viewBox="0 0 5103 3385" fill="none" xmlns="http://www.w3.org/2000/svg">
<path d="M3661 1874C3661 2662.37 3024.09 3301 2239 3301C1453.91 3301 817 2662.37 817 1874C817 1085.63 1453.91 447 2239 447C3024.09 447 3661 1085.63 3661 1874Z" fill="white" stroke="#008D10" stroke-width="168"/>
<mask id="path-2-outside-1_1633_40" maskUnits="userSpaceOnUse" x="1889" y="1211" width="845" height="1335" fill="black">
<rect fill="white" x="1889" y="1211" width="845" height="1335"/>
<path d="M2318.6 2213.6H2703.8V2516H1919V1241.6H2318.6V2213.6Z"/>
</mask>
<path d="M2318.6 2213.6H2703.8V2516H1919V1241.6H2318.6V2213.6Z" fill="#008D10"/>
<path d="M2318.6 2213.6H2288.6V2243.6H2318.6V2213.6ZM2703.8 2213.6H2733.8V2183.6H2703.8V2213.6ZM2703.8 2516V2546H2733.8V2516H2703.8ZM1919 2516H1889V2546H1919V2516ZM1919 1241.6V1211.6H1889V1241.6H1919ZM2318.6 1241.6H2348.6V1211.6H2318.6V1241.6ZM2318.6 2243.6H2703.8V2183.6H2318.6V2243.6ZM2673.8 2213.6V2516H2733.8V2213.6H2673.8ZM2703.8 2486H1919V2546H2703.8V2486ZM1949 2516V1241.6H1889V2516H1949ZM1919 1271.6H2318.6V1211.6H1919V1271.6ZM2288.6 1241.6V2213.6H2348.6V1241.6H2288.6Z" fill="#008D10" mask="url(#path-2-outside-1_1633_40)"/>
<path d="M3385 1864C3385 2500.31 2872.06 3016 2239.5 3016C1606.94 3016 1094 2500.31 1094 1864C1094 1227.69 1606.94 712 2239.5 712C2872.06 712 3385 1227.69 3385 1864Z" stroke="#008D10" stroke-width="30"/>
</svg>
