<svg width="1920" height="1080" viewBox="0 0 1920 1080" fill="none" xmlns="http://www.w3.org/2000/svg">
<rect width="1920" height="1080" fill="#E6DCD0"/>
<path d="M865.361 425.4C865.361 427.662 865.361 429.923 865.361 432.253C867.974 433.101 870.586 433.95 873.278 434.823C883.476 439.571 887.51 442.912 892.747 452.813C891.286 464.468 886.596 470.78 878.84 479.37C876.965 481.473 875.089 483.575 873.157 485.741C871.714 487.314 870.271 488.886 868.785 490.507C856.594 488.553 851.358 484.326 843.111 475.301C832.78 464.044 824.694 457.15 809.213 455.209C796.359 455.15 785.454 455.521 773.149 459.453C762.223 470.389 758.173 482.191 755.819 497.36C756.607 511.421 760.444 521.976 769.298 533.126C780.971 541.978 791.728 542.521 806.044 543.366C828.397 539.273 844.303 523.195 859.331 507.346C863.308 503.267 867.287 499.189 871.265 495.111C877.404 488.754 883.531 482.386 889.647 476.007C948.997 414.312 948.997 414.312 990.456 410.997C1018.17 410.506 1041.22 414.231 1064.98 429.041C1084.54 450.449 1095.99 476.981 1095.71 506.007C1094.01 520.57 1087.83 532.515 1081.02 545.333C1079.54 548.443 1078.06 551.553 1076.53 554.757C1063.66 571.933 1046.74 580.906 1026.25 586.453C985.948 589.805 961.576 584.898 929.038 560.753C923.556 555.613 920.133 557.327 916.71 547.047C914.451 547.047 915.614 545.333 913.286 545.333C915.316 533.71 919.337 527.478 927.193 518.777C930.006 515.623 930.006 515.623 932.876 512.405C934.319 510.833 935.762 509.26 937.249 507.64C954.467 510.99 965.276 521.759 977.258 534.197C987.713 544.164 1001.73 542.832 1015.23 542.656C1028.78 541.319 1036.52 535.409 1045.44 525.563C1054.14 511.634 1052.35 496.071 1050.21 480.227C1042.97 467.533 1036.07 461.825 1022.83 456.24C1003.49 453.53 988.005 455.618 971.481 466.52C959.879 477.027 950.384 488.556 940.672 500.787C933.398 508.711 933.398 508.711 926.979 514.493C924.72 514.493 925.884 516.207 923.556 516.207C923.556 518.468 920.133 519.017 920.133 521.347C914.744 526.661 914.744 526.661 907.51 532.697C899.345 539.613 891.788 546.343 884.403 554.114C859.695 577.64 839.752 586.927 805.883 587.096C801.479 587.144 797.075 587.193 792.538 587.243C780.176 586.478 770.718 584.099 759.242 579.6C759.242 577.338 755.819 578.504 755.819 576.174C752.218 575.219 749.223 572.007 745.549 571.034C728.138 562.319 724.391 548.542 716.88 530.77C711.489 498.392 712.9 471.43 731 443.604C768.234 405.297 818.446 402.126 865.361 425.4Z" fill="#DD5117"/>
<path d="M557.273 418.547C570.823 438.352 575.46 464.1 581.476 486.946C584.255 497.819 584.255 497.819 591.505 507.64C592.245 505.099 592.985 502.557 593.747 499.939C597.142 488.422 600.633 476.936 604.128 465.449C605.291 461.449 606.454 457.45 607.652 453.329C608.832 449.497 610.013 445.665 611.229 441.717C612.286 438.182 613.344 434.646 614.434 431.004C619.901 419.926 624.908 416.784 636.007 411.693C648.802 409.825 654.398 410.311 665.336 417.35C675.168 426.856 677.134 432.822 680.214 446.04C681.194 450.108 682.174 454.177 683.183 458.368C684.136 462.613 685.089 466.858 686.071 471.232C687.051 475.344 688.031 479.456 689.04 483.693C691.998 496.224 694.828 508.778 697.625 521.347C699.112 527.895 699.112 527.895 700.63 534.575C701.571 538.805 702.512 543.036 703.481 547.395C704.755 553.097 704.755 553.097 706.054 558.914C707.894 569.32 707.894 569.32 707.894 586.453C696.598 586.453 685.301 586.453 673.662 586.453C664.798 567.638 659.944 549.419 655.904 529.057C655.298 526.146 654.691 523.235 654.066 520.236C651.75 508.907 649.7 498.679 649.7 487.08C646.311 487.08 642.922 487.08 639.43 487.08C639.134 488.957 638.839 490.835 638.534 492.769C635.146 511.907 630.129 530.129 624.026 548.546C623.294 550.774 622.563 553.003 621.81 555.3C618.29 565.685 614.743 573.834 608.621 583.027C597.012 585.877 587.794 587.02 575.994 584.887C562.809 576.639 560.885 564.933 556.631 550.473C555.761 547.695 554.891 544.918 553.995 542.055C548.084 522.778 543.367 503.576 540.157 483.653C537.898 483.653 535.638 483.653 533.311 483.653C532.688 487.421 532.066 491.189 531.425 495.071C518.083 574.283 518.083 574.283 505.925 586.453C498.517 587.123 498.517 587.123 490.093 586.882C487.295 586.82 484.497 586.758 481.615 586.694C479.47 586.615 477.326 586.535 475.116 586.453C471.085 571.925 472.594 561.883 476.239 547.354C477.285 543.112 478.331 538.869 479.408 534.498C480.544 530.042 481.681 525.587 482.818 521.132C483.891 516.815 484.963 512.497 486.068 508.048C488.203 499.467 490.367 490.893 492.56 482.326C494.575 474.266 496.484 466.177 498.27 458.062C499.084 454.426 499.898 450.79 500.737 447.044C501.415 443.849 502.094 440.653 502.793 437.361C506.556 427.106 511.31 422.095 519.618 415.12C533.852 409.871 544.045 411.221 557.273 418.547Z" fill="#DD5117"/>
<path d="M1064.98 429.042C1084.54 450.449 1095.99 476.981 1095.71 506.008C1094.01 520.571 1087.83 532.516 1081.02 545.334C1079.54 548.444 1078.06 551.554 1076.53 554.757C1063.66 571.934 1046.74 580.907 1026.25 586.454C985.948 589.805 961.576 584.899 929.039 560.754C923.556 555.614 923.556 555.614 920.133 545.334C917.874 545.334 915.614 545.334 913.287 545.334C915.316 533.711 919.337 527.479 927.193 518.777C930.006 515.624 930.006 515.624 932.876 512.406C934.319 510.833 935.762 509.261 937.249 507.641C954.467 510.991 965.276 521.759 977.258 534.197C987.713 544.165 1001.73 542.833 1015.23 542.657C1028.78 541.32 1036.52 535.41 1045.44 525.564C1054.14 511.635 1052.35 496.072 1050.21 480.227C1042.97 467.534 1036.08 461.826 1022.83 456.241C1003.49 453.531 988.005 455.619 971.481 466.521C959.909 477.001 950.194 488.432 940.672 500.787C938.413 499.657 936.154 498.526 933.826 497.361C933.826 493.968 933.826 490.576 933.826 487.081C937.215 487.081 940.604 487.081 944.095 487.081C947.442 471.167 948.373 463.84 940.672 449.387C942.932 445.995 945.191 442.603 947.519 439.107C930.904 444.04 921.018 454.177 909.355 466.387C907.385 468.398 905.414 470.41 903.384 472.482C894.994 481.048 886.666 489.673 878.332 498.294C872.221 504.599 866.078 510.872 859.933 517.144C858.088 519.076 856.244 521.007 854.344 522.998C840.79 536.822 825.501 550.9 805.536 553.138C790.433 550.746 778.259 548.448 766.089 538.481C761.596 530.985 761.596 530.985 759.242 524.774C763.161 528.06 763.161 528.06 767.158 531.413C780.057 541.322 790.05 542.423 806.044 543.366C828.397 539.274 844.303 523.196 859.331 507.346C863.309 503.268 867.287 499.19 871.265 495.112C877.404 488.755 883.531 482.386 889.648 476.008C938.605 425.116 995.334 385.635 1064.98 429.042Z" fill="#DD5117"/>
<path d="M1409.65 415.119C1409.65 426.427 1409.65 437.735 1409.65 449.386C1399.15 454.641 1388.2 452.858 1376.7 452.598C1356.83 452.332 1339.68 453.316 1320.65 459.666C1319.52 465.32 1318.39 470.974 1317.23 476.799C1344.34 477.93 1371.45 479.061 1399.38 480.226C1402.81 504.213 1402.81 504.213 1399.38 514.493C1381.58 517.467 1364.57 518.348 1346.54 518.133C1342.78 518.11 1342.78 518.11 1338.95 518.087C1332.85 518.047 1326.75 517.985 1320.65 517.919C1320.65 524.704 1320.65 531.489 1320.65 538.479C1342.6 549.468 1374.32 545.611 1398.23 545.118C1406.23 545.333 1406.23 545.333 1409.65 548.759C1409.99 554.462 1410.1 560.18 1410.08 565.893C1410.09 570.557 1410.09 570.557 1410.11 575.316C1409.65 583.026 1409.65 583.026 1406.23 586.453C1393.56 587.324 1380.84 587.087 1368.15 587.095C1364.61 587.137 1361.07 587.179 1357.42 587.222C1333.72 587.268 1314.3 586.548 1293.9 573.388C1277.24 556.71 1277.94 536.404 1277 514.064C1276.86 510.846 1276.73 507.628 1276.59 504.313C1275.7 477.476 1275.04 452.116 1289.41 428.612C1317.12 403.319 1375.65 406.611 1409.65 415.119Z" fill="#DD5117"/>
<path d="M1098.14 411.693C1104.5 412.001 1110.85 412.537 1117.18 413.193C1122.38 413.716 1122.38 413.716 1127.68 414.25C1131.7 414.681 1131.7 414.681 1135.8 415.12C1136.59 417.611 1137.38 420.103 1138.19 422.669C1146.45 448.152 1156 472.771 1166.6 497.36C1168.27 501.276 1168.27 501.276 1169.97 505.271C1172.26 510.635 1174.56 515.992 1176.87 521.347C1179.13 521.347 1181.39 521.347 1183.72 521.347C1184.72 518.935 1185.71 516.523 1186.74 514.038C1196.6 490.275 1206.64 466.601 1216.82 442.975C1220.74 433.742 1224.5 424.437 1228.22 415.12C1240.65 415.12 1253.07 415.12 1265.88 415.12C1269.3 421.973 1269.3 421.973 1267.13 429.334C1265.93 432.338 1264.73 435.342 1263.5 438.437C1261.53 443.425 1261.53 443.425 1259.52 448.513C1258.08 452.053 1256.65 455.592 1255.18 459.238C1253.75 462.831 1252.32 466.423 1250.84 470.124C1246.76 480.357 1242.63 490.575 1238.49 500.787C1237.54 503.14 1236.59 505.493 1235.61 507.918C1231 519.308 1226.23 530.619 1221.38 541.907C1219.94 545.396 1218.51 548.886 1217.03 552.481C1215.57 555.918 1214.11 559.354 1212.6 562.895C1211.33 565.943 1210.05 568.991 1208.74 572.131C1203.54 580.804 1199.98 583.101 1190.57 586.453C1180.51 587.953 1180.51 587.953 1170.03 586.453C1143.6 566.297 1135.13 531.7 1124.12 501.657C1120.55 491.973 1116.82 482.378 1112.92 472.825C1111.98 470.541 1111.05 468.258 1110.09 465.905C1107.49 459.598 1104.87 453.301 1102.25 447.004C1098.34 436.231 1095.88 426.508 1094.72 415.12C1095.85 413.989 1096.98 412.858 1098.14 411.693Z" fill="#DD5117"/>
<path d="M865.362 425.4C865.362 427.661 865.362 429.923 865.362 432.253C867.974 433.101 870.587 433.949 873.278 434.823C883.476 439.571 887.511 442.911 892.748 452.813C891.286 464.468 886.597 470.78 878.841 479.37C876.965 481.472 875.09 483.575 873.158 485.741C871.715 487.314 870.272 488.886 868.785 490.506C856.595 488.553 851.358 484.325 843.111 475.3C832.781 464.043 824.694 457.149 809.213 455.209C796.359 455.149 785.455 455.521 773.149 459.452C762.273 470.339 758.449 482.337 755.819 497.36C755.994 506.994 757.343 515.264 759.242 524.773C754.108 521.346 754.108 521.346 748.973 514.493C747.603 497.491 748.079 485.441 755.819 469.946C746.782 467.685 737.745 465.423 728.434 463.093C725.045 471.574 725.045 471.574 721.587 480.226C718.233 471.412 717.59 467.814 721.48 459.037C737.522 435.401 753.123 418.469 782.202 412.67C813.198 408.811 837.252 411.455 865.362 425.4Z" fill="#DD5117"/>
<path d="M1064.98 429.042C1084.56 450.464 1095.89 476.921 1095.75 505.941C1094.01 520.384 1087.76 532.592 1081.02 545.334C1079.89 543.073 1078.76 540.811 1077.6 538.481C1078.64 535.972 1079.68 533.463 1080.76 530.878C1085.08 519.705 1085.36 511.027 1085.3 499.074C1085.32 495.293 1085.34 491.512 1085.36 487.616C1084.45 476.813 1082.59 469.255 1077.6 459.667C1070.61 456.628 1070.61 456.628 1063.91 456.241C1063.91 453.979 1063.91 451.718 1063.91 449.387C1061.65 449.387 1059.39 449.387 1057.06 449.387C1055.93 459.565 1054.8 469.742 1053.64 480.227C1044.61 472.364 1044.61 472.364 1035.59 464.5C1022.23 453.578 1008.6 454.699 992.02 456.241C968.963 464.674 955.326 481.772 940.672 500.787C938.413 499.657 936.154 498.526 933.826 497.361C933.826 493.968 933.826 490.576 933.826 487.081C937.215 487.081 940.604 487.081 944.095 487.081C947.442 471.167 948.373 463.84 940.672 449.387C942.932 445.995 945.191 442.603 947.519 439.107C930.904 444.04 921.018 454.177 909.355 466.387C907.385 468.398 905.414 470.41 903.384 472.482C894.994 481.048 886.666 489.673 878.332 498.294C872.221 504.599 866.078 510.872 859.933 517.144C858.088 519.076 856.244 521.007 854.344 522.998C840.79 536.822 825.501 550.9 805.536 553.138C790.433 550.746 778.259 548.448 766.089 538.481C761.596 530.985 761.596 530.985 759.242 524.774C763.161 528.061 763.161 528.061 767.158 531.413C780.057 541.322 790.05 542.423 806.044 543.366C828.397 539.274 844.303 523.196 859.331 507.346C863.309 503.268 867.287 499.19 871.265 495.112C877.404 488.755 883.531 482.386 889.648 476.008C938.605 425.116 995.334 385.635 1064.98 429.042Z" fill="#DD5117"/>
<path d="M1098.14 411.693C1110.57 412.824 1122.99 413.955 1135.8 415.12C1137.7 421.057 1139.61 426.993 1141.57 433.11C1148.86 455.016 1157.47 476.173 1166.6 497.36C1168.27 501.276 1168.27 501.276 1169.97 505.271C1172.26 510.635 1174.56 515.992 1176.87 521.347C1179.13 521.347 1181.39 521.347 1183.72 521.347C1185.98 519.085 1188.24 516.823 1190.57 514.493C1188.87 529.805 1188.21 533.991 1176.87 545.333C1172.36 535.156 1167.84 524.979 1163.18 514.493C1162.05 516.755 1160.92 519.017 1159.76 521.347C1152.7 523.488 1152.7 523.488 1146.06 524.773C1146.81 528.378 1146.81 528.378 1147.56 532.055C1149.54 542.166 1151.26 552.299 1152.91 562.467C1144.26 551.96 1139.41 541.855 1134.63 529.137C1132.46 523.406 1132.46 523.406 1130.24 517.559C1128.75 513.579 1127.27 509.599 1125.74 505.498C1122.79 497.672 1119.83 489.846 1116.87 482.02C1115.46 478.243 1114.05 474.465 1112.6 470.572C1107.68 457.763 1102.32 445.169 1096.77 432.623C1094.72 425.4 1094.72 425.4 1098.14 411.693Z" fill="#DD5117"/>
<path d="M1333.94 418.211C1337.93 418.222 1341.93 418.233 1346.04 418.244C1350.23 418.273 1354.42 418.302 1358.73 418.331C1362.95 418.347 1367.16 418.362 1371.5 418.378C1381.94 418.419 1392.37 418.475 1402.81 418.546C1402.81 427.592 1402.81 436.638 1402.81 445.959C1400.58 446.045 1398.35 446.131 1396.06 446.219C1385.97 446.617 1375.88 447.037 1365.79 447.458C1360.53 447.66 1360.53 447.66 1355.17 447.866C1351.8 448.01 1348.44 448.153 1344.97 448.301C1341.87 448.427 1338.77 448.553 1335.57 448.682C1326.98 449.114 1326.98 449.114 1317.23 452.812C1310.98 449.399 1310.98 449.399 1304.6 444.46C1302.47 442.839 1300.34 441.218 1298.14 439.547C1296.53 438.271 1294.92 436.994 1293.26 435.679C1307.48 420.969 1313.48 418.112 1333.94 418.211Z" fill="#DD5117"/>
<path d="M1409.65 415.12C1409.65 426.428 1409.65 437.736 1409.65 449.386C1399.15 454.642 1388.2 452.859 1376.7 452.599C1356.83 452.332 1339.68 453.317 1320.65 459.666C1319.52 465.32 1318.39 470.974 1317.23 476.8C1344.34 477.931 1371.45 479.061 1399.38 480.226C1402.81 504.213 1402.81 504.213 1399.38 514.493C1381.58 517.468 1364.57 518.349 1346.54 518.134C1342.78 518.111 1342.78 518.111 1338.95 518.087C1332.85 518.047 1326.75 517.986 1320.65 517.92C1319.52 524.705 1318.39 531.489 1317.23 538.48C1316.1 538.48 1314.97 538.48 1313.8 538.48C1313.8 529.433 1313.8 520.387 1313.8 511.066C1340.91 511.066 1368.03 511.066 1395.96 511.066C1395.96 502.02 1395.96 492.974 1395.96 483.653C1368.85 483.653 1341.74 483.653 1313.8 483.653C1313.8 456.24 1313.8 456.24 1319.54 449.449C1328.81 445.385 1335.2 444.779 1345.31 444.956C1350.34 445.006 1350.34 445.006 1355.47 445.056C1360.68 445.185 1360.68 445.185 1366.01 445.317C1371.3 445.387 1371.3 445.387 1376.7 445.458C1385.41 445.579 1394.1 445.748 1402.81 445.96C1402.81 436.913 1402.81 427.867 1402.81 418.546C1388.4 418.725 1373.99 419.051 1359.59 419.403C1355.51 419.452 1351.44 419.5 1347.25 419.55C1324.92 420.175 1310.29 420.675 1293.26 435.68C1289.87 437.376 1289.87 437.376 1286.42 439.106C1289.67 430.519 1292.94 425.681 1299.9 419.617C1330.73 406.39 1377.68 407.118 1409.65 415.12Z" fill="#DD5117"/>
<path d="M656.546 411.694C665.96 415.978 665.96 415.978 673.662 425.401C677.147 438.994 679.041 452.577 680.509 466.521C673.676 460.323 673.676 460.323 666.816 452.814C666.676 445.962 666.67 439.106 666.816 432.254C663.833 425.268 663.833 425.268 656.546 421.974C647.239 421.147 638.543 421.512 629.161 421.974C619.832 437.983 615.907 453.833 611.683 471.808C606.138 493.26 598.733 514.121 591.505 535.054C584.215 527.757 583.029 524.635 580.594 514.923C579.98 512.599 579.367 510.276 578.735 507.882C577.711 500.006 578.861 494.601 581.236 487.081C584.625 493.866 588.014 500.65 591.505 507.641C592.615 503.829 592.615 503.829 593.748 499.94C597.142 488.423 600.634 476.937 604.128 465.45C605.291 461.45 606.454 457.451 607.652 453.33C609.422 447.582 609.422 447.582 611.229 441.718C612.286 438.183 613.344 434.647 614.434 431.005C623.138 413.368 637.814 408.96 656.546 411.694Z" fill="#DD5117"/>
<path d="M940.672 514.493C951.746 520.035 956.781 522.979 964.635 531.626C957.788 541.906 957.788 541.906 950.942 548.76C947.553 553.848 947.553 553.848 944.096 559.04C932.328 554.542 932.328 554.542 920.133 548.76C919.004 545.367 917.874 541.975 916.71 538.48C924.618 530.564 932.525 522.649 940.672 514.493Z" fill="#DD5117"/>
<path d="M1317.23 476.8C1344.34 477.931 1371.45 479.061 1399.38 480.226C1402.81 504.213 1402.81 504.213 1399.38 514.493C1381.58 517.468 1364.57 518.349 1346.54 518.134C1344.03 518.119 1341.53 518.103 1338.95 518.087C1332.85 518.047 1326.75 517.986 1320.65 517.92C1319.52 524.705 1318.39 531.489 1317.23 538.48C1316.1 538.48 1314.97 538.48 1313.8 538.48C1313.8 529.433 1313.8 520.387 1313.8 511.066C1340.91 511.066 1368.03 511.066 1395.96 511.066C1395.96 502.02 1395.96 492.974 1395.96 483.653C1371.11 483.653 1346.25 483.653 1320.65 483.653C1319.52 481.392 1318.39 479.13 1317.23 476.8Z" fill="#DD5117"/>
<path d="M642.853 459.667C651.431 468.253 652.136 474.172 654.861 485.955C656.218 491.813 656.218 491.813 657.602 497.788C658.525 501.887 659.447 505.986 660.397 510.21C661.346 514.256 662.295 518.302 663.272 522.471C667.458 540.801 670.8 557.286 670.239 576.173C665.057 566.598 661.939 557.896 659.729 547.247C659.133 544.4 658.537 541.554 657.923 538.62C657.328 535.676 656.732 532.732 656.118 529.699C655.496 526.742 654.874 523.784 654.233 520.737C649.7 498.783 649.7 498.783 649.7 487.08C646.311 487.08 642.922 487.08 639.43 487.08C639.015 489.315 638.6 491.55 638.173 493.853C635.016 510.335 631.551 526.11 625.737 541.907C624.608 541.907 623.478 541.907 622.314 541.907C624.477 524.516 627.95 508.037 632.584 491.149C633.193 488.863 633.802 486.577 634.429 484.222C638.954 467.473 638.954 467.473 642.853 459.667Z" fill="#DD5117"/>
<path d="M947.519 439.106C946.742 441.085 945.966 443.064 945.165 445.103C943.188 453.23 943.188 453.23 949.016 460.523C950.782 462.502 952.547 464.481 954.365 466.52C947.587 471.043 940.809 475.566 933.826 480.226C931.567 477.965 929.307 475.703 926.98 473.373C923.591 474.504 920.202 475.635 916.71 476.8C914.451 475.669 912.191 474.538 909.864 473.373C911.854 462.332 915.016 456.457 922.915 448.53C924.631 446.745 926.348 444.961 928.116 443.122C933.826 439.106 933.826 439.106 947.519 439.106Z" fill="#DD5117"/>
<path d="M1053.64 480.227C1063.01 489.606 1063.26 497.291 1064.48 510.197C1063.91 517.92 1063.91 517.92 1056.21 527.772C1053.1 530.175 1049.99 532.577 1046.79 535.053C1045.17 536.961 1043.54 538.87 1041.87 540.836C1027.53 552.89 1009.95 553.516 992.02 552.187C983.676 548.76 983.676 548.76 978.328 545.333C979.457 543.072 980.587 540.81 981.751 538.48C985.14 539.611 988.529 540.741 992.02 541.907C1006.65 543.333 1019.08 543.539 1032.67 537.623C1043.33 528.838 1049.43 522.19 1051.97 508.336C1052.17 504.997 1052.36 501.657 1052.57 498.217C1052.91 493.154 1052.91 493.154 1053.25 487.99C1053.38 485.428 1053.51 482.866 1053.64 480.227Z" fill="#DD5117"/>
<path d="M533.31 459.667C543.601 469.968 542.197 479.623 543.58 493.933C542.45 490.541 541.321 487.148 540.157 483.653C537.898 483.653 535.638 483.653 533.31 483.653C532.649 487.54 531.987 491.427 531.305 495.432C530.405 500.644 529.504 505.855 528.604 511.067C528.171 513.615 527.739 516.164 527.293 518.79C524.326 535.869 520.574 552.547 516.194 569.32C515.065 569.32 513.935 569.32 512.771 569.32C515.115 545.661 518.755 522.452 523.041 499.073C523.65 495.645 524.259 492.218 524.886 488.686C525.477 485.435 526.069 482.184 526.678 478.834C527.212 475.89 527.746 472.946 528.296 469.913C529.887 463.093 529.887 463.093 533.31 459.667Z" fill="#DD5117"/>
<path d="M1026.25 449.386C1035.7 451.114 1044.43 453.456 1053.64 456.239C1053.64 464.155 1053.64 472.071 1053.64 480.226C1051.99 478.782 1050.34 477.337 1048.64 475.849C1045.39 473.033 1045.39 473.033 1042.08 470.16C1039.94 468.292 1037.8 466.423 1035.59 464.498C1026 456.66 1019.99 455.771 1007.85 455.811C1003.89 455.798 1003.89 455.798 999.856 455.784C992.25 456.226 985.632 457.563 978.328 459.666C990.798 443.949 1007.85 447.859 1026.25 449.386Z" fill="#DD5117"/>
<path d="M478.54 545.333C479.669 545.333 480.799 545.333 481.963 545.333C481.963 555.511 481.963 565.688 481.963 576.173C491 577.304 500.037 578.435 509.348 579.6C508.219 581.862 507.089 584.123 505.925 586.453C495.758 586.453 485.591 586.453 475.116 586.453C470.431 570.975 473.505 560.453 478.54 545.333Z" fill="#DD5117"/>
<path d="M1163.18 497.36C1168.47 505.305 1172.75 512.802 1176.87 521.347C1179.13 521.347 1181.39 521.347 1183.72 521.347C1185.98 519.085 1188.24 516.823 1190.57 514.493C1188.99 528.736 1187.55 535.789 1176.87 545.333C1174.56 539.92 1172.29 534.492 1170.03 529.057C1168.76 526.035 1167.49 523.014 1166.18 519.901C1163.18 511.067 1163.18 511.067 1163.18 497.36Z" fill="#DD5117"/>
<path d="M954.365 463.093C961.639 464.378 961.639 464.378 968.058 466.52C963.812 479.27 957.935 482.369 947.519 490.507C944.13 495.595 944.13 495.595 940.672 500.787C938.413 499.656 936.154 498.525 933.826 497.36C933.826 493.968 933.826 490.575 933.826 487.08C937.215 487.08 940.604 487.08 944.096 487.08C944.519 484.394 944.943 481.709 945.379 478.942C947.519 469.947 947.519 469.947 954.365 463.093Z" fill="#DD5117"/>
<path d="M872.208 445.96C880.681 447.656 880.681 447.656 889.324 449.387C890.454 453.91 891.584 458.433 892.748 463.093C879.91 466.948 879.91 466.948 872.208 463.093C872.208 457.439 872.208 451.785 872.208 445.96Z" fill="#DD5117"/>
<path d="M926.98 500.787C929.239 501.917 931.498 503.048 933.826 504.213C930.437 509.302 930.437 509.302 926.98 514.493C924.72 514.493 922.461 514.493 920.133 514.493C920.133 516.755 920.133 519.016 920.133 521.347C914.891 526.513 914.891 526.513 908.152 532.055C905.928 533.901 903.704 535.748 901.412 537.65C899.683 539.055 897.953 540.459 896.171 541.907C896.171 531.627 896.171 531.627 902.91 523.876C907.199 519.762 907.199 519.762 911.575 515.564C914.435 512.795 917.294 510.025 920.24 507.171C922.464 505.064 924.688 502.957 926.98 500.787Z" fill="#DD5117"/>
<path d="M786.628 418.547C778.586 426.597 773.083 427.907 762.238 430.969C759.122 431.861 756.007 432.753 752.797 433.673C750.405 434.335 748.014 434.998 745.55 435.681C767.438 412.586 767.438 412.586 786.628 418.547Z" fill="#DD5117"/>
<path d="M1053.64 480.227C1061.85 488.442 1061.66 491.647 1062.62 502.928C1062.88 505.729 1063.14 508.529 1063.4 511.415C1063.57 513.561 1063.74 515.708 1063.91 517.92C1060.52 519.051 1057.13 520.181 1053.64 521.347C1053.64 507.777 1053.64 494.207 1053.64 480.227Z" fill="#DD5117"/>
<path d="M755.819 452.813C765.986 454.51 765.986 454.51 776.358 456.24C768.159 466.175 761.596 468.239 748.973 469.947C748.973 466.554 748.973 463.162 748.973 459.667C751.232 459.667 753.491 459.667 755.819 459.667C755.819 457.405 755.819 455.144 755.819 452.813Z" fill="#DD5117"/>
<path d="M490.45 655.85V666.05H502.45V670.7H490.45V681.35H503.95V686H484.75V651.2H503.95V655.85H490.45ZM516.671 649V686H510.971V649H516.671ZM549.404 671.55C549.404 672.583 549.338 673.517 549.204 674.35H528.154C528.321 676.55 529.138 678.317 530.604 679.65C532.071 680.983 533.871 681.65 536.004 681.65C539.071 681.65 541.238 680.367 542.504 677.8H548.654C547.821 680.333 546.304 682.417 544.104 684.05C541.938 685.65 539.238 686.45 536.004 686.45C533.371 686.45 531.004 685.867 528.904 684.7C526.838 683.5 525.204 681.833 524.004 679.7C522.838 677.533 522.254 675.033 522.254 672.2C522.254 669.367 522.821 666.883 523.954 664.75C525.121 662.583 526.738 660.917 528.804 659.75C530.904 658.583 533.304 658 536.004 658C538.604 658 540.921 658.567 542.954 659.7C544.988 660.833 546.571 662.433 547.704 664.5C548.838 666.533 549.404 668.883 549.404 671.55ZM543.454 669.75C543.421 667.65 542.671 665.967 541.204 664.7C539.738 663.433 537.921 662.8 535.754 662.8C533.788 662.8 532.104 663.433 530.704 664.7C529.304 665.933 528.471 667.617 528.204 669.75H543.454ZM565.664 680.9L573.464 658.45H579.514L569.014 686H562.214L551.764 658.45H557.864L565.664 680.9ZM581.922 672.1C581.922 669.333 582.489 666.883 583.622 664.75C584.789 662.617 586.356 660.967 588.322 659.8C590.322 658.6 592.522 658 594.922 658C597.089 658 598.972 658.433 600.572 659.3C602.206 660.133 603.506 661.183 604.472 662.45V658.45H610.222V686H604.472V681.9C603.506 683.2 602.189 684.283 600.522 685.15C598.856 686.017 596.956 686.45 594.822 686.45C592.456 686.45 590.289 685.85 588.322 684.65C586.356 683.417 584.789 681.717 583.622 679.55C582.489 677.35 581.922 674.867 581.922 672.1ZM604.472 672.2C604.472 670.3 604.072 668.65 603.272 667.25C602.506 665.85 601.489 664.783 600.222 664.05C598.956 663.317 597.589 662.95 596.122 662.95C594.656 662.95 593.289 663.317 592.022 664.05C590.756 664.75 589.722 665.8 588.922 667.2C588.156 668.567 587.772 670.2 587.772 672.1C587.772 674 588.156 675.667 588.922 677.1C589.722 678.533 590.756 679.633 592.022 680.4C593.322 681.133 594.689 681.5 596.122 681.5C597.589 681.5 598.956 681.133 600.222 680.4C601.489 679.667 602.506 678.6 603.272 677.2C604.072 675.767 604.472 674.1 604.472 672.2ZM624.359 663.1V678.35C624.359 679.383 624.592 680.133 625.059 680.6C625.559 681.033 626.392 681.25 627.559 681.25H631.059V686H626.559C623.992 686 622.026 685.4 620.659 684.2C619.292 683 618.609 681.05 618.609 678.35V663.1H615.359V658.45H618.609V651.6H624.359V658.45H631.059V663.1H624.359ZM639.213 654.8C638.179 654.8 637.313 654.45 636.613 653.75C635.913 653.05 635.563 652.183 635.563 651.15C635.563 650.117 635.913 649.25 636.613 648.55C637.313 647.85 638.179 647.5 639.213 647.5C640.213 647.5 641.063 647.85 641.763 648.55C642.463 649.25 642.813 650.117 642.813 651.15C642.813 652.183 642.463 653.05 641.763 653.75C641.063 654.45 640.213 654.8 639.213 654.8ZM642.013 658.45V686H636.313V658.45H642.013ZM663.396 658C665.563 658 667.496 658.45 669.196 659.35C670.929 660.25 672.279 661.583 673.246 663.35C674.213 665.117 674.696 667.25 674.696 669.75V686H669.046V670.6C669.046 668.133 668.429 666.25 667.196 664.95C665.963 663.617 664.279 662.95 662.146 662.95C660.013 662.95 658.313 663.617 657.046 664.95C655.813 666.25 655.196 668.133 655.196 670.6V686H649.496V658.45H655.196V661.6C656.129 660.467 657.313 659.583 658.746 658.95C660.213 658.317 661.763 658 663.396 658ZM693.067 658C695.2 658 697.083 658.433 698.717 659.3C700.383 660.133 701.683 661.183 702.617 662.45V658.45H708.367V686.45C708.367 688.983 707.833 691.233 706.767 693.2C705.7 695.2 704.15 696.767 702.117 697.9C700.117 699.033 697.717 699.6 694.917 699.6C691.183 699.6 688.083 698.717 685.617 696.95C683.15 695.217 681.75 692.85 681.417 689.85H687.067C687.5 691.283 688.417 692.433 689.817 693.3C691.25 694.2 692.95 694.65 694.917 694.65C697.217 694.65 699.067 693.95 700.467 692.55C701.9 691.15 702.617 689.117 702.617 686.45V681.85C701.65 683.15 700.333 684.25 698.667 685.15C697.033 686.017 695.167 686.45 693.067 686.45C690.667 686.45 688.467 685.85 686.467 684.65C684.5 683.417 682.933 681.717 681.767 679.55C680.633 677.35 680.067 674.867 680.067 672.1C680.067 669.333 680.633 666.883 681.767 664.75C682.933 662.617 684.5 660.967 686.467 659.8C688.467 658.6 690.667 658 693.067 658ZM702.617 672.2C702.617 670.3 702.217 668.65 701.417 667.25C700.65 665.85 699.633 664.783 698.367 664.05C697.1 663.317 695.733 662.95 694.267 662.95C692.8 662.95 691.433 663.317 690.167 664.05C688.9 664.75 687.867 665.8 687.067 667.2C686.3 668.567 685.917 670.2 685.917 672.1C685.917 674 686.3 675.667 687.067 677.1C687.867 678.533 688.9 679.633 690.167 680.4C691.467 681.133 692.833 681.5 694.267 681.5C695.733 681.5 697.1 681.133 698.367 680.4C699.633 679.667 700.65 678.6 701.417 677.2C702.217 675.767 702.617 674.1 702.617 672.2ZM740.392 663.1H735.292V686H729.542V663.1H726.292V658.45H729.542V656.5C729.542 653.333 730.375 651.033 732.042 649.6C733.742 648.133 736.392 647.4 739.992 647.4V652.15C738.258 652.15 737.042 652.483 736.342 653.15C735.642 653.783 735.292 654.9 735.292 656.5V658.45H740.392V663.1ZM748.343 654.8C747.31 654.8 746.443 654.45 745.743 653.75C745.043 653.05 744.693 652.183 744.693 651.15C744.693 650.117 745.043 649.25 745.743 648.55C746.443 647.85 747.31 647.5 748.343 647.5C749.343 647.5 750.193 647.85 750.893 648.55C751.593 649.25 751.943 650.117 751.943 651.15C751.943 652.183 751.593 653.05 750.893 653.75C750.193 654.45 749.343 654.8 748.343 654.8ZM751.143 658.45V686H745.443V658.45H751.143ZM765.277 663.1V678.35C765.277 679.383 765.51 680.133 765.977 680.6C766.477 681.033 767.31 681.25 768.477 681.25H771.977V686H767.477C764.91 686 762.944 685.4 761.577 684.2C760.21 683 759.527 681.05 759.527 678.35V663.1H756.277V658.45H759.527V651.6H765.277V658.45H771.977V663.1H765.277ZM791.13 658C793.297 658 795.23 658.45 796.93 659.35C798.664 660.25 800.014 661.583 800.98 663.35C801.947 665.117 802.43 667.25 802.43 669.75V686H796.78V670.6C796.78 668.133 796.164 666.25 794.93 664.95C793.697 663.617 792.014 662.95 789.88 662.95C787.747 662.95 786.047 663.617 784.78 664.95C783.547 666.25 782.93 668.133 782.93 670.6V686H777.23V658.45H782.93V661.6C783.864 660.467 785.047 659.583 786.48 658.95C787.947 658.317 789.497 658 791.13 658ZM834.951 671.55C834.951 672.583 834.885 673.517 834.751 674.35H813.701C813.868 676.55 814.685 678.317 816.151 679.65C817.618 680.983 819.418 681.65 821.551 681.65C824.618 681.65 826.785 680.367 828.051 677.8H834.201C833.368 680.333 831.851 682.417 829.651 684.05C827.485 685.65 824.785 686.45 821.551 686.45C818.918 686.45 816.551 685.867 814.451 684.7C812.385 683.5 810.751 681.833 809.551 679.7C808.385 677.533 807.801 675.033 807.801 672.2C807.801 669.367 808.368 666.883 809.501 664.75C810.668 662.583 812.285 660.917 814.351 659.75C816.451 658.583 818.851 658 821.551 658C824.151 658 826.468 658.567 828.501 659.7C830.535 660.833 832.118 662.433 833.251 664.5C834.385 666.533 834.951 668.883 834.951 671.55ZM829.001 669.75C828.968 667.65 828.218 665.967 826.751 664.7C825.285 663.433 823.468 662.8 821.301 662.8C819.335 662.8 817.651 663.433 816.251 664.7C814.851 665.933 814.018 667.617 813.751 669.75H829.001ZM850.561 686.45C848.394 686.45 846.444 686.067 844.711 685.3C843.011 684.5 841.661 683.433 840.661 682.1C839.661 680.733 839.127 679.217 839.061 677.55H844.961C845.061 678.717 845.611 679.7 846.611 680.5C847.644 681.267 848.927 681.65 850.461 681.65C852.061 681.65 853.294 681.35 854.161 680.75C855.061 680.117 855.511 679.317 855.511 678.35C855.511 677.317 855.011 676.55 854.011 676.05C853.044 675.55 851.494 675 849.361 674.4C847.294 673.833 845.611 673.283 844.311 672.75C843.011 672.217 841.877 671.4 840.911 670.3C839.977 669.2 839.511 667.75 839.511 665.95C839.511 664.483 839.944 663.15 840.811 661.95C841.677 660.717 842.911 659.75 844.511 659.05C846.144 658.35 848.011 658 850.111 658C853.244 658 855.761 658.8 857.661 660.4C859.594 661.967 860.627 664.117 860.761 666.85H855.061C854.961 665.617 854.461 664.633 853.561 663.9C852.661 663.167 851.444 662.8 849.911 662.8C848.411 662.8 847.261 663.083 846.461 663.65C845.661 664.217 845.261 664.967 845.261 665.9C845.261 666.633 845.527 667.25 846.061 667.75C846.594 668.25 847.244 668.65 848.011 668.95C848.777 669.217 849.911 669.567 851.411 670C853.411 670.533 855.044 671.083 856.311 671.65C857.611 672.183 858.727 672.983 859.661 674.05C860.594 675.117 861.077 676.533 861.111 678.3C861.111 679.867 860.677 681.267 859.811 682.5C858.944 683.733 857.711 684.7 856.111 685.4C854.544 686.1 852.694 686.45 850.561 686.45ZM877.27 686.45C875.103 686.45 873.153 686.067 871.42 685.3C869.72 684.5 868.37 683.433 867.37 682.1C866.37 680.733 865.836 679.217 865.77 677.55H871.67C871.77 678.717 872.32 679.7 873.32 680.5C874.353 681.267 875.636 681.65 877.17 681.65C878.77 681.65 880.003 681.35 880.87 680.75C881.77 680.117 882.22 679.317 882.22 678.35C882.22 677.317 881.72 676.55 880.72 676.05C879.753 675.55 878.203 675 876.07 674.4C874.003 673.833 872.32 673.283 871.02 672.75C869.72 672.217 868.586 671.4 867.62 670.3C866.686 669.2 866.22 667.75 866.22 665.95C866.22 664.483 866.653 663.15 867.52 661.95C868.386 660.717 869.62 659.75 871.22 659.05C872.853 658.35 874.72 658 876.82 658C879.953 658 882.47 658.8 884.37 660.4C886.303 661.967 887.336 664.117 887.47 666.85H881.77C881.67 665.617 881.17 664.633 880.27 663.9C879.37 663.167 878.153 662.8 876.62 662.8C875.12 662.8 873.97 663.083 873.17 663.65C872.37 664.217 871.97 664.967 871.97 665.9C871.97 666.633 872.236 667.25 872.77 667.75C873.303 668.25 873.953 668.65 874.72 668.95C875.486 669.217 876.62 669.567 878.12 670C880.12 670.533 881.753 671.083 883.02 671.65C884.32 672.183 885.436 672.983 886.37 674.05C887.303 675.117 887.786 676.533 887.82 678.3C887.82 679.867 887.386 681.267 886.52 682.5C885.653 683.733 884.42 684.7 882.82 685.4C881.253 686.1 879.403 686.45 877.27 686.45ZM913.617 663.1V678.35C913.617 679.383 913.85 680.133 914.317 680.6C914.817 681.033 915.65 681.25 916.817 681.25H920.317V686H915.817C913.25 686 911.283 685.4 909.917 684.2C908.55 683 907.867 681.05 907.867 678.35V663.1H904.617V658.45H907.867V651.6H913.617V658.45H920.317V663.1H913.617ZM939.82 658C941.92 658 943.787 658.45 945.42 659.35C947.087 660.25 948.387 661.583 949.32 663.35C950.287 665.117 950.77 667.25 950.77 669.75V686H945.12V670.6C945.12 668.133 944.504 666.25 943.27 664.95C942.037 663.617 940.354 662.95 938.22 662.95C936.087 662.95 934.387 663.617 933.12 664.95C931.887 666.25 931.27 668.133 931.27 670.6V686H925.57V649H931.27V661.65C932.237 660.483 933.454 659.583 934.92 658.95C936.42 658.317 938.054 658 939.82 658ZM963.741 662.45C964.574 661.05 965.674 659.967 967.041 659.2C968.441 658.4 970.091 658 971.991 658V663.9H970.541C968.308 663.9 966.608 664.467 965.441 665.6C964.308 666.733 963.741 668.7 963.741 671.5V686H958.041V658.45H963.741V662.45ZM989.18 686.45C986.58 686.45 984.23 685.867 982.13 684.7C980.03 683.5 978.38 681.833 977.18 679.7C975.98 677.533 975.38 675.033 975.38 672.2C975.38 669.4 975.997 666.917 977.23 664.75C978.464 662.583 980.147 660.917 982.28 659.75C984.414 658.583 986.797 658 989.43 658C992.064 658 994.447 658.583 996.58 659.75C998.714 660.917 1000.4 662.583 1001.63 664.75C1002.86 666.917 1003.48 669.4 1003.48 672.2C1003.48 675 1002.85 677.483 1001.58 679.65C1000.31 681.817 998.58 683.5 996.38 684.7C994.214 685.867 991.814 686.45 989.18 686.45ZM989.18 681.5C990.647 681.5 992.014 681.15 993.28 680.45C994.58 679.75 995.63 678.7 996.43 677.3C997.23 675.9 997.63 674.2 997.63 672.2C997.63 670.2 997.247 668.517 996.48 667.15C995.714 665.75 994.697 664.7 993.43 664C992.164 663.3 990.797 662.95 989.33 662.95C987.864 662.95 986.497 663.3 985.23 664C983.997 664.7 983.014 665.75 982.28 667.15C981.547 668.517 981.18 670.2 981.18 672.2C981.18 675.167 981.93 677.467 983.43 679.1C984.964 680.7 986.88 681.5 989.18 681.5ZM1034.07 658.45V686H1028.37V682.75C1027.47 683.883 1026.28 684.783 1024.82 685.45C1023.38 686.083 1021.85 686.4 1020.22 686.4C1018.05 686.4 1016.1 685.95 1014.37 685.05C1012.67 684.15 1011.32 682.817 1010.32 681.05C1009.35 679.283 1008.87 677.15 1008.87 674.65V658.45H1014.52V673.8C1014.52 676.267 1015.13 678.167 1016.37 679.5C1017.6 680.8 1019.28 681.45 1021.42 681.45C1023.55 681.45 1025.23 680.8 1026.47 679.5C1027.73 678.167 1028.37 676.267 1028.37 673.8V658.45H1034.07ZM1052.69 658C1054.82 658 1056.7 658.433 1058.34 659.3C1060 660.133 1061.3 661.183 1062.24 662.45V658.45H1067.99V686.45C1067.99 688.983 1067.45 691.233 1066.39 693.2C1065.32 695.2 1063.77 696.767 1061.74 697.9C1059.74 699.033 1057.34 699.6 1054.54 699.6C1050.8 699.6 1047.7 698.717 1045.24 696.95C1042.77 695.217 1041.37 692.85 1041.04 689.85H1046.69C1047.12 691.283 1048.04 692.433 1049.44 693.3C1050.87 694.2 1052.57 694.65 1054.54 694.65C1056.84 694.65 1058.69 693.95 1060.09 692.55C1061.52 691.15 1062.24 689.117 1062.24 686.45V681.85C1061.27 683.15 1059.95 684.25 1058.29 685.15C1056.65 686.017 1054.79 686.45 1052.69 686.45C1050.29 686.45 1048.09 685.85 1046.09 684.65C1044.12 683.417 1042.55 681.717 1041.39 679.55C1040.25 677.35 1039.69 674.867 1039.69 672.1C1039.69 669.333 1040.25 666.883 1041.39 664.75C1042.55 662.617 1044.12 660.967 1046.09 659.8C1048.09 658.6 1050.29 658 1052.69 658ZM1062.24 672.2C1062.24 670.3 1061.84 668.65 1061.04 667.25C1060.27 665.85 1059.25 664.783 1057.99 664.05C1056.72 663.317 1055.35 662.95 1053.89 662.95C1052.42 662.95 1051.05 663.317 1049.79 664.05C1048.52 664.75 1047.49 665.8 1046.69 667.2C1045.92 668.567 1045.54 670.2 1045.54 672.1C1045.54 674 1045.92 675.667 1046.69 677.1C1047.49 678.533 1048.52 679.633 1049.79 680.4C1051.09 681.133 1052.45 681.5 1053.89 681.5C1055.35 681.5 1056.72 681.133 1057.99 680.4C1059.25 679.667 1060.27 678.6 1061.04 677.2C1061.84 675.767 1062.24 674.1 1062.24 672.2ZM1089.72 658C1091.82 658 1093.69 658.45 1095.32 659.35C1096.99 660.25 1098.29 661.583 1099.22 663.35C1100.19 665.117 1100.67 667.25 1100.67 669.75V686H1095.02V670.6C1095.02 668.133 1094.41 666.25 1093.17 664.95C1091.94 663.617 1090.26 662.95 1088.12 662.95C1085.99 662.95 1084.29 663.617 1083.02 664.95C1081.79 666.25 1081.17 668.133 1081.17 670.6V686H1075.47V649H1081.17V661.65C1082.14 660.483 1083.36 659.583 1084.82 658.95C1086.32 658.317 1087.96 658 1089.72 658ZM1123.83 654.8C1122.8 654.8 1121.93 654.45 1121.23 653.75C1120.53 653.05 1120.18 652.183 1120.18 651.15C1120.18 650.117 1120.53 649.25 1121.23 648.55C1121.93 647.85 1122.8 647.5 1123.83 647.5C1124.83 647.5 1125.68 647.85 1126.38 648.55C1127.08 649.25 1127.43 650.117 1127.43 651.15C1127.43 652.183 1127.08 653.05 1126.38 653.75C1125.68 654.45 1124.83 654.8 1123.83 654.8ZM1126.63 658.45V686H1120.93V658.45H1126.63ZM1148.02 658C1150.18 658 1152.12 658.45 1153.82 659.35C1155.55 660.25 1156.9 661.583 1157.87 663.35C1158.83 665.117 1159.32 667.25 1159.32 669.75V686H1153.67V670.6C1153.67 668.133 1153.05 666.25 1151.82 664.95C1150.58 663.617 1148.9 662.95 1146.77 662.95C1144.63 662.95 1142.93 663.617 1141.67 664.95C1140.43 666.25 1139.82 668.133 1139.82 670.6V686H1134.12V658.45H1139.82V661.6C1140.75 660.467 1141.93 659.583 1143.37 658.95C1144.83 658.317 1146.38 658 1148.02 658ZM1173.24 663.1V678.35C1173.24 679.383 1173.47 680.133 1173.94 680.6C1174.44 681.033 1175.27 681.25 1176.44 681.25H1179.94V686H1175.44C1172.87 686 1170.9 685.4 1169.54 684.2C1168.17 683 1167.49 681.05 1167.49 678.35V663.1H1164.24V658.45H1167.49V651.6H1173.24V658.45H1179.94V663.1H1173.24ZM1210.44 671.55C1210.44 672.583 1210.37 673.517 1210.24 674.35H1189.19C1189.36 676.55 1190.17 678.317 1191.64 679.65C1193.11 680.983 1194.91 681.65 1197.04 681.65C1200.11 681.65 1202.27 680.367 1203.54 677.8H1209.69C1208.86 680.333 1207.34 682.417 1205.14 684.05C1202.97 685.65 1200.27 686.45 1197.04 686.45C1194.41 686.45 1192.04 685.867 1189.94 684.7C1187.87 683.5 1186.24 681.833 1185.04 679.7C1183.87 677.533 1183.29 675.033 1183.29 672.2C1183.29 669.367 1183.86 666.883 1184.99 664.75C1186.16 662.583 1187.77 660.917 1189.84 659.75C1191.94 658.583 1194.34 658 1197.04 658C1199.64 658 1201.96 658.567 1203.99 659.7C1206.02 660.833 1207.61 662.433 1208.74 664.5C1209.87 666.533 1210.44 668.883 1210.44 671.55ZM1204.49 669.75C1204.46 667.65 1203.71 665.967 1202.24 664.7C1200.77 663.433 1198.96 662.8 1196.79 662.8C1194.82 662.8 1193.14 663.433 1191.74 664.7C1190.34 665.933 1189.51 667.617 1189.24 669.75H1204.49ZM1221.75 649V686H1216.05V649H1221.75ZM1234.93 649V686H1229.23V649H1234.93ZM1245.32 654.8C1244.28 654.8 1243.42 654.45 1242.72 653.75C1242.02 653.05 1241.67 652.183 1241.67 651.15C1241.67 650.117 1242.02 649.25 1242.72 648.55C1243.42 647.85 1244.28 647.5 1245.32 647.5C1246.32 647.5 1247.17 647.85 1247.87 648.55C1248.57 649.25 1248.92 650.117 1248.92 651.15C1248.92 652.183 1248.57 653.05 1247.87 653.75C1247.17 654.45 1246.32 654.8 1245.32 654.8ZM1248.12 658.45V686H1242.42V658.45H1248.12ZM1266.7 658C1268.83 658 1270.72 658.433 1272.35 659.3C1274.02 660.133 1275.32 661.183 1276.25 662.45V658.45H1282V686.45C1282 688.983 1281.47 691.233 1280.4 693.2C1279.33 695.2 1277.78 696.767 1275.75 697.9C1273.75 699.033 1271.35 699.6 1268.55 699.6C1264.82 699.6 1261.72 698.717 1259.25 696.95C1256.78 695.217 1255.38 692.85 1255.05 689.85H1260.7C1261.13 691.283 1262.05 692.433 1263.45 693.3C1264.88 694.2 1266.58 694.65 1268.55 694.65C1270.85 694.65 1272.7 693.95 1274.1 692.55C1275.53 691.15 1276.25 689.117 1276.25 686.45V681.85C1275.28 683.15 1273.97 684.25 1272.3 685.15C1270.67 686.017 1268.8 686.45 1266.7 686.45C1264.3 686.45 1262.1 685.85 1260.1 684.65C1258.13 683.417 1256.57 681.717 1255.4 679.55C1254.27 677.35 1253.7 674.867 1253.7 672.1C1253.7 669.333 1254.27 666.883 1255.4 664.75C1256.57 662.617 1258.13 660.967 1260.1 659.8C1262.1 658.6 1264.3 658 1266.7 658ZM1276.25 672.2C1276.25 670.3 1275.85 668.65 1275.05 667.25C1274.28 665.85 1273.27 664.783 1272 664.05C1270.73 663.317 1269.37 662.95 1267.9 662.95C1266.43 662.95 1265.07 663.317 1263.8 664.05C1262.53 664.75 1261.5 665.8 1260.7 667.2C1259.93 668.567 1259.55 670.2 1259.55 672.1C1259.55 674 1259.93 675.667 1260.7 677.1C1261.5 678.533 1262.53 679.633 1263.8 680.4C1265.1 681.133 1266.47 681.5 1267.9 681.5C1269.37 681.5 1270.73 681.133 1272 680.4C1273.27 679.667 1274.28 678.6 1275.05 677.2C1275.85 675.767 1276.25 674.1 1276.25 672.2ZM1314.74 671.55C1314.74 672.583 1314.67 673.517 1314.54 674.35H1293.49C1293.65 676.55 1294.47 678.317 1295.94 679.65C1297.4 680.983 1299.2 681.65 1301.34 681.65C1304.4 681.65 1306.57 680.367 1307.84 677.8H1313.99C1313.15 680.333 1311.64 682.417 1309.44 684.05C1307.27 685.65 1304.57 686.45 1301.34 686.45C1298.7 686.45 1296.34 685.867 1294.24 684.7C1292.17 683.5 1290.54 681.833 1289.34 679.7C1288.17 677.533 1287.59 675.033 1287.59 672.2C1287.59 669.367 1288.15 666.883 1289.29 664.75C1290.45 662.583 1292.07 660.917 1294.14 659.75C1296.24 658.583 1298.64 658 1301.34 658C1303.94 658 1306.25 658.567 1308.29 659.7C1310.32 660.833 1311.9 662.433 1313.04 664.5C1314.17 666.533 1314.74 668.883 1314.74 671.55ZM1308.79 669.75C1308.75 667.65 1308 665.967 1306.54 664.7C1305.07 663.433 1303.25 662.8 1301.09 662.8C1299.12 662.8 1297.44 663.433 1296.04 664.7C1294.64 665.933 1293.8 667.617 1293.54 669.75H1308.79ZM1334.25 658C1336.41 658 1338.35 658.45 1340.05 659.35C1341.78 660.25 1343.13 661.583 1344.1 663.35C1345.06 665.117 1345.55 667.25 1345.55 669.75V686H1339.9V670.6C1339.9 668.133 1339.28 666.25 1338.05 664.95C1336.81 663.617 1335.13 662.95 1333 662.95C1330.86 662.95 1329.16 663.617 1327.9 664.95C1326.66 666.25 1326.05 668.133 1326.05 670.6V686H1320.35V658.45H1326.05V661.6C1326.98 660.467 1328.16 659.583 1329.6 658.95C1331.06 658.317 1332.61 658 1334.25 658ZM1350.92 672.2C1350.92 669.367 1351.48 666.883 1352.62 664.75C1353.78 662.583 1355.38 660.917 1357.42 659.75C1359.45 658.583 1361.78 658 1364.42 658C1367.75 658 1370.5 658.8 1372.67 660.4C1374.87 661.967 1376.35 664.217 1377.12 667.15H1370.97C1370.47 665.783 1369.67 664.717 1368.57 663.95C1367.47 663.183 1366.08 662.8 1364.42 662.8C1362.08 662.8 1360.22 663.633 1358.82 665.3C1357.45 666.933 1356.77 669.233 1356.77 672.2C1356.77 675.167 1357.45 677.483 1358.82 679.15C1360.22 680.817 1362.08 681.65 1364.42 681.65C1367.72 681.65 1369.9 680.2 1370.97 677.3H1377.12C1376.32 680.1 1374.82 682.333 1372.62 684C1370.42 685.633 1367.68 686.45 1364.42 686.45C1361.78 686.45 1359.45 685.867 1357.42 684.7C1355.38 683.5 1353.78 681.833 1352.62 679.7C1351.48 677.533 1350.92 675.033 1350.92 672.2ZM1408.05 671.55C1408.05 672.583 1407.98 673.517 1407.85 674.35H1386.8C1386.96 676.55 1387.78 678.317 1389.25 679.65C1390.71 680.983 1392.51 681.65 1394.65 681.65C1397.71 681.65 1399.88 680.367 1401.15 677.8H1407.3C1406.46 680.333 1404.95 682.417 1402.75 684.05C1400.58 685.65 1397.88 686.45 1394.65 686.45C1392.01 686.45 1389.65 685.867 1387.55 684.7C1385.48 683.5 1383.85 681.833 1382.65 679.7C1381.48 677.533 1380.9 675.033 1380.9 672.2C1380.9 669.367 1381.46 666.883 1382.6 664.75C1383.76 662.583 1385.38 660.917 1387.45 659.75C1389.55 658.583 1391.95 658 1394.65 658C1397.25 658 1399.56 658.567 1401.6 659.7C1403.63 660.833 1405.21 662.433 1406.35 664.5C1407.48 666.533 1408.05 668.883 1408.05 671.55ZM1402.1 669.75C1402.06 667.65 1401.31 665.967 1399.85 664.7C1398.38 663.433 1396.56 662.8 1394.4 662.8C1392.43 662.8 1390.75 663.433 1389.35 664.7C1387.95 665.933 1387.11 667.617 1386.85 669.75H1402.1Z" fill="#D9BE9D"/>
</svg>
