<svg width="738" height="1045" viewBox="0 0 738 1045" fill="none" xmlns="http://www.w3.org/2000/svg">
<rect width="738" height="1045" fill="white"/>
<path d="M329.524 532H321.044V513.287H330.134C332.427 513.321 334.052 513.985 335.009 515.28C335.584 516.076 335.872 517.028 335.872 518.137C335.872 519.279 335.584 520.198 335.009 520.892C334.687 521.281 334.213 521.636 333.587 521.958C334.543 522.305 335.263 522.855 335.745 523.608C336.236 524.362 336.481 525.276 336.481 526.351C336.481 527.459 336.202 528.454 335.644 529.334C335.288 529.918 334.844 530.409 334.311 530.807C333.71 531.264 332.999 531.577 332.178 531.746C331.365 531.915 330.481 532 329.524 532ZM329.436 523.761H324.776V528.75H329.372C330.193 528.75 330.832 528.64 331.289 528.42C332.118 528.014 332.533 527.235 332.533 526.084C332.533 525.111 332.131 524.442 331.327 524.078C330.879 523.875 330.248 523.769 329.436 523.761ZM331.378 520.193C331.886 519.889 332.14 519.343 332.14 518.556C332.14 517.684 331.801 517.108 331.124 516.829C330.54 516.634 329.795 516.537 328.89 516.537H324.776V520.663H329.372C330.193 520.663 330.862 520.507 331.378 520.193ZM345.102 528.369L347.958 518.162H351.805L347.057 531.771C346.143 534.395 345.419 536.02 344.886 536.646C344.353 537.281 343.286 537.599 341.687 537.599C341.365 537.599 341.107 537.594 340.912 537.586C340.717 537.586 340.425 537.573 340.036 537.548V534.653L340.493 534.679C340.849 534.696 341.187 534.683 341.509 534.641C341.83 534.598 342.101 534.501 342.321 534.349C342.533 534.205 342.728 533.904 342.905 533.447C343.091 532.99 343.168 532.711 343.134 532.609L338.056 518.162H342.08L345.102 528.369ZM370.022 532H361.542V513.287H370.632C372.925 513.321 374.55 513.985 375.507 515.28C376.082 516.076 376.37 517.028 376.37 518.137C376.37 519.279 376.082 520.198 375.507 520.892C375.185 521.281 374.711 521.636 374.085 521.958C375.041 522.305 375.761 522.855 376.243 523.608C376.734 524.362 376.979 525.276 376.979 526.351C376.979 527.459 376.7 528.454 376.142 529.334C375.786 529.918 375.342 530.409 374.809 530.807C374.208 531.264 373.497 531.577 372.676 531.746C371.863 531.915 370.979 532 370.022 532ZM369.934 523.761H365.274V528.75H369.87C370.691 528.75 371.33 528.64 371.787 528.42C372.617 528.014 373.031 527.235 373.031 526.084C373.031 525.111 372.629 524.442 371.825 524.078C371.377 523.875 370.746 523.769 369.934 523.761ZM371.876 520.193C372.384 519.889 372.638 519.343 372.638 518.556C372.638 517.684 372.299 517.108 371.622 516.829C371.038 516.634 370.293 516.537 369.388 516.537H365.274V520.663H369.87C370.691 520.663 371.36 520.507 371.876 520.193ZM386.933 521.501C385.477 521.501 384.499 521.975 384 522.923C383.721 523.456 383.581 524.277 383.581 525.386V532H379.938V518.162H383.391V520.574C383.949 519.652 384.436 519.021 384.851 518.683C385.528 518.116 386.408 517.832 387.491 517.832C387.559 517.832 387.614 517.836 387.656 517.845C387.707 517.845 387.813 517.849 387.974 517.857V521.564C387.745 521.539 387.542 521.522 387.364 521.514C387.187 521.505 387.043 521.501 386.933 521.501ZM393.826 518.162V532H390.157V518.162H393.826ZM393.826 513.173V516.512H390.157V513.173H393.826ZM397.419 513.287H401.037V532H397.419V513.287ZM413.453 530.045C413.419 530.087 413.335 530.214 413.199 530.426C413.064 530.637 412.903 530.824 412.717 530.984C412.15 531.492 411.6 531.839 411.066 532.025C410.542 532.212 409.924 532.305 409.213 532.305C407.165 532.305 405.785 531.568 405.074 530.096C404.676 529.283 404.478 528.086 404.478 526.503V518.162H408.185V526.503C408.185 527.29 408.278 527.882 408.464 528.28C408.794 528.983 409.441 529.334 410.406 529.334C411.642 529.334 412.488 528.835 412.945 527.836C413.182 527.294 413.301 526.579 413.301 525.69V518.162H416.97V532H413.453V530.045Z" fill="black"/>
<path d="M275.136 570H271.102V555.455H275.449C276.813 555.455 277.98 555.743 278.95 556.321C279.921 556.899 280.664 557.727 281.18 558.807C281.701 559.882 281.959 561.172 281.955 562.678C281.95 564.216 281.68 565.533 281.145 566.626C280.61 567.715 279.836 568.551 278.822 569.134C277.809 569.711 276.58 570 275.136 570ZM271.99 569.176H275.101C276.398 569.176 277.492 568.918 278.382 568.402C279.272 567.881 279.945 567.135 280.399 566.165C280.858 565.194 281.086 564.032 281.081 562.678C281.081 561.342 280.861 560.199 280.42 559.247C279.98 558.291 279.339 557.557 278.496 557.045C277.658 556.534 276.63 556.278 275.413 556.278H271.99V569.176ZM289.368 570.227C288.383 570.227 287.526 569.983 286.797 569.496C286.067 569.008 285.504 568.34 285.106 567.493C284.708 566.645 284.51 565.679 284.51 564.595C284.51 563.506 284.708 562.536 285.106 561.683C285.509 560.831 286.06 560.159 286.761 559.666C287.462 559.174 288.262 558.928 289.162 558.928C289.772 558.928 290.35 559.051 290.895 559.297C291.444 559.538 291.927 559.889 292.343 560.348C292.765 560.807 293.094 561.361 293.331 562.01C293.572 562.659 293.693 563.388 293.693 564.197V564.737H285.056V563.949H292.826C292.826 563.158 292.665 562.446 292.343 561.811C292.021 561.177 291.583 560.672 291.029 560.298C290.475 559.924 289.853 559.737 289.162 559.737C288.437 559.737 287.791 559.941 287.223 560.348C286.659 560.75 286.212 561.295 285.88 561.982C285.554 562.668 285.383 563.435 285.369 564.283V564.638C285.369 565.547 285.528 566.364 285.845 567.088C286.167 567.808 286.626 568.378 287.223 568.8C287.819 569.216 288.534 569.425 289.368 569.425C289.964 569.425 290.473 569.325 290.895 569.126C291.321 568.923 291.669 568.677 291.939 568.388C292.208 568.099 292.412 567.82 292.549 567.55L293.338 567.869C293.172 568.234 292.914 568.598 292.564 568.963C292.218 569.323 291.778 569.624 291.243 569.865C290.712 570.107 290.087 570.227 289.368 570.227ZM303.608 561.442L302.805 561.655C302.677 561.257 302.495 560.914 302.258 560.625C302.021 560.336 301.723 560.114 301.363 559.957C301.008 559.796 300.582 559.716 300.085 559.716C299.285 559.716 298.629 559.915 298.118 560.312C297.611 560.71 297.358 561.229 297.358 561.868C297.358 562.389 297.53 562.82 297.876 563.161C298.222 563.497 298.75 563.752 299.46 563.928L301.136 564.347C301.998 564.56 302.646 564.905 303.082 565.384C303.518 565.857 303.735 566.446 303.735 567.152C303.735 567.753 303.572 568.286 303.245 568.75C302.919 569.214 302.467 569.576 301.889 569.837C301.316 570.097 300.648 570.227 299.886 570.227C298.868 570.227 298.032 569.991 297.379 569.517C296.725 569.039 296.306 568.355 296.122 567.464L296.953 567.251C297.109 567.962 297.433 568.504 297.926 568.878C298.423 569.247 299.074 569.432 299.879 569.432C300.769 569.432 301.486 569.221 302.031 568.8C302.58 568.378 302.855 567.839 302.855 567.18C302.855 566.679 302.694 566.255 302.372 565.909C302.05 565.563 301.562 565.31 300.909 565.149L299.169 564.723C298.279 564.505 297.611 564.157 297.166 563.679C296.721 563.196 296.498 562.602 296.498 561.896C296.498 561.309 296.652 560.793 296.96 560.348C297.268 559.903 297.691 559.555 298.231 559.304C298.771 559.053 299.389 558.928 300.085 558.928C301.008 558.928 301.761 559.145 302.343 559.581C302.926 560.017 303.347 560.637 303.608 561.442ZM306.777 570V559.091H307.636V570H306.777ZM307.21 557.159C307.021 557.159 306.855 557.093 306.713 556.96C306.576 556.828 306.507 556.667 306.507 556.477C306.507 556.288 306.576 556.127 306.713 555.994C306.85 555.862 307.016 555.795 307.21 555.795C307.4 555.795 307.563 555.862 307.7 555.994C307.842 556.127 307.913 556.288 307.913 556.477C307.913 556.667 307.845 556.828 307.707 556.96C307.57 557.093 307.404 557.159 307.21 557.159ZM315.2 574.318C314.523 574.318 313.915 574.228 313.375 574.048C312.835 573.873 312.376 573.622 311.997 573.295C311.623 572.969 311.337 572.58 311.138 572.131L311.862 571.705C312.023 572.055 312.253 572.367 312.551 572.642C312.849 572.917 313.219 573.132 313.659 573.288C314.104 573.445 314.618 573.523 315.2 573.523C316.251 573.523 317.082 573.25 317.693 572.706C318.309 572.166 318.616 571.338 318.616 570.22V567.507H318.531C318.366 567.981 318.119 568.402 317.793 568.771C317.471 569.136 317.075 569.422 316.607 569.631C316.138 569.839 315.605 569.943 315.009 569.943C314.147 569.943 313.389 569.721 312.736 569.276C312.082 568.83 311.573 568.205 311.209 567.401C310.844 566.591 310.662 565.639 310.662 564.545C310.662 563.452 310.839 562.483 311.195 561.641C311.554 560.793 312.061 560.13 312.714 559.652C313.368 559.169 314.135 558.928 315.016 558.928C315.645 558.928 316.19 559.048 316.649 559.29C317.113 559.527 317.501 559.841 317.814 560.234C318.126 560.627 318.368 561.058 318.538 561.527H318.638V559.091H319.476V570.256C319.476 571.165 319.296 571.92 318.936 572.521C318.581 573.123 318.081 573.572 317.438 573.871C316.798 574.169 316.053 574.318 315.2 574.318ZM315.087 569.141C315.816 569.141 316.443 568.956 316.969 568.587C317.499 568.213 317.906 567.682 318.19 566.996C318.479 566.304 318.624 565.485 318.624 564.538C318.624 563.62 318.484 562.798 318.205 562.074C317.925 561.349 317.52 560.779 316.99 560.362C316.46 559.946 315.825 559.737 315.087 559.737C314.334 559.737 313.692 559.95 313.162 560.376C312.632 560.798 312.224 561.371 311.94 562.095C311.661 562.82 311.521 563.634 311.521 564.538C311.521 565.447 311.663 566.248 311.947 566.939C312.232 567.625 312.639 568.165 313.169 568.558C313.699 568.946 314.339 569.141 315.087 569.141ZM323.988 562.926V570H323.121V559.091H323.966V560.817H324.051C324.307 560.253 324.717 559.801 325.28 559.46C325.844 559.119 326.514 558.949 327.29 558.949C328.024 558.949 328.668 559.105 329.222 559.418C329.781 559.73 330.216 560.175 330.529 560.753C330.846 561.326 331.005 562.01 331.005 562.805V570H330.138V562.841C330.138 561.913 329.861 561.167 329.307 560.604C328.758 560.036 328.031 559.751 327.127 559.751C326.521 559.751 325.981 559.884 325.507 560.149C325.034 560.414 324.662 560.786 324.392 561.264C324.123 561.738 323.988 562.292 323.988 562.926ZM338.86 570.227C337.875 570.227 337.018 569.983 336.289 569.496C335.56 569.008 334.996 568.34 334.598 567.493C334.201 566.645 334.002 565.679 334.002 564.595C334.002 563.506 334.201 562.536 334.598 561.683C335.001 560.831 335.552 560.159 336.253 559.666C336.954 559.174 337.754 558.928 338.654 558.928C339.265 558.928 339.842 559.051 340.387 559.297C340.936 559.538 341.419 559.889 341.836 560.348C342.257 560.807 342.586 561.361 342.823 562.01C343.064 562.659 343.185 563.388 343.185 564.197V564.737H334.549V563.949H342.319C342.319 563.158 342.158 562.446 341.836 561.811C341.514 561.177 341.076 560.672 340.522 560.298C339.968 559.924 339.345 559.737 338.654 559.737C337.929 559.737 337.283 559.941 336.715 560.348C336.151 560.75 335.704 561.295 335.373 561.982C335.046 562.668 334.875 563.435 334.861 564.283V564.638C334.861 565.547 335.02 566.364 335.337 567.088C335.659 567.808 336.118 568.378 336.715 568.8C337.311 569.216 338.026 569.425 338.86 569.425C339.456 569.425 339.965 569.325 340.387 569.126C340.813 568.923 341.161 568.677 341.431 568.388C341.701 568.099 341.904 567.82 342.042 567.55L342.83 567.869C342.664 568.234 342.406 568.598 342.056 568.963C341.71 569.323 341.27 569.624 340.735 569.865C340.204 570.107 339.579 570.227 338.86 570.227ZM346.168 570V559.091H347.013V560.795H347.091C347.328 560.237 347.728 559.789 348.292 559.453C348.855 559.112 349.497 558.942 350.216 558.942C350.292 558.942 350.368 558.942 350.444 558.942C350.519 558.942 350.59 558.944 350.657 558.949V559.822C350.6 559.818 350.531 559.811 350.451 559.801C350.375 559.787 350.28 559.78 350.167 559.78C349.56 559.78 349.021 559.91 348.547 560.17C348.078 560.431 347.709 560.791 347.439 561.25C347.169 561.705 347.034 562.225 347.034 562.812V570H346.168ZM362.274 570.199C361.446 570.199 360.709 570.026 360.065 569.68C359.426 569.335 358.922 568.868 358.553 568.281C358.188 567.689 358.006 567.024 358.006 566.286C358.006 565.793 358.103 565.343 358.297 564.936C358.491 564.524 358.785 564.119 359.178 563.722C359.575 563.319 360.077 562.893 360.683 562.443L362.807 560.859C363.403 560.414 363.839 559.998 364.114 559.609C364.393 559.216 364.533 558.767 364.533 558.26C364.533 557.654 364.324 557.135 363.908 556.705C363.496 556.274 362.97 556.058 362.331 556.058C361.895 556.058 361.495 556.172 361.131 556.399C360.771 556.622 360.482 556.913 360.264 557.273C360.051 557.633 359.945 558.018 359.945 558.43C359.945 558.752 360.02 559.072 360.172 559.389C360.328 559.702 360.548 560.047 360.832 560.426C361.121 560.8 361.467 561.236 361.869 561.733L368.489 570H367.438L361.358 562.422C360.889 561.844 360.484 561.338 360.143 560.902C359.803 560.466 359.54 560.052 359.355 559.659C359.17 559.266 359.078 558.852 359.078 558.416C359.078 557.834 359.22 557.306 359.504 556.832C359.793 556.354 360.181 555.975 360.669 555.696C361.157 555.417 361.706 555.277 362.317 555.277C362.923 555.277 363.458 555.41 363.922 555.675C364.386 555.935 364.748 556.293 365.009 556.747C365.269 557.197 365.399 557.701 365.399 558.26C365.399 558.88 365.233 559.441 364.902 559.943C364.575 560.445 364.066 560.964 363.375 561.499L360.989 563.274C360.193 563.88 359.642 564.42 359.334 564.893C359.031 565.367 358.879 565.831 358.879 566.286C358.879 566.854 359.026 567.372 359.32 567.841C359.613 568.31 360.013 568.686 360.52 568.97C361.031 569.254 361.611 569.399 362.26 569.403C362.913 569.394 363.517 569.266 364.071 569.02C364.625 568.774 365.113 568.43 365.534 567.99C365.96 567.545 366.306 567.017 366.571 566.406C366.841 565.791 367.016 565.107 367.097 564.354L367.942 564.396C367.894 564.988 367.79 565.521 367.629 565.994C367.468 566.463 367.281 566.877 367.068 567.237C366.86 567.597 366.659 567.902 366.464 568.153C366.408 568.229 366.353 568.303 366.301 568.374C366.249 568.445 366.192 568.513 366.131 568.58C365.652 569.096 365.065 569.496 364.369 569.78C363.678 570.059 362.98 570.199 362.274 570.199ZM380.625 570H376.591V555.455H380.937C382.301 555.455 383.468 555.743 384.439 556.321C385.409 556.899 386.153 557.727 386.669 558.807C387.19 559.882 387.448 561.172 387.443 562.678C387.438 564.216 387.168 565.533 386.633 566.626C386.098 567.715 385.324 568.551 384.311 569.134C383.297 569.711 382.069 570 380.625 570ZM377.478 569.176H380.589C381.886 569.176 382.98 568.918 383.87 568.402C384.761 567.881 385.433 567.135 385.887 566.165C386.347 565.194 386.574 564.032 386.569 562.678C386.569 561.342 386.349 560.199 385.909 559.247C385.468 558.291 384.827 557.557 383.984 557.045C383.146 556.534 382.118 556.278 380.902 556.278H377.478V569.176ZM394.856 570.227C393.871 570.227 393.014 569.983 392.285 569.496C391.556 569.008 390.992 568.34 390.594 567.493C390.197 566.645 389.998 565.679 389.998 564.595C389.998 563.506 390.197 562.536 390.594 561.683C390.997 560.831 391.549 560.159 392.249 559.666C392.95 559.174 393.75 558.928 394.65 558.928C395.261 558.928 395.838 559.051 396.383 559.297C396.932 559.538 397.415 559.889 397.832 560.348C398.253 560.807 398.582 561.361 398.819 562.01C399.06 562.659 399.181 563.388 399.181 564.197V564.737H390.545V563.949H398.315C398.315 563.158 398.154 562.446 397.832 561.811C397.51 561.177 397.072 560.672 396.518 560.298C395.964 559.924 395.341 559.737 394.65 559.737C393.925 559.737 393.279 559.941 392.711 560.348C392.147 560.75 391.7 561.295 391.369 561.982C391.042 562.668 390.871 563.435 390.857 564.283V564.638C390.857 565.547 391.016 566.364 391.333 567.088C391.655 567.808 392.114 568.378 392.711 568.8C393.308 569.216 394.022 569.425 394.856 569.425C395.452 569.425 395.961 569.325 396.383 569.126C396.809 568.923 397.157 568.677 397.427 568.388C397.697 568.099 397.9 567.82 398.038 567.55L398.826 567.869C398.66 568.234 398.402 568.598 398.052 568.963C397.706 569.323 397.266 569.624 396.731 569.865C396.201 570.107 395.576 570.227 394.856 570.227ZM409.808 559.091L405.866 570H404.886L400.944 559.091H401.875L405.341 568.885H405.412L408.877 559.091H409.808ZM416.379 570.227C415.394 570.227 414.537 569.983 413.808 569.496C413.079 569.008 412.516 568.34 412.118 567.493C411.72 566.645 411.521 565.679 411.521 564.595C411.521 563.506 411.72 562.536 412.118 561.683C412.52 560.831 413.072 560.159 413.773 559.666C414.473 559.174 415.274 558.928 416.173 558.928C416.784 558.928 417.362 559.051 417.906 559.297C418.455 559.538 418.938 559.889 419.355 560.348C419.777 560.807 420.106 561.361 420.342 562.01C420.584 562.659 420.705 563.388 420.705 564.197V564.737H412.068V563.949H419.838C419.838 563.158 419.677 562.446 419.355 561.811C419.033 561.177 418.595 560.672 418.041 560.298C417.487 559.924 416.865 559.737 416.173 559.737C415.449 559.737 414.803 559.941 414.234 560.348C413.671 560.75 413.223 561.295 412.892 561.982C412.565 562.668 412.395 563.435 412.381 564.283V564.638C412.381 565.547 412.539 566.364 412.857 567.088C413.179 567.808 413.638 568.378 414.234 568.8C414.831 569.216 415.546 569.425 416.379 569.425C416.976 569.425 417.485 569.325 417.906 569.126C418.332 568.923 418.68 568.677 418.95 568.388C419.22 568.099 419.424 567.82 419.561 567.55L420.349 567.869C420.184 568.234 419.926 568.598 419.575 568.963C419.23 569.323 418.789 569.624 418.254 569.865C417.724 570.107 417.099 570.227 416.379 570.227ZM424.554 555.455V570H423.688V555.455H424.554ZM432.196 570.227C431.296 570.227 430.496 569.986 429.795 569.503C429.095 569.015 428.543 568.345 428.141 567.493C427.738 566.641 427.537 565.67 427.537 564.581C427.537 563.487 427.738 562.517 428.141 561.669C428.543 560.817 429.095 560.147 429.795 559.659C430.496 559.171 431.296 558.928 432.196 558.928C433.096 558.928 433.896 559.171 434.597 559.659C435.297 560.147 435.849 560.817 436.251 561.669C436.654 562.521 436.855 563.492 436.855 564.581C436.855 565.67 436.654 566.641 436.251 567.493C435.849 568.345 435.297 569.015 434.597 569.503C433.896 569.986 433.096 570.227 432.196 570.227ZM432.196 569.425C432.958 569.425 433.624 569.209 434.192 568.778C434.765 568.348 435.207 567.765 435.52 567.031C435.837 566.297 435.996 565.481 435.996 564.581C435.996 563.681 435.837 562.867 435.52 562.138C435.203 561.404 434.76 560.821 434.192 560.391C433.624 559.955 432.958 559.737 432.196 559.737C431.434 559.737 430.768 559.955 430.2 560.391C429.632 560.821 429.189 561.404 428.872 562.138C428.555 562.867 428.396 563.681 428.396 564.581C428.396 565.481 428.553 566.297 428.865 567.031C429.182 567.765 429.625 568.348 430.193 568.778C430.766 569.209 431.434 569.425 432.196 569.425ZM439.84 574.091V559.091H440.685V561.527H440.792C440.962 561.058 441.201 560.627 441.509 560.234C441.821 559.841 442.207 559.527 442.667 559.29C443.131 559.048 443.675 558.928 444.3 558.928C445.181 558.928 445.948 559.169 446.601 559.652C447.255 560.135 447.761 560.803 448.121 561.655C448.481 562.502 448.661 563.475 448.661 564.574C448.661 565.672 448.479 566.648 448.114 567.5C447.754 568.348 447.248 569.015 446.594 569.503C445.945 569.986 445.185 570.227 444.314 570.227C443.694 570.227 443.15 570.109 442.681 569.872C442.217 569.635 441.826 569.321 441.509 568.928C441.196 568.53 440.957 568.094 440.792 567.621H440.706V574.091H439.84ZM440.692 564.567C440.692 565.495 440.834 566.326 441.118 567.06C441.402 567.789 441.81 568.366 442.34 568.793C442.87 569.214 443.502 569.425 444.236 569.425C444.98 569.425 445.616 569.212 446.147 568.786C446.682 568.355 447.089 567.772 447.368 567.038C447.652 566.304 447.794 565.481 447.794 564.567C447.794 563.653 447.655 562.831 447.375 562.102C447.096 561.373 446.691 560.798 446.161 560.376C445.631 559.95 444.989 559.737 444.236 559.737C443.493 559.737 442.856 559.948 442.326 560.369C441.8 560.786 441.395 561.359 441.111 562.088C440.832 562.812 440.692 563.639 440.692 564.567ZM455.911 570.227C454.926 570.227 454.069 569.983 453.339 569.496C452.61 569.008 452.047 568.34 451.649 567.493C451.251 566.645 451.053 565.679 451.053 564.595C451.053 563.506 451.251 562.536 451.649 561.683C452.052 560.831 452.603 560.159 453.304 559.666C454.005 559.174 454.805 558.928 455.705 558.928C456.315 558.928 456.893 559.051 457.438 559.297C457.987 559.538 458.47 559.889 458.886 560.348C459.308 560.807 459.637 561.361 459.874 562.01C460.115 562.659 460.236 563.388 460.236 564.197V564.737H451.599V563.949H459.369C459.369 563.158 459.208 562.446 458.886 561.811C458.564 561.177 458.126 560.672 457.572 560.298C457.018 559.924 456.396 559.737 455.705 559.737C454.98 559.737 454.334 559.941 453.766 560.348C453.202 560.75 452.755 561.295 452.423 561.982C452.097 562.668 451.926 563.435 451.912 564.283V564.638C451.912 565.547 452.071 566.364 452.388 567.088C452.71 567.808 453.169 568.378 453.766 568.8C454.362 569.216 455.077 569.425 455.911 569.425C456.507 569.425 457.016 569.325 457.438 569.126C457.864 568.923 458.212 568.677 458.482 568.388C458.751 568.099 458.955 567.82 459.092 567.55L459.881 567.869C459.715 568.234 459.457 568.598 459.107 568.963C458.761 569.323 458.321 569.624 457.786 569.865C457.255 570.107 456.63 570.227 455.911 570.227ZM463.219 570V559.091H464.064V560.795H464.142C464.379 560.237 464.779 559.789 465.342 559.453C465.906 559.112 466.547 558.942 467.267 558.942C467.343 558.942 467.419 558.942 467.494 558.942C467.57 558.942 467.641 558.944 467.707 558.949V559.822C467.651 559.818 467.582 559.811 467.501 559.801C467.426 559.787 467.331 559.78 467.217 559.78C466.611 559.78 466.071 559.91 465.598 560.17C465.129 560.431 464.76 560.791 464.49 561.25C464.22 561.705 464.085 562.225 464.085 562.812V570H463.219Z" fill="black"/>
</svg>
